<svg width="100" height="100" viewBox="0 0 100 100" fill="none" xmlns="http://www.w3.org/2000/svg">
<path d="M49 51.5L52.5 49L68.5 62L65.5 66.5L62 66L56 63L49 51.5Z" fill="white"/>
<path d="M48.1953 82.2004L50.5953 84.4004C51.5953 85.3004 53.1953 85.1004 54.1953 84.0004C55.1953 82.9004 55.1953 81.2004 54.2953 80.3004L52.7953 78.9004L48.1953 82.2004Z" fill="#E5E9EE" stroke="#E5E9EE" stroke-miterlimit="10"/>
<path d="M66.4969 67.0996L61.7969 71.2996L62.9969 72.4996L63.5969 73.0996C64.8969 74.3996 66.6969 74.3996 67.6969 72.8996C68.6969 71.4996 68.4969 69.1996 67.1969 67.7996L66.4969 67.0996Z" fill="#E5E9EE" stroke="#E5E9EE" stroke-miterlimit="10"/>
<path d="M52.3984 78.6992L53.8984 80.1992L55.5984 81.7992C56.5984 82.7992 58.2984 82.5992 59.3984 81.3992C60.4984 80.1992 60.4984 78.3992 59.4984 77.3992L57.1984 75.1992L52.3984 78.6992Z" fill="#E5E9EE" stroke="#E5E9EE" stroke-miterlimit="10"/>
<path d="M57.0938 74.8992L60.2938 77.9992C61.2938 78.9992 62.9938 78.7992 64.0938 77.4992C65.1938 76.1992 65.1937 74.3992 64.1937 73.2992L63.1938 72.2992L62.0938 71.1992L57.0938 74.8992Z" fill="#E5E9EE" stroke="#E5E9EE" stroke-miterlimit="10"/>
<path d="M48.3 51.3984L40.1 58.7984C34.8 63.5984 34.3 67.4984 38.6 72.0984L41.8 74.4984C46.2 79.1984 51.4 81.3984 56.7 76.5984L64.9 69.1984" fill="white"/>
<path d="M67.8984 63.3C68.2984 62.6 72.0984 55.3 72.0984 55.3L62.8984 45.5L56.1984 47.7C54.1984 47.9 52.1984 48.6 50.3984 49.7" fill="white"/>
<path d="M60.1228 45.9208L58.375 47.416L69.4917 60.4103L71.2395 58.9151L60.1228 45.9208Z" fill="#E5E9EE"/>
<path d="M67.9 63.3C68.3 62.6 72.1 55.3 72.1 55.3L62.9 45.5L56.2 47.7C53.4 48 50.6 49.2 48.3 51.3L40.1 58.7C34.8 63.5 34.3 67.4 38.6 72L41.8 74.4C46.2 79.1 51.4 81.3 56.7 76.5L64.9 69.1" stroke="#333333" stroke-width="2" stroke-miterlimit="10" stroke-linecap="square" stroke-linejoin="bevel"/>
<path d="M55.7969 54.3984L68.2969 64.7984L65.4969 68.2984L49.7969 61.2984C50.7969 57.8984 52.7969 55.6984 55.7969 54.3984Z" fill="#E5E9EE"/>
<path d="M43.7969 49.2984L37.6969 46.3984L29.7969 55.8984L32.2969 61.9984C32.7969 64.5984 33.9969 67.0984 35.9969 69.0984L43.0969 76.1984C47.6969 80.7984 54.4969 80.7984 58.1969 76.2984L58.8969 75.4984C62.5969 70.9984 61.8969 63.4984 57.2969 58.9984L50.1969 51.8984C50.0969 51.7984 49.9969 51.6984 49.8969 51.5984" fill="white"/>
<path d="M41.1545 48.4014L39.3984 46.916L29.9052 58.1395L31.6612 59.6248L41.1545 48.4014Z" fill="#E5E9EE"/>
<path d="M43.7969 49.2984L37.6969 46.3984L29.7969 55.8984L32.2969 61.9984C32.7969 64.5984 33.9969 67.0984 35.9969 69.0984L43.0969 76.1984C47.6969 80.7984 54.4969 80.7984 58.1969 76.2984L58.8969 75.4984C62.5969 70.9984 61.8969 63.4984 57.2969 58.9984L50.1969 51.8984C50.0969 51.7984 49.9969 51.6984 49.8969 51.5984" stroke="#333333" stroke-width="2" stroke-miterlimit="10" stroke-linecap="square" stroke-linejoin="bevel"/>
<path d="M50.3982 49.7988L48.1982 51.1988L46.1982 52.5988C44.7982 53.5988 44.2982 55.4988 45.2982 56.8988C46.1982 58.2988 48.1982 58.6988 49.5982 57.6988L53.7982 54.7988C53.8982 54.6988 54.2982 54.3988 54.2982 54.3988" fill="white"/>
<path d="M50.3982 49.7988L48.1982 51.1988L46.1982 52.5988C44.7982 53.5988 44.2982 55.4988 45.2982 56.8988C46.1982 58.2988 48.1982 58.6988 49.5982 57.6988L53.7982 54.7988C53.8982 54.6988 54.2982 54.3988 54.2982 54.3988" stroke="#333333" stroke-width="2" stroke-miterlimit="10" stroke-linecap="square" stroke-linejoin="bevel"/>
<path d="M49.2938 74.5L53.3938 78.6C54.2938 79.5 54.2938 81.3 53.2938 82.5C52.2938 83.7 50.7938 83.9 49.7938 83L43.0938 76.3" fill="white"/>
<path d="M49.2938 74.5L53.3938 78.6C54.2938 79.5 54.2938 81.3 53.2938 82.5C52.2938 83.7 50.7938 83.9 49.7938 83L43.0938 76.3" stroke="#333333" stroke-width="2" stroke-miterlimit="10" stroke-linecap="square" stroke-linejoin="round"/>
<path d="M57.4 66.8992L62.5 71.9992C63.7 73.1992 65.4 73.0992 66.4 71.8992C67.4 70.6992 67.2 68.7992 66.1 67.6992L57 58.6992" fill="white"/>
<path d="M57.4 66.8992L62.5 71.9992C63.7 73.1992 65.4 73.0992 66.4 71.8992C67.4 70.6992 67.2 68.7992 66.1 67.6992L57 58.6992" stroke="#333333" stroke-width="2" stroke-miterlimit="10" stroke-linecap="square" stroke-linejoin="round"/>
<path d="M54.4984 71.8984L58.4984 75.8984C59.3984 76.7984 59.3984 78.5984 58.3984 79.7984C57.3984 80.9984 55.8984 81.1984 54.8984 80.1984L49.3984 74.6984" fill="white"/>
<path d="M54.4984 71.8984L58.4984 75.8984C59.3984 76.7984 59.3984 78.5984 58.3984 79.7984C57.3984 80.9984 55.8984 81.1984 54.8984 80.1984L49.3984 74.6984" stroke="#333333" stroke-width="2" stroke-miterlimit="10" stroke-linecap="square"/>
<path d="M58.8984 68.3984L62.8984 72.3984C63.7984 73.2984 63.7984 75.0984 62.7984 76.2984C61.7984 77.4984 60.2984 77.6984 59.2984 76.6984L57.3984 74.7984" fill="white"/>
<path d="M58.8984 68.3984L62.8984 72.3984C63.7984 73.2984 63.7984 75.0984 62.7984 76.2984C61.7984 77.4984 60.2984 77.6984 59.2984 76.6984L57.3984 74.7984" stroke="#333333" stroke-width="2" stroke-miterlimit="10" stroke-linecap="square"/>
<path d="M39.399 63.3995C38.399 62.3995 36.999 62.1995 36.099 62.9995L35.999 63.0995L34.599 64.3995L33.299 65.5995C32.399 66.3995 32.499 67.8995 33.399 68.9995C34.399 69.9995 35.799 70.1995 36.699 69.3995L39.399 66.8995C40.399 65.9995 40.399 64.4995 39.399 63.3995Z" fill="white" stroke="#333333" stroke-width="2" stroke-miterlimit="10" stroke-linecap="square"/>
<path d="M49.799 74.5987C48.799 73.5987 47.399 73.3987 46.499 74.1987L43.799 76.6987C42.899 77.4987 42.999 78.9987 43.899 80.0987C44.899 81.0987 46.299 81.2987 47.199 80.4987L47.699 80.0987L49.999 77.9987C50.799 77.1987 50.699 75.6987 49.799 74.5987Z" fill="white" stroke="#333333" stroke-width="2" stroke-miterlimit="10" stroke-linecap="square"/>
<path d="M45.0005 65.2003C44.0005 64.2003 42.6005 64.0003 41.7005 64.8003L40.7005 65.7003L37.9005 68.3003L36.9005 69.2003C36.0005 70.0003 36.1005 71.5003 37.0005 72.6003C38.0005 73.6003 39.4005 73.8003 40.3005 73.0003L41.3005 72.0003L44.1005 69.5003L45.1005 68.5003C46.0005 67.7003 46.0005 66.2003 45.0005 65.2003Z" fill="white" stroke="#333333" stroke-width="2" stroke-miterlimit="10" stroke-linecap="square"/>
<path d="M47.599 69.7999C46.599 68.7999 45.199 68.5999 44.299 69.3999L44.199 69.4999L40.499 72.8999L40.299 72.9999C39.399 73.7999 39.499 75.2999 40.399 76.3999C41.399 77.3999 42.799 77.5999 43.699 76.7999L43.899 76.5999L47.499 73.1999L47.699 72.9999C48.599 72.2999 48.499 70.7999 47.599 69.7999Z" fill="white" stroke="#333333" stroke-width="2" stroke-miterlimit="10" stroke-linecap="square"/>
<path d="M39.8969 45.2992L16.7969 20.1992V48.0992L27.8969 59.1992L39.8969 45.2992Z" fill="#E5E9EE" stroke="#333333" stroke-width="2" stroke-miterlimit="10" stroke-linecap="square" stroke-linejoin="bevel"/>
<path d="M72.5 59.1992L83.6 48.0992V20.1992L60.5 45.2992L72.5 59.1992Z" fill="#E5E9EE" stroke="#333333" stroke-width="2" stroke-miterlimit="10" stroke-linecap="square" stroke-linejoin="bevel"/>
</svg>
