<svg width="28" height="25" viewBox="0 0 28 25" fill="none" xmlns="http://www.w3.org/2000/svg">
<path d="M1.5625 14.7988C1.82772 14.7988 2.08207 14.9042 2.26961 15.0917C2.45714 15.2793 2.5625 15.5336 2.5625 15.7988V20.7988C2.5625 21.3293 2.77321 21.838 3.14829 22.213C3.52336 22.5881 4.03207 22.7988 4.5625 22.7988H23.4425C23.9729 22.7988 24.4816 22.5881 24.8567 22.213C25.2318 21.838 25.4425 21.3293 25.4425 20.7988V15.7988C25.4425 15.5336 25.5479 15.2793 25.7354 15.0917C25.9229 14.9042 26.1773 14.7988 26.4425 14.7988C26.7077 14.7988 26.9621 14.9042 27.1496 15.0917C27.3371 15.2793 27.4425 15.5336 27.4425 15.7988V20.7988C27.4425 21.8597 27.0211 22.8771 26.2709 23.6273C25.5208 24.3774 24.5034 24.7988 23.4425 24.7988H4.5625C3.50163 24.7988 2.48422 24.3774 1.73407 23.6273C0.983927 22.8771 0.5625 21.8597 0.5625 20.7988V15.7988C0.5625 15.5336 0.667857 15.2793 0.855393 15.0917C1.04293 14.9042 1.29728 14.7988 1.5625 14.7988Z" fill="#787878"/>
<path d="M13.2933 18.7078C13.3862 18.801 13.4965 18.8749 13.618 18.9253C13.7395 18.9757 13.8697 19.0016 14.0013 19.0016C14.1328 19.0016 14.263 18.9757 14.3845 18.9253C14.506 18.8749 14.6164 18.801 14.7093 18.7078L20.7093 12.7078C20.897 12.5201 21.0025 12.2654 21.0025 11.9998C21.0025 11.7343 20.897 11.4796 20.7093 11.2918C20.5215 11.1041 20.2668 10.9986 20.0013 10.9986C19.7357 10.9986 19.481 11.1041 19.2933 11.2918L15.0013 15.5858V1.83984C15.0013 1.57463 14.8959 1.32027 14.7084 1.13274C14.5208 0.945201 14.2665 0.839844 14.0013 0.839844C13.736 0.839844 13.4817 0.945201 13.2942 1.13274C13.1066 1.32027 13.0013 1.57463 13.0013 1.83984V15.5858L8.70926 11.2918C8.52149 11.1041 8.26681 10.9986 8.00126 10.9986C7.73571 10.9986 7.48104 11.1041 7.29326 11.2918C7.10549 11.4796 7 11.7343 7 11.9998C7 12.2654 7.10549 12.5201 7.29326 12.7078L13.2933 18.7078Z" fill="#787878"/>
</svg>
