<svg width="50" height="50" viewBox="0 0 50 50" fill="none" xmlns="http://www.w3.org/2000/svg">
<circle cx="25" cy="25" r="24.25" fill="white" stroke="#C4C4C4" stroke-width="1.5"/>
<path d="M25.8075 13V14.7225C31.0293 14.7225 35.2781 18.9728 35.2781 24.1964H37C37 18.0229 31.9789 13 25.8075 13ZM16.8966 15.5889C16.4455 15.5889 15.9935 15.7362 15.6258 16.0325L15.5837 16.0669L12.8759 18.8609L12.9336 18.8066C12.0382 19.5783 11.7903 20.7978 12.1751 21.8227C12.9009 23.9156 14.7494 27.9626 18.399 31.6075C22.0546 35.2696 26.1425 37.0403 28.1648 37.8301L28.1855 37.837L28.2053 37.8439C28.7117 38.0113 29.2527 38.0448 29.7758 37.9409C30.2989 37.8371 30.7862 37.5995 31.1903 37.2513L31.2161 37.2298L33.9057 34.5384C34.6203 33.8235 34.6203 32.5712 33.9057 31.8573L30.3784 28.3244C29.6621 27.6078 28.4102 27.6078 27.6939 28.3244L25.9858 30.0331C25.3745 29.7411 23.8695 28.9841 22.4386 27.6199C21.0284 26.2729 20.3077 24.7174 20.0469 24.1154L21.7688 22.3929C22.5238 21.6376 22.5669 20.3396 21.6965 19.6455L21.7748 19.7187L18.2087 16.0669L18.1683 16.0325C17.8075 15.7437 17.3587 15.5871 16.8966 15.5889ZM25.8075 16.445V18.1676C29.13 18.1676 31.8342 20.8719 31.8342 24.1964H33.5562C33.5562 19.9228 30.0805 16.445 25.8075 16.445ZM16.8983 17.3063C16.9603 17.3063 17.0206 17.3295 17.08 17.3752L20.5815 20.9615L20.6237 20.9959C20.6134 20.9873 20.6564 21.07 20.5514 21.1751L18.0055 23.7227L18.2018 24.2429C18.2018 24.2429 19.1739 26.8852 21.2505 28.867C23.2927 30.8151 25.811 31.8796 25.811 31.8796L26.3474 32.1087L28.9113 29.5431C29.0568 29.3984 29.0155 29.3984 29.161 29.5431L32.6883 33.0759C32.8347 33.2223 32.8347 33.1741 32.6883 33.3214L30.065 35.9457C29.6655 36.285 29.2531 36.3737 28.7563 36.2092C26.8097 35.4478 23 33.7804 19.6164 30.3905C16.2087 26.986 14.442 23.1181 13.7946 21.244L13.7911 21.2336L13.786 21.2216C13.656 20.8771 13.7515 20.3767 14.0572 20.1131L14.0856 20.0873L16.715 17.3752C16.7668 17.3326 16.8313 17.3084 16.8983 17.3063ZM25.8075 19.8901V21.6126C27.2316 21.6126 28.3904 22.7718 28.3904 24.1964H30.1123C30.1123 21.8219 28.1812 19.8901 25.8075 19.8901Z" fill="#C4C4C4"/>
</svg>
