<svg width="40" height="40" viewBox="0 0 40 40" fill="none" xmlns="http://www.w3.org/2000/svg">
<path d="M33.9202 22.6582H7.2494C4.99745 22.6582 3.17188 24.4929 3.17188 26.7561V33.4572C3.17188 35.7204 4.99745 37.5551 7.2494 37.5551H33.9202C36.1722 37.5551 37.9977 35.7204 37.9977 33.4572V26.7561C37.9977 24.4929 36.1722 22.6582 33.9202 22.6582Z" fill="#5AB977"/>
<path d="M22.6744 7.06237L22.2609 9.15508L20.8751 10.7374L18.2849 11.7145L16.3405 11.853L14.6282 13.3405L13.8882 15.3384V17.3363L14.9547 19.2467L16.0648 20.0415L16.9935 20.552H14.5847L11.6172 21.1134L10.1806 22.8342C10.1806 22.8342 9.57845 24.0447 9.67277 25.0217C9.76709 25.9988 10.275 27.253 10.275 27.253L11.3415 28.8353C11.3415 28.8353 10.0936 29.0249 8.93272 29.302C8.93272 29.302 8.19267 29.3457 7.68479 30.1842C7.17691 31.0228 7.03906 30.979 7.03906 31.5332C7.03906 32.0874 7.13338 32.977 7.8299 33.6259C8.52642 34.2749 13.1118 33.9978 13.1118 33.9978L30.5683 34.0415C30.5683 34.0415 32.4402 33.079 32.9335 32.503C33.4922 31.854 33.9493 30.7822 33.9493 29.7103C33.9493 28.6384 33.2528 26.8738 32.4692 26.3124C31.6856 25.7509 31.2648 25.0582 30.0604 24.8249C28.856 24.5915 26.0046 24.4311 26.0046 24.4311L24.082 24.8249L28.8996 24.2634L29.8718 23.0092L30.5683 20.778L30.1039 18.3572L28.7182 17.052L27.4195 16.2572L25.105 15.7467L27.4702 13.3697C27.4702 13.3697 27.3759 11.4155 27.2816 10.6717C27.1873 9.92799 27.093 9.73841 27.093 9.73841L25.105 7.59466L23.5306 7.22279L22.6962 7.0332L22.6744 7.06237Z" fill="#F5C935"/>
<path d="M34.309 29.4532C34.309 26.6897 32.0743 24.4439 29.3245 24.4439H29.0416C30.2097 23.5251 30.9715 22.1032 30.9715 20.4991C30.9715 18.3335 29.6003 16.423 27.5542 15.7449C27.2785 15.6501 26.9811 15.8032 26.8867 16.0803C26.7924 16.3574 26.9448 16.6564 27.2205 16.7512C28.8312 17.2835 29.9195 18.7928 29.9195 20.4991C29.9195 22.672 28.1564 24.4439 25.9871 24.4439H18.514C18.2238 24.4439 17.9844 24.6845 17.9844 24.9762C17.9844 25.2678 18.2238 25.5085 18.514 25.5085H29.3318C31.5012 25.5085 33.257 27.2803 33.257 29.4532C33.257 29.7449 33.4964 29.9855 33.7866 29.9855C34.0768 29.9855 34.3163 29.7449 34.3163 29.4532H34.309Z" fill="#474747"/>
<path d="M8.94475 33.9309C8.94475 34.2226 9.18418 34.4632 9.4744 34.4632H29.3324C31.1898 34.4632 32.8875 33.4351 33.7509 31.7726C33.8888 31.5101 33.7872 31.1892 33.526 31.058C33.2721 30.9194 32.9528 31.0215 32.815 31.284C32.133 32.5892 30.798 33.4059 29.3324 33.4059H9.46714C9.17693 33.4059 8.9375 33.6465 8.9375 33.9382L8.94475 33.9309Z" fill="#474747"/>
<path d="M19.998 29.9865C20.2882 29.9865 20.5277 29.7458 20.5277 29.4542C20.5277 29.1625 20.2882 28.9219 19.998 28.9219H14.1937C13.9035 28.9219 13.6641 29.1625 13.6641 29.4542C13.6641 29.7458 13.9035 29.9865 14.1937 29.9865H19.998Z" fill="#474747"/>
<path d="M23.335 29.9865C23.6252 29.9865 23.8647 29.7458 23.8647 29.4542C23.8647 29.1625 23.6252 28.9219 23.335 28.9219H22.225C21.9347 28.9219 21.6953 29.1625 21.6953 29.4542C21.6953 29.7458 21.9347 29.9865 22.225 29.9865H23.335Z" fill="#474747"/>
<path d="M29.3264 29.9865C29.6167 29.9865 29.8561 29.7458 29.8561 29.4542C29.8561 29.1625 29.6167 28.9219 29.3264 28.9219H25.5609C25.2707 28.9219 25.0312 29.1625 25.0312 29.4542C25.0312 29.7458 25.2707 29.9865 25.5609 29.9865H29.3264Z" fill="#474747"/>
<path d="M26.2583 21.0314C26.5485 21.0314 26.788 20.7908 26.788 20.4991C26.788 20.2074 26.5485 19.9668 26.2583 19.9668H22.8265C22.5363 19.9668 22.2969 20.2074 22.2969 20.4991C22.2969 20.7908 22.5363 21.0314 22.8265 21.0314H26.2583Z" fill="#474747"/>
<path d="M26.5 10.7424C26.558 11.0268 26.841 11.2164 27.1239 11.1581C27.4069 11.0997 27.5955 10.8227 27.5375 10.531C27.0659 8.21224 25.0126 6.53516 22.6546 6.53516C22.3644 6.53516 22.125 6.77578 22.125 7.06745C22.125 8.86849 21.443 11.0122 18.1853 11.0122C15.4355 11.0122 13.2008 13.2581 13.2008 16.0216C13.2008 17.5747 13.9264 19.0185 15.0655 19.9664H14.2891C11.5393 19.9664 9.30469 22.2122 9.30469 24.9758C9.30469 25.9529 9.58765 26.9008 10.1173 27.7174C10.2189 27.8706 10.3857 27.9581 10.5599 27.9581C10.6614 27.9581 10.763 27.9289 10.8501 27.8706C11.0968 27.7102 11.1621 27.382 11.0024 27.1341C10.5816 26.4924 10.364 25.7414 10.364 24.9758C10.364 22.8029 12.127 21.031 14.2891 21.031H17.3291C17.3944 21.031 17.4597 21.0164 17.5178 20.9945C17.5396 20.9872 17.5541 20.9727 17.5758 20.9654C17.6121 20.9435 17.6484 20.9216 17.6774 20.8924C17.6919 20.8779 17.7064 20.856 17.7282 20.8414C17.75 20.8122 17.779 20.7758 17.7935 20.7466C17.808 20.7247 17.8153 20.6956 17.8225 20.6737C17.8225 20.6518 17.837 20.6372 17.8443 20.6154C17.8443 20.6008 17.8443 20.5789 17.8443 20.5643C17.8443 20.5497 17.8515 20.5352 17.8515 20.5133C17.8515 20.4914 17.8443 20.4768 17.8443 20.4622C17.8443 20.4258 17.837 20.3893 17.8225 20.3602C17.8153 20.3237 17.8007 20.3018 17.7862 20.2654C17.7717 20.2362 17.75 20.207 17.7282 20.1852C17.7064 20.156 17.6847 20.1341 17.6556 20.1122C17.6339 20.0904 17.6049 20.0758 17.5758 20.0612C17.5468 20.0466 17.5105 20.032 17.4743 20.0174C17.4597 20.0174 17.4452 20.0029 17.4235 19.9956C15.6169 19.6383 14.2529 17.932 14.2529 16.0362C14.2529 13.856 16.0159 12.0914 18.178 12.0914C21.16 12.0914 22.9521 10.4799 23.1552 7.64349C24.7949 7.86224 26.159 9.10182 26.4927 10.7643L26.5 10.7424Z" fill="#474747"/>
<path d="M6.97961 31.7431C7.01589 31.7504 7.05217 31.7577 7.08845 31.7577C7.33513 31.7577 7.55279 31.59 7.60358 31.3348C7.74143 30.7004 8.22754 30.1973 8.8515 30.0369C9.13446 29.964 9.30859 29.6796 9.23604 29.3952C9.16349 29.1108 8.87327 28.9358 8.59757 29.0087C7.58181 29.264 6.79097 30.0879 6.57331 31.1087C6.51527 31.3931 6.69665 31.6775 6.97961 31.7358V31.7431Z" fill="#474747"/>
<path d="M18.1859 15.4902C17.8957 15.4902 17.6562 15.7309 17.6562 16.0225C17.6562 16.3142 17.8957 16.5548 18.1859 16.5548H21.9514C22.2417 16.5548 22.4811 16.3142 22.4811 16.0225C22.4811 15.7309 22.2417 15.4902 21.9514 15.4902H18.1859Z" fill="#474747"/>
<path d="M11.6633 6.68828C11.4601 6.48411 11.1264 6.48411 10.916 6.68828C9.96551 7.6362 9.96551 9.18932 10.916 10.1372C11.4529 10.6768 11.4529 11.5518 10.916 12.0914C10.7128 12.2956 10.7128 12.631 10.916 12.8424C11.0175 12.9445 11.1554 12.9956 11.286 12.9956C11.4166 12.9956 11.5544 12.9445 11.656 12.8424C12.5992 11.8945 12.5992 10.3414 11.656 9.39349C11.1191 8.85391 11.1191 7.97891 11.656 7.44661C11.8592 7.24245 11.8592 6.90703 11.656 6.69557L11.6633 6.68828Z" fill="#474747"/>
<path d="M7.97577 12.7488C7.77262 12.5447 7.43887 12.5447 7.22847 12.7488C6.27801 13.6967 6.27801 15.2499 7.22847 16.1978C7.76537 16.7374 7.76537 17.6124 7.22847 18.1447C7.02532 18.3488 7.02532 18.6842 7.22847 18.8957C7.33004 18.9978 7.4679 19.0488 7.59849 19.0488C7.72909 19.0488 7.86694 18.9978 7.96852 18.8957C8.91897 17.9478 8.91897 16.3947 7.96852 15.4467C7.43162 14.9072 7.43162 14.0322 7.96852 13.4926C8.17167 13.2884 8.17167 12.953 7.96852 12.7415L7.97577 12.7488Z" fill="#474747"/>
<path d="M32.4836 11.0633C32.2804 10.8591 31.9394 10.8591 31.7363 11.0633C30.7858 12.0112 30.7858 13.5643 31.7363 14.5122C32.2732 15.0518 32.2732 15.9268 31.7363 16.4664C31.5331 16.6706 31.5331 17.006 31.7363 17.2174C31.8379 17.3195 31.9757 17.3706 32.1063 17.3706C32.2369 17.3706 32.3748 17.3195 32.4763 17.2174C33.4195 16.2695 33.4195 14.7164 32.4763 13.7685C31.9394 13.2289 31.9394 12.3539 32.4763 11.8216C32.6795 11.6174 32.6795 11.282 32.4763 11.0706L32.4836 11.0633Z" fill="#474747"/>
<path d="M32.377 3H16.9593C16.6691 3 16.4297 3.24063 16.4297 3.53229C16.4297 3.82396 16.6691 4.06458 16.9593 4.06458H32.377C34.8003 4.06458 36.7738 6.04792 36.7738 8.48333V18.3635C36.7738 18.6552 37.0132 18.8958 37.3034 18.8958C37.5937 18.8958 37.8331 18.6552 37.8331 18.3635V8.47604C37.8331 5.45729 35.388 3 32.3843 3H32.377Z" fill="#474747"/>
<path d="M37.2962 20.6599C37.006 20.6599 36.7666 20.9005 36.7666 21.1922V32.5234C36.7666 34.9589 34.7931 36.9422 32.3698 36.9422H8.45605C7.375 36.9422 6.38827 36.5484 5.6192 35.8922L33.9225 7.4401C34.1256 7.23594 34.1256 6.90052 33.9225 6.68906C33.7193 6.4849 33.3783 6.4849 33.1752 6.68906L4.90091 35.112C4.37127 34.3828 4.05929 33.4859 4.05929 32.5161V8.47552C4.05203 6.0401 6.0255 4.05677 8.45605 4.05677H14.1443C14.4345 4.05677 14.6739 3.81615 14.6739 3.52448C14.6739 3.23281 14.4345 2.99219 14.1443 2.99219H8.45605C5.44507 2.99948 3 5.45677 3 8.47552V32.5161C3 35.5349 5.44507 37.9995 8.45605 37.9995H32.3771C35.3808 37.9995 37.8259 35.5422 37.8259 32.5161V21.1849C37.8259 20.8932 37.5864 20.6526 37.2962 20.6526V20.6599Z" fill="#474747"/>
</svg>
