<svg width="40" height="40" viewBox="0 0 40 40" fill="none" xmlns="http://www.w3.org/2000/svg">
<path d="M18.0804 16.386C18.0804 16.386 19.1671 15.2683 19.5132 14.8454C19.8593 14.4225 19.9018 14.5735 19.9382 14.2654C19.9746 13.9573 19.9746 13.0691 19.9018 12.4891C19.8289 11.9091 18.6632 10.0604 18.6632 10.0604L15.0143 7.5531L12.8469 7.08789L12.4219 10.1752L13.199 14.7246L14.7472 16.38L15.9493 16.9962C15.9493 16.9962 16.7993 17.0748 17.1514 16.96C17.5036 16.8452 18.0804 16.38 18.0804 16.38V16.386Z" fill="#5AB977"/>
<path d="M23.4633 15.5766L22.4554 13.5708C22.4554 13.5708 21.9151 11.3353 22.8804 10.4835C23.8458 9.63159 26.6811 7.32367 26.6811 7.32367L29.1218 6.70742L32.5339 6.43555L31.5624 10.0968L29.2371 13.9514L26.9482 15.6853L24.2343 15.9935L23.4572 15.5705L23.4633 15.5766Z" fill="#5AB977"/>
<path d="M15.7126 26.8315L10.6006 31.7675C10.6006 31.7675 9.59272 32.1542 9.44093 32.849C9.28915 33.5437 9.36201 34.3171 10.0602 34.4681C10.7584 34.6192 29.8224 34.6977 29.8224 34.6977C29.8224 34.6977 31.6802 34.9273 31.8381 34.3896C31.996 33.8519 32.2267 33.3867 32.0688 32.9215C31.911 32.4563 25.0139 25.75 25.0139 25.75C25.0139 25.75 24.7832 26.2817 21.9115 26.9825C19.0397 27.6833 16.8723 27.4477 16.5626 27.4477C16.253 27.4477 15.7126 26.8315 15.7126 26.8315Z" fill="#68A7DB"/>
<path d="M15.0131 34.1234H10.6357C10.32 34.1234 10.065 33.9482 9.94353 33.6642C9.82211 33.3742 9.88282 33.0721 10.1075 32.8486L14.1995 28.7765C14.3695 28.6073 14.3695 28.3294 14.1995 28.1542C14.0295 27.9851 13.7442 27.9851 13.5742 28.1542L9.48211 32.2263C9.00855 32.6976 8.86891 33.3803 9.12998 33.9965C9.38497 34.6188 9.96782 34.9994 10.6417 34.9994H15.0192C15.262 34.9994 15.4624 34.8001 15.4624 34.5584C15.4624 34.3167 15.262 34.1173 15.0192 34.1173L15.0131 34.1234Z" fill="#474747"/>
<path d="M19.6117 34.123H17.6385C17.3957 34.123 17.1953 34.3224 17.1953 34.5641C17.1953 34.8058 17.3957 35.0051 17.6385 35.0051H19.6117C19.8546 35.0051 20.0549 34.8058 20.0549 34.5641C20.0549 34.3224 19.8546 34.123 19.6117 34.123Z" fill="#474747"/>
<path d="M30.7842 30.9277C30.6081 30.7585 30.3288 30.7585 30.1588 30.9277C29.9889 31.0968 29.9889 31.3747 30.1588 31.5499L31.4642 32.8489C31.6888 33.0724 31.7495 33.3745 31.6281 33.6645C31.5067 33.9545 31.2517 34.1237 30.936 34.1237H22.2479C22.005 34.1237 21.8047 34.3231 21.8047 34.5647C21.8047 34.8064 22.005 35.0058 22.2479 35.0058H30.936C31.6099 35.0058 32.1867 34.6191 32.4477 34.0029C32.7027 33.3866 32.5692 32.7039 32.0956 32.2327L30.7903 30.9337L30.7842 30.9277Z" fill="#474747"/>
<path d="M22.1924 32.1353C21.992 30.347 21.901 28.6311 21.907 26.9818C22.3745 26.8972 22.8784 26.8368 23.4127 26.8186C23.6556 26.8066 23.8438 26.6072 23.8377 26.3655C23.8316 26.1238 23.6313 25.9245 23.3824 25.9426C22.8663 25.9607 22.3806 26.0091 21.9192 26.0876C21.9677 24.3234 22.1317 22.6438 22.417 21.067C22.4595 20.8253 22.3017 20.6018 22.0649 20.5534C21.8281 20.5051 21.5974 20.6682 21.5488 20.9099C21.2392 22.5955 21.0631 24.3899 21.0267 26.287C20.8992 26.3232 20.7595 26.3595 20.6442 26.4018C19.4785 26.8005 17.7239 26.9153 16.2182 26.722C17.1471 25.5861 17.651 24.1845 17.651 22.7043V19.5082H18.4282C18.8531 21.2603 19.1628 23.1695 19.2599 25.2418C19.2721 25.4774 19.4663 25.6586 19.7031 25.6586C19.7092 25.6586 19.7153 25.6586 19.7213 25.6586C19.9642 25.6466 20.1524 25.4411 20.1403 25.1995C20.0431 23.1513 19.7517 21.2543 19.3328 19.5082H23.9166V22.7043C23.9166 24.408 24.5845 26.003 25.7927 27.2113L28.6644 30.0691C28.7494 30.1536 28.8648 30.1959 28.9741 30.1959C29.0834 30.1959 29.1987 30.1536 29.2837 30.0691C29.4537 29.8999 29.4537 29.622 29.2837 29.4468L26.412 26.5891C25.3677 25.5499 24.797 24.1724 24.797 22.7043V19.5082H25.5498C25.7927 19.5082 25.993 19.3088 25.993 19.0672C25.993 18.8255 25.7927 18.6261 25.5498 18.6261H22.9938C23.2184 17.8407 23.4674 17.0916 23.7406 16.4028C24.0441 16.4451 24.3416 16.4693 24.627 16.4693C31.0808 16.4693 32.969 6.68177 32.9872 6.57302C33.0115 6.45822 32.9872 6.33739 32.9144 6.24072C32.8476 6.14406 32.7383 6.0776 32.6229 6.05947C30.4494 5.70906 24.3963 6.76635 22.5324 10.3672C22.4231 10.5847 22.5081 10.8505 22.7206 10.9593C22.9392 11.0741 23.2063 10.9834 23.3156 10.772C24.8395 7.82364 29.7633 6.77843 32.0097 6.88114C31.5483 8.81447 29.4416 16.0343 24.0927 15.557C25.653 12.1072 27.7598 9.96239 29.4476 8.69968C29.6419 8.55468 29.6844 8.27677 29.5326 8.08343C29.3869 7.8901 29.1076 7.84781 28.9134 7.99885C27.1891 9.29177 25.0459 11.4486 23.4249 14.8863C23.0909 14.1372 22.9027 13.4243 22.8784 12.7536C22.8663 12.512 22.6538 12.3066 22.417 12.3307C22.1742 12.3428 21.986 12.5422 21.992 12.7899C22.0345 13.7747 22.3624 14.832 22.9574 15.9316C22.6234 16.7593 22.3138 17.6534 22.0527 18.6141H19.096C18.9199 17.9555 18.7256 17.3211 18.5192 16.7049C20.7353 14.7776 20.6199 12.8684 20.1099 11.5876C18.9564 8.62718 14.6882 6.4401 12.5268 6.5851C12.3143 6.59718 12.1443 6.76031 12.12 6.97177C12.1079 7.06843 11.8347 9.35822 12.1261 11.7568C12.6422 15.9618 14.5 17.0613 15.9693 17.2426C15.9875 17.2426 16.0057 17.2426 16.0239 17.2426C16.2425 17.2426 16.4368 17.0795 16.461 16.8559C16.4914 16.6143 16.3153 16.3968 16.0785 16.3666C12.8304 15.9678 12.7879 10.4518 12.9154 8.11364C14.1357 9.62406 16.7282 13.2853 18.2035 18.6261H16.0239C15.781 18.6261 15.5807 18.8255 15.5807 19.0672C15.5807 19.3088 15.781 19.5082 16.0239 19.5082H16.7767V22.7043C16.7767 24.1724 16.0785 25.6828 15.0343 26.722C15.0282 26.728 15.0161 26.7401 15.01 26.7461C14.9918 26.7703 14.9796 26.7945 14.9675 26.8186C14.9675 26.8307 14.9553 26.8428 14.9493 26.8549C14.9371 26.8791 14.925 26.8972 14.9189 26.9274C14.8643 27.163 15.0161 27.3986 15.2528 27.453C16.0118 27.6222 16.8617 27.7007 17.7057 27.7007C18.2399 27.7007 18.7742 27.6645 19.2842 27.598C19.2599 28.5043 19.1992 29.4286 19.096 30.3409C19.0656 30.5826 19.2417 30.8001 19.4846 30.8303C19.5028 30.8303 19.521 30.8303 19.5331 30.8303C19.7578 30.8303 19.946 30.6672 19.9703 30.4436C20.0856 29.4468 20.1463 28.4438 20.1706 27.447C20.4438 27.3866 20.6988 27.3201 20.9356 27.2355C20.966 27.2234 21.0024 27.2174 21.0328 27.2113C21.0328 28.8245 21.1299 30.5041 21.3242 32.2501C21.3485 32.4736 21.5427 32.6428 21.7613 32.6428C21.7795 32.6428 21.7917 32.6428 21.8099 32.6428C22.0527 32.6186 22.2288 32.4011 22.1985 32.1595L22.1924 32.1353ZM13.6014 7.56989C15.5807 8.01093 18.4646 9.78114 19.3146 11.9199C19.861 13.2913 19.4846 14.6024 18.2157 15.8168C16.6857 11.7266 14.6639 8.88093 13.6014 7.56385V7.56989Z" fill="#474747"/>
</svg>
