<svg width="100" height="100" viewBox="0 0 100 100" fill="none" xmlns="http://www.w3.org/2000/svg">
<path d="M81.81 72.03C81.81 70.45 82.7 69.09 84 68.39V63.75C84 63.2 83.55 62.75 83 62.75H76V81.25H83C83.55 81.25 84 80.8 84 80.25V75.67C82.7 74.97 81.81 73.61 81.81 72.03Z" fill="#E5E9EE"/>
<path d="M34.3028 35.77L59.9528 24.5L88.0028 37L52.0028 53L23.3828 40.25" fill="#E5E9EE"/>
<path d="M73 39H55V64H73V39Z" fill="#E5E9EE"/>
<path d="M27.1005 67.8008C27.0105 67.8008 26.9205 67.8208 26.8305 67.8308C25.9205 67.7808 24.9905 68.0108 24.2005 68.6008C22.4305 69.9208 22.6805 72.1008 23.3805 74.2008C24.0005 76.0008 26.0005 76.0008 26.0005 76.0008C23.9705 75.0608 24.4505 71.8208 26.6005 71.8008C28.0005 71.8008 71.3005 71.5808 80.1005 71.8008C80.6505 71.8008 81.1005 71.3508 81.1005 70.8008V67.8008H27.1005Z" fill="#E5E9EE"/>
<path d="M69.0516 32.8496H34.8516V63.2496H69.0516V32.8496Z" stroke="#333333" stroke-width="2" stroke-miterlimit="10" stroke-linejoin="bevel"/>
<path d="M28.0016 31.02L51.9516 20.5L83.3016 34.27L51.9516 48.05L20.6016 34.27" fill="white"/>
<path d="M28.0016 31.02L51.9516 20.5L83.3016 34.27L51.9516 48.05L20.6016 34.27" stroke="#333333" stroke-width="2" stroke-miterlimit="10" stroke-linejoin="bevel"/>
<path d="M28.1719 67.8807V63.7207" stroke="#333333" stroke-width="2" stroke-miterlimit="10" stroke-linejoin="bevel"/>
<path d="M28.1719 80.3414V76.1914" stroke="#333333" stroke-width="2" stroke-miterlimit="10" stroke-linejoin="bevel"/>
<path d="M27.0912 76.1909C24.7912 76.1909 22.9312 74.3309 22.9312 72.0309C22.9312 69.7309 24.7912 67.8709 27.0912 67.8709H80.1113V63.7109H27.0912C22.5012 63.7109 18.7812 67.4309 18.7812 72.0209C18.7812 76.6109 22.5012 80.3309 27.0912 80.3309H80.1113V76.1709H27.0912V76.1909Z" stroke="#333333" stroke-width="2" stroke-miterlimit="10" stroke-linejoin="bevel"/>
<path d="M79.9647 67.8809C77.6647 67.8809 75.8047 69.7409 75.8047 72.0409C75.8047 74.3409 77.6647 76.2009 79.9647 76.2009" stroke="#333333" stroke-width="2" stroke-miterlimit="10" stroke-linejoin="bevel"/>
<path d="M51.9516 35.5098C53.5256 35.5098 54.8016 34.7442 54.8016 33.7998C54.8016 32.8554 53.5256 32.0898 51.9516 32.0898C50.3776 32.0898 49.1016 32.8554 49.1016 33.7998C49.1016 34.7442 50.3776 35.5098 51.9516 35.5098Z" fill="#E5E9EE" stroke="#333333" stroke-width="2" stroke-miterlimit="10" stroke-linejoin="bevel"/>
<path d="M49.1 33.8008H21V53.0008" stroke="#333333" stroke-width="2" stroke-miterlimit="10" stroke-linejoin="bevel"/>
<path d="M23 61.0004H19V55.3004L21 53.4004L23 55.3004V61.0004Z" fill="#E5E9EE" stroke="#333333" stroke-width="2" stroke-miterlimit="10" stroke-linejoin="bevel"/>
<path d="M71.56 85.5005L67.91 82.9505L64.25 85.5005V73.4805H71.56V85.5005Z" fill="#E5E9EE" stroke="#333333" stroke-width="2" stroke-miterlimit="10" stroke-linejoin="bevel"/>
<path d="M52 48V60" stroke="#333333" stroke-width="2" stroke-miterlimit="10" stroke-linejoin="bevel"/>
</svg>
