<svg width="48" height="48" viewBox="0 0 48 48" fill="none" xmlns="http://www.w3.org/2000/svg">
<g clip-path="url(#clip0_1374_3936)">
<path d="M9.04063 12.1691C10.7803 12.1691 12.1906 10.7588 12.1906 9.01914C12.1906 7.27944 10.7803 5.86914 9.04063 5.86914C7.30093 5.86914 5.89062 7.27944 5.89062 9.01914C5.89062 10.7588 7.30093 12.1691 9.04063 12.1691Z" fill="#68A7DB"/>
<path d="M20.8922 15.2297C22.6319 15.2297 24.0422 13.8194 24.0422 12.0797C24.0422 10.34 22.6319 8.92969 20.8922 8.92969C19.1525 8.92969 17.7422 10.34 17.7422 12.0797C17.7422 13.8194 19.1525 15.2297 20.8922 15.2297Z" fill="#5AB977"/>
<path d="M23.9625 27.1398C25.7022 27.1398 27.1125 25.7295 27.1125 23.9898C27.1125 22.2501 25.7022 20.8398 23.9625 20.8398C22.2228 20.8398 20.8125 22.2501 20.8125 23.9898C20.8125 25.7295 22.2228 27.1398 23.9625 27.1398Z" fill="#E95046"/>
<path d="M15.3609 35.7395C17.1006 35.7395 18.5109 34.3291 18.5109 32.5895C18.5109 30.8498 17.1006 29.4395 15.3609 29.4395C13.6212 29.4395 12.2109 30.8498 12.2109 32.5895C12.2109 34.3291 13.6212 35.7395 15.3609 35.7395Z" fill="#F5C935"/>
<path d="M3.53281 32.4191C5.27251 32.4191 6.68281 31.0088 6.68281 29.2691C6.68281 27.5294 5.27251 26.1191 3.53281 26.1191C1.79312 26.1191 0.382812 27.5294 0.382812 29.2691C0.382812 31.0088 1.79312 32.4191 3.53281 32.4191Z" fill="#5AB977"/>
<path d="M18.3375 47.4797C20.0772 47.4797 21.4875 46.0694 21.4875 44.3297C21.4875 42.59 20.0772 41.1797 18.3375 41.1797C16.5978 41.1797 15.1875 42.59 15.1875 44.3297C15.1875 46.0694 16.5978 47.4797 18.3375 47.4797Z" fill="#5AB977"/>
<path d="M35.7906 30.55C37.5303 30.55 38.9406 29.1397 38.9406 27.4C38.9406 25.6603 37.5303 24.25 35.7906 24.25C34.0509 24.25 32.6406 25.6603 32.6406 27.4C32.6406 29.1397 34.0509 30.55 35.7906 30.55Z" fill="#68A7DB"/>
<path d="M44.4703 21.7805C46.21 21.7805 47.6203 20.3702 47.6203 18.6305C47.6203 16.8908 46.21 15.4805 44.4703 15.4805C42.7306 15.4805 41.3203 16.8908 41.3203 18.6305C41.3203 20.3702 42.7306 21.7805 44.4703 21.7805Z" fill="#F5C935"/>
<path d="M41.3219 9.87031C43.0616 9.87031 44.4719 8.46001 44.4719 6.72031C44.4719 4.98062 43.0616 3.57031 41.3219 3.57031C39.5822 3.57031 38.1719 4.98062 38.1719 6.72031C38.1719 8.46001 39.5822 9.87031 41.3219 9.87031Z" fill="#5AB977"/>
<path d="M29.5719 6.63008C31.3116 6.63008 32.7219 5.21978 32.7219 3.48008C32.7219 1.74038 31.3116 0.330078 29.5719 0.330078C27.8322 0.330078 26.4219 1.74038 26.4219 3.48008C26.4219 5.21978 27.8322 6.63008 29.5719 6.63008Z" fill="#F5C935"/>
<path d="M6.17594 8.92021C6.56594 9.03021 6.96594 8.80021 7.06594 8.41021C7.36594 7.30021 8.51594 6.63021 9.63594 6.94021C10.7459 7.24021 11.4059 8.39021 11.1059 9.51021C10.9559 10.0502 10.6059 10.5002 10.1259 10.7802C9.64594 11.0602 9.07594 11.1302 8.53594 10.9902C8.14594 10.8902 7.74594 11.1102 7.64594 11.5002C7.53594 11.8902 7.76594 12.2902 8.15594 12.3902C8.46594 12.4702 8.77594 12.5102 9.08594 12.5102C10.4059 12.5102 11.6359 11.7602 12.2359 10.5702L17.3159 11.9502C17.2759 12.6302 17.4259 13.3102 17.7759 13.9202C18.2459 14.7402 19.0159 15.3302 19.9259 15.5802C20.2359 15.6602 20.5459 15.7102 20.8659 15.7102C21.4759 15.7102 22.0759 15.5502 22.6259 15.2402C23.4459 14.7702 24.0359 14.0102 24.2859 13.0902C24.5359 12.1802 24.4159 11.2202 23.9359 10.4002C23.9059 10.3402 23.8559 10.3002 23.8259 10.2402L27.5959 6.49021C27.9159 6.70021 28.2559 6.87021 28.6359 6.98021C28.9459 7.06021 29.2559 7.10021 29.5659 7.10021C30.8859 7.10021 32.1259 6.35021 32.7259 5.16021L37.7959 6.54021C37.7559 7.22021 37.9059 7.90021 38.2559 8.51021C38.7259 9.33021 39.4859 9.92021 40.4059 10.1702C40.7159 10.2502 41.0259 10.3002 41.3459 10.3002C41.4059 10.3002 41.4559 10.3002 41.5159 10.2902L41.7759 11.2702C41.8659 11.6002 42.1559 11.8102 42.4759 11.8102C42.5359 11.8102 42.5959 11.8102 42.6659 11.7902C43.0559 11.6902 43.2859 11.2902 43.1859 10.9002L42.9259 9.92021C42.9859 9.89021 43.0459 9.86021 43.1159 9.83021C43.9359 9.36021 44.5259 8.60021 44.7759 7.68021C45.0259 6.77021 44.9059 5.81021 44.4259 4.99021C43.9559 4.17021 43.1959 3.58021 42.2759 3.33021C41.3659 3.08021 40.4059 3.21021 39.5859 3.68021C38.9759 4.03021 38.4959 4.54021 38.1959 5.15021L32.4859 3.60021C32.1059 3.50021 31.7059 3.72021 31.5959 4.11021V4.16021C31.2659 5.25021 30.1259 5.89021 29.0259 5.59021C27.9159 5.29021 27.2559 4.14021 27.5559 3.02021C27.7059 2.48021 28.0459 2.03021 28.5359 1.75021C29.0159 1.47021 29.5859 1.40021 30.1259 1.55021C30.5159 1.65021 30.9159 1.43021 31.0159 1.04021C31.1259 0.650208 30.8959 0.250208 30.5059 0.150208C29.5959 -0.099792 28.6359 0.030208 27.8159 0.500208C26.9959 0.970208 26.4059 1.73021 26.1559 2.65021C25.9059 3.56021 26.0259 4.52021 26.5059 5.34021C26.5359 5.39021 26.5759 5.43021 26.5959 5.47021L22.8159 9.22021C22.5059 9.02021 22.1759 8.85021 21.8059 8.75021C20.1559 8.30021 18.4659 9.10021 17.7159 10.5602L12.6359 9.18021C12.7359 7.54021 11.6759 6.00021 10.0259 5.55021C8.13594 5.04021 6.18594 6.16021 5.67594 8.04021C5.56594 8.43021 5.79594 8.83021 6.18594 8.93021L6.17594 8.92021ZM39.3159 6.19021C39.4659 5.65021 39.8059 5.20021 40.2959 4.92021C40.6159 4.74021 40.9759 4.64021 41.3359 4.64021C41.5159 4.64021 41.7059 4.66021 41.8859 4.71021C42.4259 4.86021 42.8759 5.20021 43.1559 5.69021C43.4359 6.18021 43.5059 6.74021 43.3559 7.28021C43.2059 7.82021 42.8659 8.27021 42.3759 8.55021C41.8959 8.83021 41.3259 8.90021 40.7859 8.75021C40.2459 8.60021 39.7959 8.26021 39.5159 7.77021C39.2359 7.28021 39.1659 6.72021 39.3159 6.18021V6.19021ZM18.8459 11.6002C19.0959 10.6702 19.9459 10.0602 20.8659 10.0602C21.0459 10.0602 21.2259 10.0802 21.4159 10.1302C21.9559 10.2802 22.4059 10.6202 22.6859 11.1102C22.9659 11.6002 23.0359 12.1602 22.8859 12.7002C22.7359 13.2402 22.3959 13.6902 21.9059 13.9702C21.4259 14.2502 20.8559 14.3202 20.3159 14.1702C19.7759 14.0202 19.3259 13.6802 19.0459 13.1902C18.7659 12.7102 18.6959 12.1402 18.8459 11.6002V11.6002Z" fill="#474747"/>
<path d="M39.5492 22.3902L37.7192 24.2102C37.4092 24.0102 37.0792 23.8402 36.7192 23.7502C35.7992 23.5002 34.8492 23.6202 34.0292 24.1002C33.4192 24.4502 32.9392 24.9602 32.6292 25.5702L27.5492 24.1902C27.6492 22.5502 26.5892 21.0102 24.9392 20.5602C24.5592 20.4602 24.1792 20.4402 23.7992 20.4602L23.1092 17.8402C23.0092 17.4502 22.6092 17.2202 22.2192 17.3202C21.8292 17.4202 21.5992 17.8202 21.6992 18.2102L22.3892 20.8302C21.5292 21.2702 20.8492 22.0402 20.5792 23.0402C20.3292 23.9602 20.4592 24.9102 20.9292 25.7302C20.9592 25.7802 20.9992 25.8202 21.0192 25.8602L17.2392 29.6202C16.9292 29.4202 16.5992 29.2502 16.2292 29.1502C15.3192 28.9002 14.3592 29.0302 13.5392 29.5002C12.9292 29.8502 12.4492 30.3602 12.1492 30.9702L7.06919 29.5902C7.10919 28.9102 6.95919 28.2302 6.60919 27.6202C6.13919 26.8002 5.37919 26.2102 4.45919 25.9602C3.54919 25.7102 2.58919 25.8402 1.76919 26.3102C0.949192 26.7802 0.359192 27.5402 0.109192 28.4602C-0.140808 29.3702 -0.0108077 30.3302 0.459192 31.1502C0.929192 31.9702 1.68919 32.5602 2.60919 32.8102C2.66919 32.8302 2.73919 32.8402 2.79919 32.8402C3.11919 32.8402 3.40919 32.6302 3.49919 32.3002C3.59919 31.9102 3.37919 31.5102 2.98919 31.4102C2.44919 31.2602 1.99919 30.9202 1.71919 30.4302C1.43919 29.9502 1.36919 29.3802 1.51919 28.8402C1.66919 28.3002 2.00919 27.8502 2.49919 27.5702C2.98919 27.2902 3.54919 27.2202 4.08919 27.3702C4.62919 27.5202 5.07919 27.8602 5.35919 28.3502C5.63919 28.8302 5.70919 29.4002 5.55919 29.9402C5.44919 30.3302 5.67919 30.7302 6.06919 30.8302L11.7692 32.3802C11.7292 33.0602 11.8792 33.7402 12.2292 34.3502C12.6992 35.1702 13.4592 35.7602 14.3792 36.0102C14.6892 36.1002 14.9992 36.1302 15.3092 36.1302C15.3692 36.1302 15.4292 36.1202 15.4892 36.1102L16.8392 41.2102C16.8392 41.2102 16.7592 41.2402 16.7192 41.2702C15.8992 41.7402 15.3092 42.5002 15.0592 43.4202C14.5492 45.3102 15.6692 47.2602 17.5492 47.7702C17.8592 47.8502 18.1692 47.8902 18.4792 47.8902C20.0392 47.8902 21.4792 46.8502 21.8992 45.2702C22.1492 44.3502 22.0192 43.4002 21.5492 42.5802C21.0792 41.7602 20.3192 41.1702 19.3992 40.9202C19.0092 40.8102 18.6192 40.7902 18.2292 40.8202L16.8892 35.7402C17.7592 35.3002 18.4492 34.5202 18.7192 33.5102C18.9892 32.5002 18.7892 31.4802 18.2592 30.6602L22.0292 26.9102C22.3492 27.1202 22.6892 27.2902 23.0692 27.4002C23.3792 27.4902 23.6892 27.5302 24.0092 27.5302C24.6192 27.5302 25.2192 27.3702 25.7692 27.0602C26.3792 26.7102 26.8592 26.2002 27.1692 25.5902L32.2492 26.9702C32.2092 27.6502 32.3592 28.3302 32.7092 28.9402C33.1792 29.7602 33.9492 30.3502 34.8592 30.6002C34.9192 30.6202 34.9892 30.6302 35.0492 30.6302C35.3692 30.6302 35.6592 30.4202 35.7492 30.0902C35.8492 29.7002 35.6292 29.3002 35.2392 29.2002C34.6992 29.0502 34.2492 28.7102 33.9692 28.2202C33.6892 27.7402 33.6192 27.1702 33.7692 26.6302C33.9192 26.0902 34.2692 25.6402 34.7492 25.3602C35.2292 25.0802 35.7992 25.0102 36.3392 25.1602C36.8792 25.3102 37.3292 25.6502 37.6092 26.1402C37.8892 26.6302 37.9592 27.1902 37.8092 27.7302C37.6992 28.1202 37.9292 28.5202 38.3192 28.6202C38.7092 28.7202 39.1092 28.5002 39.2092 28.1102C39.4592 27.2002 39.3392 26.2402 38.8592 25.4202C38.8292 25.3602 38.7792 25.3102 38.7392 25.2502L40.5592 23.4402C40.8392 23.1602 40.8492 22.7002 40.5592 22.4102C40.2792 22.1302 39.8192 22.1202 39.5292 22.4102L39.5492 22.3902ZM17.4492 42.5302C17.7692 42.3502 18.1292 42.2502 18.4892 42.2502C18.6692 42.2502 18.8592 42.2802 19.0392 42.3202C19.5792 42.4702 20.0292 42.8102 20.3092 43.3002C20.5892 43.7902 20.6592 44.3502 20.5092 44.8902C20.2092 46.0002 19.0492 46.6602 17.9392 46.3602C16.8292 46.0602 16.1692 44.9102 16.4692 43.7902C16.6192 43.2502 16.9592 42.8002 17.4492 42.5202V42.5302ZM17.3392 33.1202C17.0392 34.2302 15.8892 34.8902 14.7692 34.5902C14.2292 34.4402 13.7792 34.1002 13.4992 33.6102C13.2192 33.1202 13.1492 32.5602 13.2992 32.0202C13.4492 31.4802 13.7892 31.0302 14.2792 30.7502C14.5992 30.5702 14.9592 30.4702 15.3192 30.4702C15.4992 30.4702 15.6892 30.4902 15.8692 30.5402C16.9792 30.8402 17.6392 31.9902 17.3392 33.1102V33.1202ZM26.0392 24.5202C25.8892 25.0602 25.5492 25.5102 25.0592 25.7902C24.5792 26.0702 24.0092 26.1402 23.4692 25.9902C22.9292 25.8402 22.4792 25.5002 22.1992 25.0102C21.9192 24.5202 21.8492 23.9602 21.9992 23.4202C22.2492 22.4902 23.0992 21.8802 24.0192 21.8802C24.1992 21.8802 24.3892 21.9002 24.5692 21.9502C25.6792 22.2502 26.3392 23.4002 26.0392 24.5202Z" fill="#474747"/>
<path d="M47.5254 16.7909C47.0554 15.9709 46.2954 15.3809 45.3754 15.1309C45.0054 15.0309 44.6354 15.0109 44.2654 15.0309L43.9854 13.9809C43.8854 13.5909 43.4854 13.3609 43.0954 13.4609C42.7054 13.5609 42.4754 13.9609 42.5754 14.3509L42.8554 15.3909C41.9854 15.8309 41.2954 16.6109 41.0154 17.6209C40.7654 18.5309 40.8954 19.4909 41.3654 20.3109C41.8354 21.1309 42.5954 21.7209 43.5154 21.9709C43.8254 22.0509 44.1354 22.1009 44.4454 22.1009C45.0554 22.1009 45.6554 21.9409 46.2054 21.6309C47.0254 21.1609 47.6154 20.4009 47.8654 19.4809C48.1154 18.5709 47.9954 17.6109 47.5154 16.7909H47.5254ZM46.4654 19.1009C46.3154 19.6409 45.9654 20.0909 45.4854 20.3709C45.0054 20.6509 44.4354 20.7209 43.8954 20.5709C43.3554 20.4209 42.9054 20.0809 42.6254 19.5909C42.3454 19.1109 42.2754 18.5409 42.4154 18.0009C42.6654 17.0709 43.5154 16.4609 44.4354 16.4609C44.6154 16.4609 44.7954 16.4809 44.9854 16.5309C45.5254 16.6809 45.9754 17.0209 46.2554 17.5109C46.5354 18.0009 46.6054 18.5609 46.4554 19.1009H46.4654Z" fill="#474747"/>
</g>
<defs>
<clipPath id="clip0_1374_3936">
<rect width="48" height="48" fill="white"/>
</clipPath>
</defs>
</svg>
