<svg width="48" height="48" viewBox="0 0 48 48" fill="none" xmlns="http://www.w3.org/2000/svg">
<g clip-path="url(#clip0_1374_3927)">
<path d="M18.9528 17.1908C18.9528 17.1908 20.7428 15.3408 21.3128 14.6408C21.8828 13.9408 21.9528 14.1908 22.0128 13.6808C22.0728 13.1708 22.0728 11.7008 21.9528 10.7408C21.8328 9.78078 19.9128 6.72078 19.9128 6.72078L13.9028 2.57078L10.3328 1.80078L9.63281 6.91078L10.9128 14.4408L13.4628 17.1808L15.4428 18.2008C15.4428 18.2008 16.8428 18.3308 17.4228 18.1408C18.0028 17.9508 18.9528 17.1808 18.9528 17.1808V17.1908Z" fill="#5AB977"/>
<path d="M27.8224 15.8507L26.1624 12.5307C26.1624 12.5307 25.2724 8.8307 26.8624 7.4207C28.4524 6.0107 33.1224 2.1907 33.1224 2.1907L37.1424 1.1707L42.7624 0.720703L41.1624 6.7807L37.3324 13.1607L33.5624 16.0307L29.0924 16.5407L27.8124 15.8407L27.8224 15.8507Z" fill="#5AB977"/>
<path d="M15.048 34.4795L6.62797 42.6495C6.62797 42.6495 4.96797 43.2895 4.71797 44.4395C4.46797 45.5895 4.58797 46.8695 5.73797 47.1195C6.88797 47.3695 38.288 47.4995 38.288 47.4995C38.288 47.4995 41.348 47.8795 41.608 46.9895C41.868 46.0995 42.248 45.3295 41.988 44.5595C41.728 43.7895 30.368 32.6895 30.368 32.6895C30.368 32.6895 29.988 33.5695 25.258 34.7295C20.528 35.8895 16.958 35.4995 16.448 35.4995C15.938 35.4995 15.048 34.4795 15.048 34.4795V34.4795Z" fill="#68A7DB"/>
<path d="M13.9088 46.5341H6.70106C6.18122 46.5341 5.76135 46.2442 5.56141 45.7744C5.36147 45.2945 5.46144 44.7947 5.83133 44.4248L12.5692 37.6869C12.8491 37.407 12.8491 36.9471 12.5692 36.6572C12.2893 36.3773 11.8195 36.3773 11.5396 36.6572L4.80165 43.3951C4.02189 44.1749 3.79196 45.3045 4.22183 46.3242C4.6417 47.3539 5.6014 47.9837 6.71105 47.9837H13.9188C14.3187 47.9837 14.6486 47.6538 14.6486 47.2539C14.6486 46.854 14.3187 46.5241 13.9188 46.5241L13.9088 46.5341Z" fill="#474747"/>
<path d="M21.4866 46.5352H18.2376C17.8377 46.5352 17.5078 46.8651 17.5078 47.2649C17.5078 47.6648 17.8377 47.9947 18.2376 47.9947H21.4866C21.8865 47.9947 22.2163 47.6648 22.2163 47.2649C22.2163 46.8651 21.8865 46.5352 21.4866 46.5352Z" fill="#474747"/>
<path d="M39.8792 41.2451C39.5892 40.9652 39.1294 40.9652 38.8495 41.2451C38.5696 41.525 38.5696 41.9849 38.8495 42.2748L40.9988 44.4241C41.3687 44.794 41.4687 45.2938 41.2687 45.7737C41.0688 46.2535 40.6489 46.5334 40.1291 46.5334H25.8235C25.4236 46.5334 25.0938 46.8633 25.0938 47.2632C25.0938 47.6631 25.4236 47.993 25.8235 47.993H40.1291C41.2387 47.993 42.1884 47.3532 42.6183 46.3335C43.0382 45.3138 42.8182 44.1842 42.0385 43.4044L39.8892 41.2551L39.8792 41.2451Z" fill="#474747"/>
<path d="M25.725 43.2456C25.3951 40.2865 25.2452 37.4474 25.2552 34.7183C26.0249 34.5783 26.8547 34.4783 27.7344 34.4483C28.1343 34.4284 28.4442 34.0985 28.4342 33.6986C28.4242 33.2987 28.0943 32.9688 27.6844 32.9988C26.8347 33.0288 26.0349 33.1088 25.2752 33.2387C25.3552 30.3196 25.6251 27.5405 26.0949 24.9313C26.1649 24.5314 25.905 24.1615 25.5151 24.0816C25.1252 24.0016 24.7453 24.2715 24.6654 24.6714C24.1555 27.4605 23.8656 30.4296 23.8056 33.5686C23.5957 33.6286 23.3658 33.6886 23.1758 33.7586C21.2564 34.4184 18.3673 34.6083 15.8881 34.2884C17.4176 32.409 18.2474 30.0897 18.2474 27.6405V22.3521H19.527C20.2267 25.2512 20.7366 28.4102 20.8965 31.8392C20.9165 32.229 21.2364 32.5289 21.6263 32.5289C21.6363 32.5289 21.6463 32.5289 21.6563 32.5289C22.0562 32.5089 22.3661 32.1691 22.3461 31.7692C22.1861 28.3802 21.7063 25.2412 21.0165 22.3521H28.5642V27.6405C28.5642 30.4596 29.6638 33.0988 31.6532 35.0981L36.3817 39.8267C36.5217 39.9666 36.7116 40.0366 36.8916 40.0366C37.0715 40.0366 37.2615 39.9666 37.4014 39.8267C37.6813 39.5468 37.6813 39.0869 37.4014 38.797L32.6729 34.0685C30.9534 32.349 30.0137 30.0697 30.0137 27.6405V22.3521H31.2533C31.6532 22.3521 31.9831 22.0222 31.9831 21.6223C31.9831 21.2225 31.6532 20.8926 31.2533 20.8926H27.0446C27.4145 19.593 27.8244 18.3533 28.2742 17.2137C28.7741 17.2837 29.2639 17.3237 29.7338 17.3237C40.3605 17.3237 43.4695 1.1287 43.4995 0.948751C43.5395 0.75881 43.4995 0.558872 43.3796 0.398922C43.2696 0.238971 43.0896 0.129006 42.8997 0.099015C39.3208 -0.480805 29.3539 1.26865 26.2849 7.2268C26.1049 7.58669 26.2449 8.02655 26.5948 8.2065C26.9547 8.39644 27.3945 8.24648 27.5745 7.89659C30.0837 3.01811 38.1912 1.28865 41.89 1.45859C41.1303 4.6576 37.6613 16.6039 28.8541 15.8141C31.4233 10.1059 34.8922 6.55701 37.6713 4.46766C37.9912 4.22773 38.0612 3.76788 37.8113 3.44797C37.5714 3.12807 37.1115 3.0581 36.7916 3.30802C33.9525 5.44735 30.4236 9.01625 27.7544 14.7045C27.2046 13.4649 26.8947 12.2852 26.8547 11.1756C26.8347 10.7757 26.4848 10.4358 26.0949 10.4758C25.695 10.4958 25.3851 10.8257 25.3951 11.2356C25.4651 12.865 26.005 14.6145 26.9846 16.4339C26.4348 17.8035 25.925 19.2831 25.4951 20.8726H20.6266C20.3367 19.7829 20.0168 18.7332 19.6769 17.7135C23.3258 14.5245 23.1358 11.3655 22.2961 9.24617C20.3967 4.3477 13.3689 0.728819 9.80998 0.968745C9.46009 0.988739 9.18018 1.25865 9.14019 1.60855C9.12019 1.7685 8.67033 5.55732 9.15019 9.52609C9.99992 16.4839 13.059 18.3034 15.4782 18.6033C15.5082 18.6033 15.5382 18.6033 15.5682 18.6033C15.9281 18.6033 16.248 18.3334 16.288 17.9635C16.338 17.5636 16.048 17.2037 15.6582 17.1537C10.3098 16.4939 10.2398 7.36676 10.4498 3.49796C12.4592 5.99718 16.7278 12.0553 19.1571 20.8926H15.5682C15.1683 20.8926 14.8384 21.2225 14.8384 21.6223C14.8384 22.0222 15.1683 22.3521 15.5682 22.3521H16.8078V27.6405C16.8078 30.0697 15.6582 32.5689 13.9387 34.2884C13.9287 34.2984 13.9087 34.3184 13.8987 34.3284C13.8687 34.3684 13.8487 34.4084 13.8287 34.4483C13.8287 34.4683 13.8087 34.4883 13.7987 34.5083C13.7787 34.5483 13.7588 34.5783 13.7488 34.6283C13.6588 35.0182 13.9087 35.408 14.2986 35.498C15.5482 35.7779 16.9478 35.9079 18.3373 35.9079C19.2171 35.9079 20.0968 35.8479 20.9365 35.7379C20.8965 37.2375 20.7966 38.767 20.6266 40.2765C20.5766 40.6764 20.8665 41.0363 21.2664 41.0863C21.2964 41.0863 21.3264 41.0863 21.3464 41.0863C21.7163 41.0863 22.0262 40.8164 22.0662 40.4465C22.2561 38.797 22.3561 37.1375 22.3961 35.488C22.8459 35.3881 23.2658 35.2781 23.6557 35.1381C23.7057 35.1181 23.7656 35.1081 23.8156 35.0981C23.8156 37.7673 23.9756 40.5465 24.2955 43.4356C24.3355 43.8054 24.6554 44.0854 25.0153 44.0854C25.0452 44.0854 25.0652 44.0854 25.0952 44.0854C25.4951 44.0454 25.785 43.6855 25.735 43.2856L25.725 43.2456ZM11.5794 2.59824C14.8384 3.32801 19.5869 6.2571 20.9865 9.796C21.8862 12.0653 21.2664 14.2346 19.1771 16.244C16.6579 9.4761 13.3289 4.76756 11.5794 2.58824V2.59824Z" fill="#474747"/>
</g>
<defs>
<clipPath id="clip0_1374_3927">
<rect width="48" height="48" fill="white"/>
</clipPath>
</defs>
</svg>
