<svg width="40" height="40" viewBox="0 0 40 40" fill="none" xmlns="http://www.w3.org/2000/svg">
<path d="M33.0573 11.9329C34.9097 11.9329 36.4115 10.4312 36.4115 8.57878C36.4115 6.72632 34.9097 5.22461 33.0573 5.22461C31.2048 5.22461 29.7031 6.72632 29.7031 8.57878C29.7031 10.4312 31.2048 11.9329 33.0573 11.9329Z" fill="#F5C935"/>
<path d="M20.4562 31.6859C26.5331 31.6859 31.4594 26.7597 31.4594 20.6828C31.4594 14.606 26.5331 9.67969 20.4562 9.67969C14.3794 9.67969 9.45312 14.606 9.45312 20.6828C9.45312 26.7597 14.3794 31.6859 20.4562 31.6859Z" fill="#68A7DB"/>
<path d="M15.4855 18.9388C15.4345 19.0919 15.4637 19.2669 15.5657 19.3909L16.521 20.5721L15.5657 21.7534C15.4637 21.8773 15.4345 22.0523 15.4855 22.2055C15.5366 22.3586 15.6605 22.4826 15.821 22.519L17.2866 22.9128L17.2064 24.4294C17.1991 24.5898 17.272 24.7503 17.4032 24.8451C17.5345 24.9398 17.7095 24.9617 17.8553 24.9034L19.2772 24.3565L20.1012 25.6326C20.1887 25.7711 20.3418 25.8513 20.5022 25.8513C20.6626 25.8513 20.8157 25.7711 20.9032 25.6326L21.7272 24.3565L23.1491 24.9034C23.3022 24.9617 23.4699 24.9398 23.6012 24.8451C23.7324 24.7503 23.8053 24.5971 23.798 24.4294L23.7178 22.9128L25.1907 22.519C25.3512 22.4753 25.4751 22.3586 25.5262 22.2055C25.5772 22.0523 25.548 21.8773 25.446 21.7534L24.4907 20.5721L25.446 19.3909C25.548 19.2669 25.5772 19.0919 25.5262 18.9388C25.4751 18.7857 25.3512 18.669 25.1907 18.6253L23.7178 18.2315L23.798 16.7148C23.8053 16.5544 23.7324 16.394 23.6012 16.2992C23.4699 16.2044 23.2949 16.1826 23.1491 16.2409L21.7272 16.7878L20.9032 15.5117C20.8157 15.3732 20.6626 15.293 20.5022 15.293C20.3418 15.293 20.1887 15.3732 20.1012 15.5117L19.2772 16.7878L17.8553 16.2409C17.7022 16.1826 17.5345 16.2044 17.4032 16.2992C17.272 16.394 17.1991 16.5471 17.2064 16.7148L17.2866 18.2315L15.821 18.6253C15.6605 18.669 15.5366 18.7857 15.4855 18.9388Z" fill="#E95046"/>
<path d="M30.3175 33.6897C27.4665 35.8189 24.0686 36.9418 20.503 36.9418C18.928 36.9418 17.3748 36.7231 15.88 36.2856C15.603 36.2053 15.304 36.3658 15.2238 36.6428C15.1436 36.9272 15.304 37.2189 15.5811 37.2991C17.1707 37.7658 18.8259 37.9991 20.503 37.9991C24.3019 37.9991 27.9186 36.8033 30.9519 34.5356C31.1852 34.3606 31.2363 34.0251 31.0613 33.7918C30.8863 33.5585 30.5582 33.5074 30.3175 33.6824V33.6897Z" fill="#474747"/>
<path d="M36.2515 12.8575C36.1202 12.595 35.8067 12.4856 35.5442 12.6096C35.2817 12.7409 35.1723 13.0544 35.2963 13.3169C36.39 15.5627 36.9369 17.9763 36.9369 20.4919C36.9369 24.6846 35.3546 28.6804 32.489 31.7356C32.2848 31.9471 32.2994 32.2825 32.5108 32.4867C32.6129 32.5815 32.7442 32.6325 32.8754 32.6325C33.014 32.6325 33.1598 32.5742 33.2619 32.4648C36.3171 29.2127 38.0015 24.9544 38.0015 20.4919C38.0015 17.8158 37.4108 15.2419 36.2515 12.8502V12.8575Z" fill="#474747"/>
<path d="M6.62327 29.3238C6.46286 29.0759 6.13473 29.003 5.89411 29.1634C5.64619 29.3238 5.57327 29.6519 5.73369 29.8925C6.50661 31.103 7.42536 32.2186 8.46806 33.203C8.57015 33.2978 8.7014 33.3488 8.83265 33.3488C8.97119 33.3488 9.10973 33.2905 9.21911 33.1811C9.42327 32.9696 9.40869 32.6342 9.19723 32.43C8.22015 31.504 7.35244 30.454 6.63056 29.3165L6.62327 29.3238Z" fill="#474747"/>
<path d="M14.9492 18.6988C14.8909 18.8665 14.9274 19.0561 15.044 19.1947L16.1013 20.4999L15.044 21.8051C14.9274 21.9436 14.8982 22.1332 14.9492 22.3009C15.0076 22.4686 15.1461 22.6072 15.3138 22.6509L16.9399 23.0811L16.8524 24.7582C16.8451 24.9405 16.9253 25.1082 17.0711 25.2176C17.2169 25.3197 17.4065 25.3488 17.5742 25.2832L19.1419 24.678L20.0534 26.0853C20.1482 26.2384 20.3159 26.3259 20.4982 26.3259C20.6805 26.3259 20.8482 26.2384 20.943 26.0853L21.8544 24.678L23.4222 25.2832C23.5899 25.3488 23.7794 25.3197 23.9253 25.2176C24.0711 25.1155 24.1513 24.9405 24.144 24.7582L24.0565 23.0811L25.6826 22.6509C25.8576 22.6072 25.9961 22.4759 26.0472 22.3009C26.1055 22.1332 26.069 21.9436 25.9524 21.8051L24.8951 20.4999L25.9524 19.1947C26.069 19.0561 26.0982 18.8665 26.0472 18.6988C25.9888 18.5311 25.8503 18.3999 25.6826 18.3488L24.0565 17.9186L24.144 16.2415C24.1513 16.0592 24.0711 15.8915 23.9253 15.7822C23.7794 15.6728 23.5899 15.6509 23.4222 15.7165L21.8544 16.3217L20.943 14.9145C20.8482 14.7613 20.6805 14.6738 20.4982 14.6738C20.3159 14.6738 20.1482 14.7613 20.0534 14.9145L19.1419 16.3217L17.5742 15.7165C17.4065 15.6509 17.2169 15.6801 17.0711 15.7822C16.9253 15.8842 16.8451 16.0592 16.8524 16.2415L16.9399 17.9186L15.3138 18.3488C15.1388 18.3926 15.0003 18.5238 14.9492 18.6988ZM17.1951 20.1645L16.3784 19.1582L17.6253 18.8228C17.8659 18.7572 18.0336 18.5311 18.019 18.2832L17.9461 16.9926L19.1492 17.4592C19.3826 17.5467 19.6524 17.4592 19.7836 17.2551L20.4836 16.1686L21.1836 17.2551C21.3222 17.4665 21.5847 17.554 21.818 17.4592L23.0211 16.9926L22.9482 18.2832C22.9336 18.5311 23.1013 18.7572 23.3419 18.8228L24.5888 19.1582L23.7722 20.1645C23.6117 20.3613 23.6117 20.6384 23.7722 20.8353L24.5888 21.8415L23.3419 22.177C23.1013 22.2426 22.9336 22.4686 22.9482 22.7165L23.0211 24.0072L21.818 23.5405C21.5847 23.453 21.3149 23.5405 21.1836 23.7447L20.4836 24.8311L19.7836 23.7447C19.6815 23.5915 19.5138 23.504 19.3388 23.504C19.2732 23.504 19.2076 23.5186 19.1492 23.5405L17.9461 24.0072L18.019 22.7165C18.0336 22.4686 17.8659 22.2426 17.6253 22.177L16.3784 21.8415L17.1951 20.8353C17.3555 20.6384 17.3555 20.3613 17.1951 20.1645Z" fill="#474747"/>
<path d="M28.1934 28.3232C27.9966 28.1045 27.6611 28.0826 27.4424 28.2795C25.532 29.9857 23.0674 30.9264 20.5007 30.9264C18.5393 30.9264 16.6362 30.3795 14.9809 29.3441C14.733 29.1909 14.4049 29.2639 14.2518 29.5118C14.0987 29.7597 14.1716 30.0878 14.4195 30.2409C16.2424 31.3784 18.3424 31.9837 20.5007 31.9837C23.3299 31.9837 26.0424 30.9482 28.1497 29.067C28.3684 28.8701 28.3903 28.5347 28.1934 28.3159V28.3232Z" fill="#474747"/>
<path d="M31.4409 20.4708H31.4701C31.7618 20.4563 31.9878 20.2083 31.9732 19.9167C31.667 13.799 26.6284 9.01562 20.4961 9.01562C19.4243 9.01562 18.367 9.16146 17.3461 9.45313C17.0618 9.53333 16.9014 9.825 16.9816 10.1094C17.0618 10.3938 17.3534 10.5542 17.6378 10.474C18.5639 10.2115 19.5264 10.0729 20.5034 10.0729C26.067 10.0729 30.6389 14.4188 30.9159 19.9677C30.9305 20.2521 31.1639 20.4708 31.4482 20.4708H31.4409Z" fill="#474747"/>
<path d="M14.4204 10.7516C12.1236 12.1881 10.4027 14.3902 9.57149 16.9568C9.48399 17.2339 9.63712 17.5329 9.9142 17.6277C9.96524 17.6423 10.0236 17.6568 10.0746 17.6568C10.3007 17.6568 10.5048 17.511 10.5777 17.2923C11.3288 14.9589 12.8965 12.961 14.9819 11.6558C15.2298 11.5027 15.3027 11.1745 15.1496 10.9266C14.9965 10.6787 14.6684 10.5985 14.4204 10.7589V10.7516Z" fill="#474747"/>
<path d="M4.05729 20.5002C4.05729 17.3284 4.96146 14.2513 6.675 11.5971C6.83542 11.3492 6.7625 11.0211 6.51458 10.8606C6.26667 10.7002 5.93854 10.7731 5.78542 11.0211C3.9625 13.8429 3 17.1242 3 20.5002C3 22.8336 3.45208 25.094 4.34167 27.2304C4.42917 27.4346 4.62604 27.5586 4.83021 27.5586C4.89583 27.5586 4.96875 27.544 5.03437 27.5148C5.30417 27.4054 5.43542 27.0919 5.31875 26.8221C4.48021 24.8169 4.05729 22.695 4.05729 20.5002Z" fill="#474747"/>
<path d="M8.30469 26.2014C8.30469 27.8566 9.65365 29.2056 11.3089 29.2056C12.9641 29.2056 14.313 27.8566 14.313 26.2014C14.313 24.5462 12.9641 23.1973 11.3089 23.1973C9.65365 23.1973 8.30469 24.5462 8.30469 26.2014ZM11.3089 24.2546C12.3807 24.2546 13.2557 25.1296 13.2557 26.2014C13.2557 27.2733 12.3807 28.1483 11.3089 28.1483C10.237 28.1483 9.36198 27.2733 9.36198 26.2014C9.36198 25.1296 10.237 24.2546 11.3089 24.2546Z" fill="#474747"/>
<path d="M7.48906 22.6227C8.65573 22.6227 9.61094 21.6747 9.61094 20.5008C9.61094 19.3268 8.66302 18.3789 7.48906 18.3789C6.3151 18.3789 5.36719 19.3268 5.36719 20.5008C5.36719 21.6747 6.3151 22.6227 7.48906 22.6227ZM7.48906 19.4435C8.0724 19.4435 8.54635 19.9174 8.54635 20.5008C8.54635 21.0841 8.0724 21.5581 7.48906 21.5581C6.90573 21.5581 6.43177 21.0841 6.43177 20.5008C6.43177 19.9174 6.90573 19.4435 7.48906 19.4435Z" fill="#474747"/>
<path d="M11.5997 6.675C14.2539 4.96146 17.331 4.05729 20.5029 4.05729C23.6747 4.05729 26.781 4.98333 29.4424 6.71146C29.2602 7.14896 29.1581 7.62292 29.1581 8.11875C29.1581 8.96458 29.4497 9.79583 29.982 10.4521C30.1643 10.6781 30.4997 10.7146 30.7258 10.5323C30.9518 10.35 30.9883 10.0146 30.806 9.78854C30.4195 9.31458 30.2154 8.73854 30.2154 8.11875C30.2154 6.66042 31.4039 5.46458 32.8695 5.46458C34.3352 5.46458 35.5237 6.65312 35.5237 8.11875C35.5237 9.32187 34.7143 10.3719 33.5549 10.6854C33.2706 10.7583 33.1029 11.05 33.1758 11.3344C33.2414 11.575 33.4529 11.7281 33.6862 11.7281C33.7299 11.7281 33.7737 11.7281 33.8247 11.7135C35.4508 11.2833 36.5883 9.81042 36.5883 8.12604C36.5883 6.07708 34.9258 4.41458 32.8768 4.41458C31.7102 4.41458 30.682 4.96875 29.9966 5.81458C27.1674 3.97708 23.9008 3 20.5029 3C17.1049 3 13.8456 3.9625 11.0237 5.78542C10.7758 5.94583 10.7102 6.27396 10.8633 6.52187C11.0237 6.76979 11.3518 6.83542 11.5997 6.675Z" fill="#474747"/>
<path d="M24.9161 6.71198C24.9161 6.42031 24.6755 6.17969 24.3839 6.17969C24.0922 6.17969 23.8516 6.42031 23.8516 6.71198C23.8516 7.00365 24.0922 7.24427 24.3839 7.24427C24.6755 7.24427 24.9161 7.00365 24.9161 6.71198Z" fill="#474747"/>
<path d="M31.462 11.8379C31.1703 11.8379 30.9297 12.0785 30.9297 12.3702C30.9297 12.6618 31.1703 12.9025 31.462 12.9025C31.7536 12.9025 31.9943 12.6618 31.9943 12.3702C31.9943 12.0785 31.7536 11.8379 31.462 11.8379Z" fill="#474747"/>
<path d="M22.088 7.41901C22.088 7.12734 21.8474 6.88672 21.5557 6.88672C21.2641 6.88672 21.0234 7.12734 21.0234 7.41901C21.0234 7.71068 21.2641 7.9513 21.5557 7.9513C21.8474 7.9513 22.088 7.71068 22.088 7.41901Z" fill="#474747"/>
<path d="M27.212 15.7306C27.506 15.7306 27.7443 15.4923 27.7443 15.1983C27.7443 14.9043 27.506 14.666 27.212 14.666C26.918 14.666 26.6797 14.9043 26.6797 15.1983C26.6797 15.4923 26.918 15.7306 27.212 15.7306Z" fill="#474747"/>
<path d="M33.0469 27.9229C33.0469 28.2146 33.2875 28.4552 33.5792 28.4552C33.8708 28.4552 34.1115 28.2146 34.1115 27.9229C34.1115 27.6312 33.8708 27.3906 33.5792 27.3906C33.2875 27.3906 33.0469 27.6312 33.0469 27.9229Z" fill="#474747"/>
<path d="M6.17969 24.3936C6.17969 24.6853 6.42031 24.9259 6.71198 24.9259C7.00365 24.9259 7.24427 24.6853 7.24427 24.3936C7.24427 24.102 7.00365 23.8613 6.71198 23.8613C6.42031 23.8613 6.17969 24.102 6.17969 24.3936Z" fill="#474747"/>
<path d="M23.8516 33.5811C23.8516 33.8728 24.0922 34.1134 24.3839 34.1134C24.6755 34.1134 24.9161 33.8728 24.9161 33.5811C24.9161 33.2895 24.6755 33.0488 24.3839 33.0488C24.0922 33.0488 23.8516 33.2895 23.8516 33.5811Z" fill="#474747"/>
<path d="M17.4922 27.2159C17.4922 27.5075 17.7328 27.7482 18.0245 27.7482C18.3161 27.7482 18.5568 27.5075 18.5568 27.2159C18.5568 26.9242 18.3161 26.6836 18.0245 26.6836C17.7328 26.6836 17.4922 26.9242 17.4922 27.2159Z" fill="#474747"/>
<path d="M5.65729 9.00898C6.92604 9.00898 7.95417 10.0371 7.95417 11.3059C7.95417 11.5975 8.19479 11.8382 8.48646 11.8382C8.77813 11.8382 9.01875 11.5975 9.01875 11.3059C9.01875 10.0371 10.0469 9.00898 11.3156 9.00898C11.6073 9.00898 11.8479 8.76836 11.8479 8.47669C11.8479 8.18503 11.6073 7.9444 11.3156 7.9444C10.0469 7.9444 9.01875 6.91628 9.01875 5.64753C9.01875 5.35586 8.77813 5.11523 8.48646 5.11523C8.19479 5.11523 7.95417 5.35586 7.95417 5.64753C7.95417 6.91628 6.92604 7.9444 5.65729 7.9444C5.36563 7.9444 5.125 8.18503 5.125 8.47669C5.125 8.76836 5.36563 9.00898 5.65729 9.00898ZM8.48646 7.46315C8.74896 7.87148 9.09896 8.22148 9.50729 8.48398C9.09896 8.74648 8.74896 9.09648 8.48646 9.50482C8.22396 9.09648 7.87396 8.74648 7.46563 8.48398C7.87396 8.22148 8.22396 7.87148 8.48646 7.46315Z" fill="#474747"/>
<path d="M33.7542 25.1447C33.7542 24.853 33.5135 24.6124 33.2219 24.6124C31.9531 24.6124 30.925 23.5842 30.925 22.3155C30.925 22.0238 30.6844 21.7832 30.3927 21.7832C30.101 21.7832 29.8604 22.0238 29.8604 22.3155C29.8604 23.5842 28.8323 24.6124 27.5635 24.6124C27.2719 24.6124 27.0312 24.853 27.0312 25.1447C27.0312 25.4363 27.2719 25.677 27.5635 25.677C28.8323 25.677 29.8604 26.7051 29.8604 27.9738C29.8604 28.2655 30.101 28.5061 30.3927 28.5061C30.6844 28.5061 30.925 28.2655 30.925 27.9738C30.925 26.7051 31.9531 25.677 33.2219 25.677C33.5135 25.677 33.7542 25.4363 33.7542 25.1447ZM30.3927 26.1655C30.1302 25.7572 29.7802 25.4072 29.3719 25.1447C29.7802 24.8822 30.1302 24.5322 30.3927 24.1238C30.6552 24.5322 31.0052 24.8822 31.4135 25.1447C31.0052 25.4072 30.6552 25.7572 30.3927 26.1655Z" fill="#474747"/>
<path d="M16.2542 34.6388C16.2542 34.3471 16.0135 34.1065 15.7219 34.1065C14.4531 34.1065 13.425 33.0784 13.425 31.8096C13.425 31.518 13.1844 31.2773 12.8927 31.2773C12.601 31.2773 12.3604 31.518 12.3604 31.8096C12.3604 33.0784 11.3323 34.1065 10.0635 34.1065C9.77187 34.1065 9.53125 34.3471 9.53125 34.6388C9.53125 34.9305 9.77187 35.1711 10.0635 35.1711C11.3323 35.1711 12.3604 36.1992 12.3604 37.468C12.3604 37.7596 12.601 38.0003 12.8927 38.0003C13.1844 38.0003 13.425 37.7596 13.425 37.468C13.425 36.1992 14.4531 35.1711 15.7219 35.1711C16.0135 35.1711 16.2542 34.9305 16.2542 34.6388ZM12.8927 35.6596C12.6302 35.2513 12.2802 34.9013 11.8719 34.6388C12.2802 34.3763 12.6302 34.0263 12.8927 33.618C13.1552 34.0263 13.5052 34.3763 13.9135 34.6388C13.5052 34.9013 13.1552 35.2513 12.8927 35.6596Z" fill="#474747"/>
</svg>
