<svg width="48" height="48" viewBox="0 0 48 48" fill="none" xmlns="http://www.w3.org/2000/svg">
<path d="M41.2172 12.2508C43.7577 12.2508 45.8172 10.1913 45.8172 7.65078C45.8172 5.11027 43.7577 3.05078 41.2172 3.05078C38.6767 3.05078 36.6172 5.11027 36.6172 7.65078C36.6172 10.1913 38.6767 12.2508 41.2172 12.2508Z" fill="#F5C935"/>
<path d="M23.9416 39.3402C32.2755 39.3402 39.0316 32.5841 39.0316 24.2502C39.0316 15.9162 32.2755 9.16016 23.9416 9.16016C15.6076 9.16016 8.85156 15.9162 8.85156 24.2502C8.85156 32.5841 15.6076 39.3402 23.9416 39.3402Z" fill="#68A7DB"/>
<path d="M17.1197 21.8594C17.0497 22.0694 17.0897 22.3094 17.2297 22.4794L18.5397 24.0994L17.2297 25.7194C17.0897 25.8894 17.0497 26.1294 17.1197 26.3394C17.1897 26.5494 17.3597 26.7194 17.5797 26.7694L19.5897 27.3094L19.4797 29.3894C19.4697 29.6094 19.5697 29.8294 19.7497 29.9594C19.9297 30.0894 20.1697 30.1194 20.3697 30.0394L22.3197 29.2894L23.4497 31.0394C23.5697 31.2294 23.7797 31.3394 23.9997 31.3394C24.2197 31.3394 24.4297 31.2294 24.5497 31.0394L25.6797 29.2894L27.6297 30.0394C27.8397 30.1194 28.0697 30.0894 28.2497 29.9594C28.4297 29.8294 28.5297 29.6194 28.5197 29.3894L28.4097 27.3094L30.4297 26.7694C30.6497 26.7094 30.8197 26.5494 30.8897 26.3394C30.9597 26.1294 30.9197 25.8894 30.7797 25.7194L29.4697 24.0994L30.7797 22.4794C30.9197 22.3094 30.9597 22.0694 30.8897 21.8594C30.8197 21.6494 30.6497 21.4894 30.4297 21.4294L28.4097 20.8894L28.5197 18.8094C28.5297 18.5894 28.4297 18.3694 28.2497 18.2394C28.0697 18.1094 27.8297 18.0794 27.6297 18.1594L25.6797 18.9094L24.5497 17.1594C24.4297 16.9694 24.2197 16.8594 23.9997 16.8594C23.7797 16.8594 23.5697 16.9694 23.4497 17.1594L22.3197 18.9094L20.3697 18.1594C20.1597 18.0794 19.9297 18.1094 19.7497 18.2394C19.5697 18.3694 19.4697 18.5794 19.4797 18.8094L19.5897 20.8894L17.5797 21.4294C17.3597 21.4894 17.1897 21.6494 17.1197 21.8594V21.8594Z" fill="#E95046"/>
<path d="M37.4627 42.0905C33.5527 45.0105 28.8927 46.5505 24.0027 46.5505C21.8427 46.5505 19.7127 46.2505 17.6627 45.6505C17.2827 45.5405 16.8727 45.7605 16.7627 46.1405C16.6527 46.5305 16.8727 46.9305 17.2527 47.0405C19.4327 47.6805 21.7027 48.0005 24.0027 48.0005C29.2127 48.0005 34.1727 46.3605 38.3327 43.2505C38.6527 43.0105 38.7227 42.5505 38.4827 42.2305C38.2427 41.9105 37.7927 41.8405 37.4627 42.0805V42.0905Z" fill="#474747"/>
<path d="M45.6013 13.5193C45.4213 13.1593 44.9913 13.0093 44.6313 13.1793C44.2713 13.3593 44.1213 13.7893 44.2913 14.1493C45.7913 17.2293 46.5413 20.5393 46.5413 23.9893C46.5413 29.7393 44.3713 35.2193 40.4413 39.4093C40.1613 39.6993 40.1813 40.1593 40.4713 40.4393C40.6113 40.5693 40.7913 40.6393 40.9713 40.6393C41.1613 40.6393 41.3613 40.5593 41.5013 40.4093C45.6913 35.9493 48.0013 30.1093 48.0013 23.9893C48.0013 20.3193 47.1913 16.7893 45.6013 13.5093V13.5193Z" fill="#474747"/>
<path d="M4.96973 36.1006C4.74973 35.7606 4.29973 35.6606 3.96973 35.8806C3.62973 36.1006 3.52973 36.5506 3.74973 36.8806C4.80973 38.5406 6.06973 40.0706 7.49973 41.4206C7.63973 41.5506 7.81973 41.6206 7.99973 41.6206C8.18973 41.6206 8.37973 41.5406 8.52973 41.3906C8.80973 41.1006 8.78973 40.6406 8.49973 40.3606C7.15973 39.0906 5.96973 37.6506 4.97973 36.0906L4.96973 36.1006Z" fill="#474747"/>
<path d="M16.3891 21.5298C16.3091 21.7598 16.3591 22.0198 16.5191 22.2098L17.9691 23.9998L16.5191 25.7898C16.3591 25.9798 16.3191 26.2398 16.3891 26.4698C16.4691 26.6998 16.6591 26.8898 16.8891 26.9498L19.1191 27.5398L18.9991 29.8398C18.9891 30.0898 19.0991 30.3198 19.2991 30.4698C19.4991 30.6098 19.7591 30.6498 19.9891 30.5598L22.1391 29.7298L23.3891 31.6598C23.5191 31.8698 23.7491 31.9898 23.9991 31.9898C24.2491 31.9898 24.4791 31.8698 24.6091 31.6598L25.8591 29.7298L28.0091 30.5598C28.2391 30.6498 28.4991 30.6098 28.6991 30.4698C28.8991 30.3298 29.0091 30.0898 28.9991 29.8398L28.8791 27.5398L31.1091 26.9498C31.3491 26.8898 31.5391 26.7098 31.6091 26.4698C31.6891 26.2398 31.6391 25.9798 31.4791 25.7898L30.0291 23.9998L31.4791 22.2098C31.6391 22.0198 31.6791 21.7598 31.6091 21.5298C31.5291 21.2998 31.3391 21.1198 31.1091 21.0498L28.8791 20.4598L28.9991 18.1598C29.0091 17.9098 28.8991 17.6798 28.6991 17.5298C28.4991 17.3798 28.2391 17.3498 28.0091 17.4398L25.8591 18.2698L24.6091 16.3398C24.4791 16.1298 24.2491 16.0098 23.9991 16.0098C23.7491 16.0098 23.5191 16.1298 23.3891 16.3398L22.1391 18.2698L19.9891 17.4398C19.7591 17.3498 19.4991 17.3898 19.2991 17.5298C19.0991 17.6698 18.9891 17.9098 18.9991 18.1598L19.1191 20.4598L16.8891 21.0498C16.6491 21.1098 16.4591 21.2898 16.3891 21.5298ZM19.4691 23.5398L18.3491 22.1598L20.0591 21.6998C20.3891 21.6098 20.6191 21.2998 20.5991 20.9598L20.4991 19.1898L22.1491 19.8298C22.4691 19.9498 22.8391 19.8298 23.0191 19.5498L23.9791 18.0598L24.9391 19.5498C25.1291 19.8398 25.4891 19.9598 25.8091 19.8298L27.4591 19.1898L27.3591 20.9598C27.3391 21.2998 27.5691 21.6098 27.8991 21.6998L29.6091 22.1598L28.4891 23.5398C28.2691 23.8098 28.2691 24.1898 28.4891 24.4598L29.6091 25.8398L27.8991 26.2998C27.5691 26.3898 27.3391 26.6998 27.3591 27.0398L27.4591 28.8098L25.8091 28.1698C25.4891 28.0498 25.1191 28.1698 24.9391 28.4498L23.9791 29.9398L23.0191 28.4498C22.8791 28.2398 22.6491 28.1198 22.4091 28.1198C22.3191 28.1198 22.2291 28.1398 22.1491 28.1698L20.4991 28.8098L20.5991 27.0398C20.6191 26.6998 20.3891 26.3898 20.0591 26.2998L18.3491 25.8398L19.4691 24.4598C19.6891 24.1898 19.6891 23.8098 19.4691 23.5398V23.5398Z" fill="#474747"/>
<path d="M34.5499 34.7295C34.2799 34.4295 33.8199 34.3995 33.5199 34.6695C30.8999 37.0095 27.5199 38.2995 23.9999 38.2995C21.3099 38.2995 18.6999 37.5495 16.4299 36.1295C16.0899 35.9195 15.6399 36.0195 15.4299 36.3595C15.2199 36.6995 15.3199 37.1495 15.6599 37.3595C18.1599 38.9195 21.0399 39.7495 23.9999 39.7495C27.8799 39.7495 31.5999 38.3295 34.4899 35.7495C34.7899 35.4795 34.8199 35.0195 34.5499 34.7195V34.7295Z" fill="#474747"/>
<path d="M39.0067 23.96H39.0467C39.4467 23.94 39.7567 23.6 39.7367 23.2C39.3167 14.81 32.4067 8.25 23.9967 8.25C22.5267 8.25 21.0767 8.45 19.6767 8.85C19.2867 8.96 19.0667 9.36 19.1767 9.75C19.2867 10.14 19.6867 10.36 20.0767 10.25C21.3467 9.89 22.6667 9.7 24.0067 9.7C31.6367 9.7 37.9067 15.66 38.2867 23.27C38.3067 23.66 38.6267 23.96 39.0167 23.96H39.0067Z" fill="#474747"/>
<path d="M15.6603 10.6294C12.5103 12.5994 10.1503 15.6194 9.01032 19.1394C8.89032 19.5194 9.10032 19.9294 9.48032 20.0594C9.55032 20.0794 9.63032 20.0994 9.70032 20.0994C10.0103 20.0994 10.2903 19.8994 10.3903 19.5994C11.4203 16.3994 13.5703 13.6594 16.4303 11.8694C16.7703 11.6594 16.8703 11.2094 16.6603 10.8694C16.4503 10.5294 16.0003 10.4194 15.6603 10.6394V10.6294Z" fill="#474747"/>
<path d="M1.45 23.999C1.45 19.649 2.69 15.429 5.04 11.789C5.26 11.449 5.16 10.999 4.82 10.779C4.48 10.559 4.03 10.659 3.82 10.999C1.32 14.869 0 19.369 0 23.999C0 27.199 0.62 30.299 1.84 33.229C1.96 33.509 2.23 33.679 2.51 33.679C2.6 33.679 2.7 33.659 2.79 33.619C3.16 33.469 3.34 33.039 3.18 32.669C2.03 29.919 1.45 27.009 1.45 23.999V23.999Z" fill="#474747"/>
<path d="M7.27344 31.8192C7.27344 34.0892 9.12344 35.9392 11.3934 35.9392C13.6634 35.9392 15.5134 34.0892 15.5134 31.8192C15.5134 29.5492 13.6634 27.6992 11.3934 27.6992C9.12344 27.6992 7.27344 29.5492 7.27344 31.8192V31.8192ZM11.3934 29.1492C12.8634 29.1492 14.0634 30.3492 14.0634 31.8192C14.0634 33.2892 12.8634 34.4892 11.3934 34.4892C9.92344 34.4892 8.72344 33.2892 8.72344 31.8192C8.72344 30.3492 9.92344 29.1492 11.3934 29.1492Z" fill="#474747"/>
<path d="M6.16 26.9098C7.76 26.9098 9.07 25.6098 9.07 23.9998C9.07 22.3898 7.77 21.0898 6.16 21.0898C4.55 21.0898 3.25 22.3898 3.25 23.9998C3.25 25.6098 4.55 26.9098 6.16 26.9098ZM6.16 22.5498C6.96 22.5498 7.61 23.1998 7.61 23.9998C7.61 24.7998 6.96 25.4498 6.16 25.4498C5.36 25.4498 4.71 24.7998 4.71 23.9998C4.71 23.1998 5.36 22.5498 6.16 22.5498Z" fill="#474747"/>
<path d="M11.7866 5.04C15.4266 2.69 19.6466 1.45 23.9966 1.45C28.3466 1.45 32.6066 2.72 36.2566 5.09C36.0066 5.69 35.8666 6.34 35.8666 7.02C35.8666 8.18 36.2666 9.32 36.9966 10.22C37.2466 10.53 37.7066 10.58 38.0166 10.33C38.3266 10.08 38.3766 9.62 38.1266 9.31C37.5966 8.66 37.3166 7.87 37.3166 7.02C37.3166 5.02 38.9466 3.38 40.9566 3.38C42.9666 3.38 44.5966 5.01 44.5966 7.02C44.5966 8.67 43.4866 10.11 41.8966 10.54C41.5066 10.64 41.2766 11.04 41.3766 11.43C41.4666 11.76 41.7566 11.97 42.0766 11.97C42.1366 11.97 42.1966 11.97 42.2666 11.95C44.4966 11.36 46.0566 9.34 46.0566 7.03C46.0566 4.22 43.7766 1.94 40.9666 1.94C39.3666 1.94 37.9566 2.7 37.0166 3.86C33.1366 1.34 28.6566 0 23.9966 0C19.3366 0 14.8666 1.32 10.9966 3.82C10.6566 4.04 10.5666 4.49 10.7766 4.83C10.9966 5.17 11.4466 5.26 11.7866 5.04Z" fill="#474747"/>
<path d="M30.0616 5.08938C30.0616 4.68938 29.7316 4.35938 29.3316 4.35938C28.9316 4.35938 28.6016 4.68938 28.6016 5.08938C28.6016 5.48938 28.9316 5.81938 29.3316 5.81938C29.7316 5.81938 30.0616 5.48938 30.0616 5.08938Z" fill="#474747"/>
<path d="M39.0269 12.1191C38.6269 12.1191 38.2969 12.4491 38.2969 12.8491C38.2969 13.2491 38.6269 13.5791 39.0269 13.5791C39.4269 13.5791 39.7569 13.2491 39.7569 12.8491C39.7569 12.4491 39.4269 12.1191 39.0269 12.1191Z" fill="#474747"/>
<path d="M26.1788 6.06008C26.1788 5.66008 25.8488 5.33008 25.4488 5.33008C25.0488 5.33008 24.7188 5.66008 24.7188 6.06008C24.7188 6.46008 25.0488 6.79008 25.4488 6.79008C25.8488 6.79008 26.1788 6.46008 26.1788 6.06008V6.06008Z" fill="#474747"/>
<path d="M33.2066 17.46C33.6097 17.46 33.9366 17.1332 33.9366 16.73C33.9366 16.3268 33.6097 16 33.2066 16C32.8034 16 32.4766 16.3268 32.4766 16.73C32.4766 17.1332 32.8034 17.46 33.2066 17.46Z" fill="#474747"/>
<path d="M41.2109 34.1792C41.2109 34.5792 41.5409 34.9092 41.9409 34.9092C42.3409 34.9092 42.6709 34.5792 42.6709 34.1792C42.6709 33.7792 42.3409 33.4492 41.9409 33.4492C41.5409 33.4492 41.2109 33.7792 41.2109 34.1792Z" fill="#474747"/>
<path d="M4.35938 29.3394C4.35938 29.7394 4.68938 30.0694 5.08938 30.0694C5.48938 30.0694 5.81938 29.7394 5.81938 29.3394C5.81938 28.9394 5.48938 28.6094 5.08938 28.6094C4.68938 28.6094 4.35938 28.9394 4.35938 29.3394V29.3394Z" fill="#474747"/>
<path d="M28.6016 41.9409C28.6016 42.3409 28.9316 42.6709 29.3316 42.6709C29.7316 42.6709 30.0616 42.3409 30.0616 41.9409C30.0616 41.5409 29.7316 41.2109 29.3316 41.2109C28.9316 41.2109 28.6016 41.5409 28.6016 41.9409Z" fill="#474747"/>
<path d="M19.8828 33.2105C19.8828 33.6105 20.2128 33.9405 20.6128 33.9405C21.0128 33.9405 21.3428 33.6105 21.3428 33.2105C21.3428 32.8105 21.0128 32.4805 20.6128 32.4805C20.2128 32.4805 19.8828 32.8105 19.8828 33.2105Z" fill="#474747"/>
<path d="M3.63625 8.24039C5.37625 8.24039 6.78625 9.65039 6.78625 11.3904C6.78625 11.7904 7.11625 12.1204 7.51625 12.1204C7.91625 12.1204 8.24625 11.7904 8.24625 11.3904C8.24625 9.65039 9.65625 8.24039 11.3962 8.24039C11.7962 8.24039 12.1263 7.91039 12.1263 7.51039C12.1263 7.11039 11.7962 6.78039 11.3962 6.78039C9.65625 6.78039 8.24625 5.37039 8.24625 3.63039C8.24625 3.23039 7.91625 2.90039 7.51625 2.90039C7.11625 2.90039 6.78625 3.23039 6.78625 3.63039C6.78625 5.37039 5.37625 6.78039 3.63625 6.78039C3.23625 6.78039 2.90625 7.11039 2.90625 7.51039C2.90625 7.91039 3.23625 8.24039 3.63625 8.24039V8.24039ZM7.51625 6.12039C7.87625 6.68039 8.35625 7.16039 8.91625 7.52039C8.35625 7.88039 7.87625 8.36039 7.51625 8.92039C7.15625 8.36039 6.67625 7.88039 6.11625 7.52039C6.67625 7.16039 7.15625 6.68039 7.51625 6.12039V6.12039Z" fill="#474747"/>
<path d="M42.1809 30.3698C42.1809 29.9698 41.8509 29.6398 41.4509 29.6398C39.7109 29.6398 38.3009 28.2298 38.3009 26.4898C38.3009 26.0898 37.9709 25.7598 37.5709 25.7598C37.1709 25.7598 36.8409 26.0898 36.8409 26.4898C36.8409 28.2298 35.4309 29.6398 33.6909 29.6398C33.2909 29.6398 32.9609 29.9698 32.9609 30.3698C32.9609 30.7698 33.2909 31.0998 33.6909 31.0998C35.4309 31.0998 36.8409 32.5098 36.8409 34.2498C36.8409 34.6498 37.1709 34.9798 37.5709 34.9798C37.9709 34.9798 38.3009 34.6498 38.3009 34.2498C38.3009 32.5098 39.7109 31.0998 41.4509 31.0998C41.8509 31.0998 42.1809 30.7698 42.1809 30.3698ZM37.5709 31.7698C37.2109 31.2098 36.7309 30.7298 36.1709 30.3698C36.7309 30.0098 37.2109 29.5298 37.5709 28.9698C37.9309 29.5298 38.4109 30.0098 38.9709 30.3698C38.4109 30.7298 37.9309 31.2098 37.5709 31.7698Z" fill="#474747"/>
<path d="M18.1809 43.3893C18.1809 42.9893 17.8509 42.6593 17.4509 42.6593C15.7109 42.6593 14.3009 41.2493 14.3009 39.5093C14.3009 39.1093 13.9709 38.7793 13.5709 38.7793C13.1709 38.7793 12.8409 39.1093 12.8409 39.5093C12.8409 41.2493 11.4309 42.6593 9.69094 42.6593C9.29094 42.6593 8.96094 42.9893 8.96094 43.3893C8.96094 43.7893 9.29094 44.1193 9.69094 44.1193C11.4309 44.1193 12.8409 45.5293 12.8409 47.2693C12.8409 47.6693 13.1709 47.9993 13.5709 47.9993C13.9709 47.9993 14.3009 47.6693 14.3009 47.2693C14.3009 45.5293 15.7109 44.1193 17.4509 44.1193C17.8509 44.1193 18.1809 43.7893 18.1809 43.3893ZM13.5709 44.7893C13.2109 44.2293 12.7309 43.7493 12.1709 43.3893C12.7309 43.0293 13.2109 42.5493 13.5709 41.9893C13.9309 42.5493 14.4109 43.0293 14.9709 43.3893C14.4109 43.7493 13.9309 44.2293 13.5709 44.7893Z" fill="#474747"/>
</svg>
