<svg width="49" height="48" viewBox="0 0 49 48" fill="none" xmlns="http://www.w3.org/2000/svg">
<g clip-path="url(#clip0_1374_3909)">
<path d="M42.6222 26.9609H5.86219C2.75835 26.9609 0.242188 29.4771 0.242188 32.5809V41.7709C0.242188 44.8748 2.75835 47.3909 5.86219 47.3909H42.6222C45.726 47.3909 48.2422 44.8748 48.2422 41.7709V32.5809C48.2422 29.4771 45.726 26.9609 42.6222 26.9609Z" fill="#5AB977"/>
<path d="M27.1203 5.5693L26.5503 8.4393L24.6403 10.6093L21.0703 11.9493L18.3903 12.1393L16.0303 14.1793L15.0103 16.9193V19.6593L16.4803 22.2793L18.0103 23.3693L19.2903 24.0693H15.9703L11.8803 24.8393L9.90031 27.1993C9.90031 27.1993 9.07031 28.8593 9.20031 30.1993C9.33031 31.5393 10.0303 33.2593 10.0303 33.2593L11.5003 35.4293C11.5003 35.4293 9.78031 35.6893 8.18031 36.0693C8.18031 36.0693 7.16031 36.1293 6.46031 37.2793C5.76031 38.4293 5.57031 38.3693 5.57031 39.1293C5.57031 39.8893 5.70031 41.1093 6.66031 41.9993C7.62031 42.8893 13.9403 42.5093 13.9403 42.5093L38.0003 42.5693C38.0003 42.5693 40.5803 41.2493 41.2603 40.4593C42.0303 39.5693 42.6603 38.0993 42.6603 36.6293C42.6603 35.1593 41.7003 32.7393 40.6203 31.9693C39.5403 31.1993 38.9603 30.2493 37.3003 29.9293C35.6403 29.6093 31.7103 29.3893 31.7103 29.3893L29.0603 29.9293L35.7003 29.1593L37.0403 27.4393L38.0003 24.3793L37.3603 21.0593L35.4503 19.2693L33.6603 18.1793L30.4703 17.4793L33.7303 14.2193C33.7303 14.2193 33.6003 11.5393 33.4703 10.5193C33.3403 9.4993 33.2103 9.2393 33.2103 9.2393L30.4703 6.2993L28.3003 5.7893L27.1503 5.5293L27.1203 5.5693Z" fill="#F5C935"/>
<path d="M43.1359 36.2721C43.1359 32.4829 40.0566 29.4036 36.2674 29.4036H35.8775C37.4871 28.1438 38.5369 26.1942 38.5369 23.9947C38.5369 21.0253 36.6473 18.4059 33.8279 17.4761C33.448 17.3461 33.038 17.556 32.9081 17.936C32.7781 18.3159 32.9881 18.7258 33.368 18.8558C35.5875 19.5856 37.0872 21.6552 37.0872 23.9947C37.0872 26.9741 34.6577 29.4036 31.6683 29.4036H21.3705C20.9706 29.4036 20.6406 29.7335 20.6406 30.1334C20.6406 30.5333 20.9706 30.8633 21.3705 30.8633H36.2774C39.2667 30.8633 41.6862 33.2928 41.6862 36.2721C41.6862 36.6721 42.0162 37.002 42.4161 37.002C42.816 37.002 43.1459 36.6721 43.1459 36.2721H43.1359Z" fill="#474747"/>
<path d="M8.18968 42.4108C8.18968 42.8107 8.51962 43.1406 8.91953 43.1406H36.2838C38.8433 43.1406 41.1828 41.7309 42.3726 39.4514C42.5625 39.0915 42.4226 38.6515 42.0626 38.4716C41.7127 38.2816 41.2728 38.4216 41.0828 38.7815C40.143 40.5711 38.3034 41.6909 36.2838 41.6909H8.90954C8.50962 41.6909 8.17969 42.0208 8.17969 42.4208L8.18968 42.4108Z" fill="#474747"/>
<path d="M23.4313 37.0027C23.8312 37.0027 24.1612 36.6727 24.1612 36.2728C24.1612 35.8729 23.8312 35.543 23.4313 35.543H15.433C15.0331 35.543 14.7031 35.8729 14.7031 36.2728C14.7031 36.6727 15.0331 37.0027 15.433 37.0027H23.4313Z" fill="#474747"/>
<path d="M28.0256 37.003C28.4256 37.003 28.7556 36.673 28.7556 36.273C28.7556 35.873 28.4256 35.543 28.0256 35.543H26.4956C26.0956 35.543 25.7656 35.873 25.7656 36.273C25.7656 36.673 26.0956 37.003 26.4956 37.003H28.0256Z" fill="#474747"/>
<path d="M36.2703 37.0027C36.6702 37.0027 37.0002 36.6727 37.0002 36.2728C37.0002 35.8729 36.6702 35.543 36.2703 35.543H31.0814C30.6815 35.543 30.3516 35.8729 30.3516 36.2728C30.3516 36.6727 30.6815 37.0027 31.0814 37.0027H36.2703Z" fill="#474747"/>
<path d="M32.0526 24.7253C32.4525 24.7253 32.7825 24.3954 32.7825 23.9955C32.7825 23.5956 32.4525 23.2656 32.0526 23.2656H27.3236C26.9237 23.2656 26.5938 23.5956 26.5938 23.9955C26.5938 24.3954 26.9237 24.7253 27.3236 24.7253H32.0526Z" fill="#474747"/>
<path d="M32.3826 10.6165C32.4625 11.0064 32.8525 11.2663 33.2424 11.1863C33.6323 11.1064 33.8923 10.7264 33.8123 10.3265C33.1624 7.14718 30.333 4.84766 27.0837 4.84766C26.6838 4.84766 26.3538 5.17759 26.3538 5.5775C26.3538 8.04699 25.414 10.9864 20.925 10.9864C17.1357 10.9864 14.0564 14.0657 14.0564 17.8549C14.0564 19.9845 15.0562 21.9641 16.6258 23.2638H15.5561C11.7669 23.2638 8.6875 26.3432 8.6875 30.1324C8.6875 31.4721 9.07742 32.7718 9.80727 33.8916C9.94724 34.1016 10.1772 34.2215 10.4171 34.2215C10.5571 34.2215 10.6971 34.1815 10.8171 34.1016C11.157 33.8816 11.247 33.4317 11.027 33.0918C10.4471 32.212 10.1472 31.1822 10.1472 30.1324C10.1472 27.153 12.5767 24.7235 15.5561 24.7235H19.7452C19.8352 24.7235 19.9252 24.7035 20.0051 24.6735C20.0351 24.6635 20.0551 24.6435 20.0851 24.6335C20.1351 24.6035 20.1851 24.5735 20.2251 24.5336C20.2451 24.5136 20.2651 24.4836 20.2951 24.4636C20.3251 24.4236 20.3651 24.3736 20.3851 24.3336C20.4051 24.3036 20.4151 24.2636 20.4251 24.2336C20.4251 24.2036 20.4451 24.1836 20.455 24.1536C20.455 24.1336 20.455 24.1036 20.455 24.0836C20.455 24.0637 20.465 24.0437 20.465 24.0137C20.465 23.9837 20.455 23.9637 20.455 23.9437C20.455 23.8937 20.4451 23.8437 20.4251 23.8037C20.4151 23.7537 20.3951 23.7237 20.3751 23.6737C20.3551 23.6337 20.3251 23.5938 20.2951 23.5638C20.2651 23.5238 20.2351 23.4938 20.1951 23.4638C20.1651 23.4338 20.1251 23.4138 20.0851 23.3938C20.0451 23.3738 19.9951 23.3538 19.9452 23.3338C19.9252 23.3338 19.9052 23.3138 19.8752 23.3038C17.3857 22.8139 15.5061 20.4744 15.5061 17.8749C15.5061 14.8856 17.9356 12.4661 20.915 12.4661C25.0241 12.4661 27.4936 10.2565 27.7735 6.36734C30.0331 6.66728 31.9127 8.36692 32.3726 10.6464L32.3826 10.6165Z" fill="#474747"/>
<path d="M5.48897 39.4133C5.53897 39.4233 5.58897 39.4333 5.63897 39.4333C5.97897 39.4333 6.27897 39.2033 6.34897 38.8533C6.53897 37.9833 7.20897 37.2933 8.06897 37.0733C8.45897 36.9733 8.69897 36.5833 8.59897 36.1933C8.49897 35.8033 8.09897 35.5633 7.71897 35.6633C6.31897 36.0133 5.22897 37.1433 4.92897 38.5433C4.84897 38.9333 5.09897 39.3233 5.48897 39.4033V39.4133Z" fill="#474747"/>
<path d="M20.9252 17.127C20.5252 17.127 20.1953 17.4569 20.1953 17.8568C20.1953 18.2567 20.5252 18.5866 20.9252 18.5866H26.1141C26.514 18.5866 26.8439 18.2567 26.8439 17.8568C26.8439 17.4569 26.514 17.127 26.1141 17.127H20.9252Z" fill="#474747"/>
<path d="M11.9418 5.05761C11.6618 4.77767 11.2019 4.77767 10.912 5.05761C9.60226 6.35734 9.60226 8.4869 10.912 9.78663C11.6518 10.5265 11.6518 11.7262 10.912 12.4661C10.632 12.746 10.632 13.2059 10.912 13.4959C11.052 13.6358 11.2419 13.7058 11.4219 13.7058C11.6018 13.7058 11.7918 13.6358 11.9318 13.4959C13.2315 12.1961 13.2315 10.0666 11.9318 8.76684C11.1919 8.02699 11.1919 6.82724 11.9318 6.0974C12.2117 5.81745 12.2117 5.35755 11.9318 5.06761L11.9418 5.05761Z" fill="#474747"/>
<path d="M6.85583 13.3682C6.57589 13.0882 6.11599 13.0882 5.82605 13.3682C4.51632 14.6679 4.51632 16.7974 5.82605 18.0972C6.56589 18.837 6.56589 20.0368 5.82605 20.7666C5.5461 21.0466 5.5461 21.5065 5.82605 21.7964C5.96602 21.9364 6.15598 22.0064 6.33594 22.0064C6.5159 22.0064 6.70586 21.9364 6.84583 21.7964C8.15556 20.4967 8.15556 18.3671 6.84583 17.0674C6.10599 16.3275 6.10599 15.1278 6.84583 14.3879C7.12577 14.108 7.12577 13.6481 6.84583 13.3582L6.85583 13.3682Z" fill="#474747"/>
<path d="M40.6293 11.0576C40.3493 10.7777 39.8794 10.7777 39.5995 11.0576C38.2898 12.3573 38.2898 14.4869 39.5995 15.7866C40.3393 16.5265 40.3393 17.7262 39.5995 18.4661C39.3195 18.746 39.3195 19.2059 39.5995 19.4959C39.7395 19.6358 39.9294 19.7058 40.1094 19.7058C40.2893 19.7058 40.4793 19.6358 40.6193 19.4959C41.919 18.1961 41.919 16.0666 40.6193 14.7668C39.8794 14.027 39.8794 12.8272 40.6193 12.0974C40.8992 11.8175 40.8992 11.3575 40.6193 11.0676L40.6293 11.0576Z" fill="#474747"/>
<path d="M40.4832 0H19.2377C18.8377 0 18.5078 0.329931 18.5078 0.729848C18.5078 1.12976 18.8377 1.4597 19.2377 1.4597H40.4832C43.8225 1.4597 46.542 4.17913 46.542 7.51843V21.0656C46.542 21.4655 46.8719 21.7955 47.2718 21.7955C47.6717 21.7955 48.0017 21.4655 48.0017 21.0656V7.50844C48.0017 3.3693 44.6324 0 40.4932 0H40.4832Z" fill="#474747"/>
<path d="M47.2602 24.2152C46.8602 24.2152 46.5303 24.5451 46.5303 24.945V40.4818C46.5303 43.8211 43.8109 46.5405 40.4716 46.5405H7.51843C6.02874 46.5405 4.66903 46.0006 3.60925 45.1008L42.6111 6.08896C42.8911 5.80902 42.8911 5.34912 42.6111 5.05918C42.3312 4.77924 41.8613 4.77924 41.5813 5.05918L2.61945 44.0311C1.88961 43.0313 1.4597 41.8015 1.4597 40.4718V7.50867C1.4497 4.16936 4.16913 1.44993 7.51843 1.44993H15.3568C15.7567 1.44993 16.0867 1.12 16.0867 0.720082C16.0867 0.320166 15.7567 -0.00976562 15.3568 -0.00976562H7.51843C3.3693 0.000232292 0 3.36953 0 7.50867V40.4718C0 44.6109 3.3693 47.9902 7.51843 47.9902H40.4816C44.6207 47.9902 47.99 44.6209 47.99 40.4718V24.935C47.99 24.5351 47.6601 24.2052 47.2602 24.2052V24.2152Z" fill="#474747"/>
</g>
<defs>
<clipPath id="clip0_1374_3909">
<rect width="48.24" height="48" fill="white"/>
</clipPath>
</defs>
</svg>
