<svg width="100" height="100" viewBox="0 0 100 100" fill="none" xmlns="http://www.w3.org/2000/svg">
<path d="M38.0984 46.3984L28.3984 48.6984L34.5984 75.7984H44.8984L38.0984 46.3984Z" fill="#E5E9EE"/>
<path d="M38.0984 46.3984L28.3984 48.6984L34.5984 75.7984H44.8984L38.0984 46.3984Z" stroke="#333333" stroke-width="2" stroke-miterlimit="10" stroke-linejoin="bevel"/>
<path d="M73.8 60.1992V22.1992L28.5 46.6992L73.8 71.2992V62.9992" fill="white"/>
<path d="M79.8953 50.4988V42.9988L74.2953 39.2988L68.6953 42.9988V50.4988L74.2953 54.1988L79.8953 50.4988Z" fill="white"/>
<path d="M47.0984 44.0996V56.8996H26.8984V36.5996H47.0984V40.8996" fill="white"/>
<path d="M26.7953 51.7996C23.9953 51.7996 21.6953 49.4996 21.6953 46.6996C21.6953 43.8996 23.9953 41.5996 26.7953 41.5996" fill="white"/>
<path d="M21.2969 48.1992H27.3969L27.7969 49.7992L45.9969 49.6992L46.7969 48.1992H79.9969L79.8969 51.5992L74.4961 55V70.5L67.8969 68.5992L46.9961 57L26.8969 57.6992L26.4961 52.5L22.9961 51L21.2969 48.1992Z" fill="#E5E9EE"/>
<path d="M47.7006 49.4984L75.0006 64.0984L74.9006 49.0984L59.9006 42.3984C54.0006 43.9984 47.1006 45.1984 47.7006 49.4984Z" fill="white"/>
<path d="M26.7953 51.7996C23.9953 51.7996 21.6953 49.4996 21.6953 46.6996C21.6953 43.8996 23.9953 41.5996 26.7953 41.5996" stroke="#333333" stroke-width="2" stroke-miterlimit="10" stroke-linejoin="bevel"/>
<path d="M79.8953 50.4988V42.9988L74.2953 39.2988L68.6953 42.9988V50.4988L74.2953 54.1988L79.8953 50.4988Z" stroke="#333333" stroke-width="2" stroke-miterlimit="10" stroke-linejoin="bevel"/>
<path d="M73.5984 34.0996L63.3984 36.3996L66.4984 50.3996L73.2984 57.0996L73.9984 50.8996L73.5984 34.0996Z" fill="white"/>
<path d="M46.6953 56.5996L73.7953 71.2996V62.9996" stroke="#333333" stroke-width="2" stroke-miterlimit="10" stroke-linejoin="bevel"/>
<path d="M73.7969 60.1992V22.1992L46.7969 36.7992" stroke="#333333" stroke-width="2" stroke-miterlimit="10" stroke-linejoin="bevel"/>
<path d="M47.0984 44.0996V56.8996H26.8984V36.5996H47.0984V40.8996" stroke="#333333" stroke-width="2" stroke-miterlimit="10" stroke-linejoin="bevel"/>
<path d="M69.5938 24.5996V68.8996" stroke="#333333" stroke-width="2" stroke-miterlimit="10" stroke-linejoin="bevel"/>
<path d="M33.7969 71.5996H43.9969" stroke="#333333" stroke-width="2" stroke-miterlimit="10" stroke-linejoin="bevel"/>
<path d="M29.5 43.0996H32.4" stroke="#333333" stroke-width="2" stroke-miterlimit="10" stroke-linejoin="bevel"/>
<path d="M29.5 46.6992H32.4" stroke="#333333" stroke-width="2" stroke-miterlimit="10" stroke-linejoin="bevel"/>
<path d="M29.5 50.4004H32.4" stroke="#333333" stroke-width="2" stroke-miterlimit="10" stroke-linejoin="bevel"/>
</svg>
