<svg width="67" height="48" viewBox="0 0 67 48" fill="none" xmlns="http://www.w3.org/2000/svg">
<g clip-path="url(#clip0_1374_3951)">
<path d="M5.66956 15.564C3.8441 16.1971 1.91313 15.7539 0.5625 14.5616C0.889605 12.7889 2.12416 11.2378 3.94962 10.6047C5.77507 9.97155 7.70605 10.4147 9.05667 11.6071C8.72957 13.3798 7.49501 14.9309 5.66956 15.564Z" fill="#F5C935"/>
<path d="M47.2336 41.2467C50.4562 41.2467 53.0687 39.0736 53.0687 36.3929C53.0687 33.7122 50.4562 31.5391 47.2336 31.5391C44.0109 31.5391 41.3984 33.7122 41.3984 36.3929C41.3984 39.0736 44.0109 41.2467 47.2336 41.2467Z" fill="#E95046"/>
<path d="M31.235 32.7109H28.1328V46.9875H31.235V32.7109Z" fill="#F5C935"/>
<path d="M23.0788 32.7109H19.9766V46.9875H23.0788V32.7109Z" fill="#E95046"/>
<path d="M51.4616 32.7109H48.3594V46.9875H51.4616V32.7109Z" fill="#E95046"/>
<path d="M50.5306 34.8417C50.8366 34.8417 51.0793 35.0949 51.0793 35.4009C51.0793 35.7069 50.8366 35.9602 50.5306 35.9602H27.1267C21.5871 35.9602 15.8047 31.3385 15.8047 25.6722V21.747C15.8047 16.0701 21.5871 11.459 27.1267 11.459H51.343C56.8827 11.459 61.3778 16.0807 61.3778 21.747V46.9235C61.3778 47.2295 61.1351 47.4827 60.8291 47.4827H57.136C56.83 47.4827 56.5873 47.2295 56.5873 46.9235V37.8173C55.4477 37.849 52.9364 37.6696 50.9526 35.8863C49.201 34.3036 48.3041 31.8661 48.3041 28.6373C48.3041 28.3313 48.5468 28.078 48.8528 28.078" fill="#F5C935"/>
<path d="M50.6805 36.1611H31.8667C31.5501 36.1611 31.2969 35.9078 31.2969 35.5913C31.2969 35.2747 31.5501 35.0215 31.8667 35.0215H50.6805C50.997 35.0215 51.2503 35.2747 51.2503 35.5913C51.2503 35.9078 50.997 36.1611 50.6805 36.1611Z" fill="#474747"/>
<path d="M60.9054 48.0008H57.0118C56.6952 48.0008 56.442 47.7475 56.442 47.431V38.0716C55.2391 38.1032 52.5906 37.9238 50.5013 36.0878C48.6548 34.4628 47.7157 31.9515 47.7157 28.6383C47.7157 28.3217 47.9689 28.0685 48.2855 28.0685C48.602 28.0685 48.8552 28.3217 48.8552 28.6383C48.8552 31.6033 49.6572 33.8192 51.24 35.2226C53.5824 37.2907 56.8957 36.9003 56.9274 36.9003C57.0962 36.8792 57.2545 36.932 57.3811 37.0375C57.5077 37.143 57.571 37.3013 57.571 37.4701V46.8717H60.3145V21.558C60.3145 16.356 56.0832 12.1353 50.8812 12.1353H25.3776C20.1755 12.1353 15.9443 16.3666 15.9443 21.558V25.5888C15.9443 30.7908 20.1755 35.0115 25.3776 35.0115H27.9311C28.2476 35.0115 28.5009 35.2648 28.5009 35.5813C28.5009 35.8979 28.2476 36.1511 27.9311 36.1511H25.3776C19.5424 36.1511 14.8047 31.4028 14.8047 25.5783V21.5475C14.8047 15.7124 19.553 10.9746 25.3776 10.9746H50.9023C56.7374 10.9746 61.4752 15.7229 61.4752 21.5475V47.4204C61.4752 47.737 61.2219 47.9902 60.9054 47.9902V48.0008Z" fill="#474747"/>
<path d="M47.3831 42.2068C43.7744 42.2068 40.8516 39.2734 40.8516 35.6753C40.8516 35.3587 41.1048 35.1055 41.4214 35.1055C41.7379 35.1055 41.9912 35.3587 41.9912 35.6753C41.9912 38.6403 44.4075 41.0567 47.3726 41.0567C49.8628 41.0567 52.0153 39.3684 52.6062 36.952C52.6801 36.646 52.9861 36.4561 53.3026 36.53C53.6086 36.6038 53.7986 36.9204 53.7247 37.2264C53.0072 40.1598 50.4009 42.2068 47.3726 42.2068H47.3831Z" fill="#474747"/>
<path d="M31.5992 48.0002H28.0854C27.7689 48.0002 27.5156 47.747 27.5156 47.4304V32.9956C27.5156 32.679 27.7689 32.4258 28.0854 32.4258C28.402 32.4258 28.6552 32.679 28.6552 32.9956V46.8501H31.0188V33.0905C31.0188 32.774 31.2721 32.5207 31.5886 32.5207C31.9052 32.5207 32.1584 32.774 32.1584 33.0905V47.4304C32.1584 47.747 31.9052 48.0002 31.5886 48.0002H31.5992Z" fill="#474747"/>
<path d="M23.482 48.0008H19.9682C19.6517 48.0008 19.3984 47.7476 19.3984 47.431V34.2202C19.3984 33.9036 19.6517 33.6504 19.9682 33.6504C20.2848 33.6504 20.538 33.9036 20.538 34.2202V46.8612H22.9016V35.5708C22.9016 35.2543 23.1549 35.001 23.4714 35.001C23.788 35.001 24.0412 35.2543 24.0412 35.5708V47.431C24.0412 47.7476 23.788 48.0008 23.4714 48.0008H23.482Z" fill="#474747"/>
<path d="M51.8413 47.9999H48.3276C48.0111 47.9999 47.7578 47.7466 47.7578 47.4301V41.8271C47.7578 41.5105 48.0111 41.2573 48.3276 41.2573C48.6442 41.2573 48.8974 41.5105 48.8974 41.8271V46.8603H51.261V39.6323C51.261 39.3157 51.5142 39.0625 51.8308 39.0625C52.1473 39.0625 52.4006 39.3157 52.4006 39.6323V47.4406C52.4006 47.7572 52.1473 48.0104 51.8308 48.0104L51.8413 47.9999Z" fill="#474747"/>
<path d="M18.4596 27.5404H15.4734C12.7089 27.5404 10.4086 25.409 10.1976 22.6549L9.29011 10.9636C9.04742 7.89302 11.4849 5.26562 14.566 5.26562H19.3565C22.4376 5.26562 24.8645 7.89302 24.6324 10.9636L23.7249 22.6549C23.5139 25.409 21.2136 27.5404 18.449 27.5404H18.4596Z" fill="#F5C935"/>
<path d="M18.46 28.1097H15.4739C12.435 28.1097 9.86036 25.7355 9.62822 22.6966L8.72077 11.0053C8.59415 9.3803 9.15339 7.76588 10.2613 6.57353C11.3693 5.38118 12.9309 4.69531 14.5664 4.69531H19.357C20.9819 4.69531 22.5541 5.38118 23.6621 6.57353C24.77 7.76588 25.3293 9.3803 25.2026 11.0053L24.2952 22.6966C24.063 25.7355 21.4884 28.1097 18.4495 28.1097H18.46ZM14.5664 5.84546C13.2369 5.84546 12.0129 6.3836 11.1055 7.35436C10.198 8.32512 9.76539 9.59133 9.86036 10.9209L10.7678 22.6122C10.9577 25.0497 13.0259 26.9595 15.4633 26.9595H18.4495C20.8975 26.9595 22.9657 25.0497 23.145 22.6122L24.0525 10.9209C24.158 9.59133 23.7148 8.32512 22.8074 7.35436C21.8999 6.3836 20.6759 5.84546 19.3464 5.84546H14.5559H14.5664Z" fill="#474747"/>
<path d="M20.8273 27.3609C20.5107 27.3609 20.2575 27.1077 20.2575 26.7911C20.2575 24.9868 18.7908 23.5095 16.9759 23.5095C15.161 23.5095 13.6943 24.9762 13.6943 26.7911C13.6943 27.1077 13.441 27.3609 13.1245 27.3609C12.8079 27.3609 12.5547 27.1077 12.5547 26.7911C12.5547 24.3537 14.5384 22.3594 16.9864 22.3594C19.4344 22.3594 21.4182 24.3431 21.4182 26.7911C21.4182 27.1077 21.1649 27.3609 20.8484 27.3609H20.8273Z" fill="#474747"/>
<path d="M14.738 15.0467C14.4214 15.0467 14.1682 14.7935 14.1682 14.4769C14.1682 14.192 13.936 13.9705 13.6617 13.9705C13.3874 13.9705 13.1552 14.2026 13.1552 14.4769C13.1552 14.7935 12.902 15.0467 12.5854 15.0467C12.2689 15.0467 12.0156 14.7935 12.0156 14.4769C12.0156 13.5589 12.7542 12.8203 13.6723 12.8203C14.5903 12.8203 15.3289 13.5589 15.3289 14.4769C15.3289 14.7935 15.0756 15.0467 14.7591 15.0467H14.738Z" fill="#474747"/>
<path d="M21.363 15.0467C21.0464 15.0467 20.7932 14.7935 20.7932 14.4769C20.7932 14.192 20.561 13.9705 20.2867 13.9705C20.0124 13.9705 19.7802 14.2026 19.7802 14.4769C19.7802 14.7935 19.527 15.0467 19.2104 15.0467C18.8939 15.0467 18.6406 14.7935 18.6406 14.4769C18.6406 13.5589 19.3792 12.8203 20.2973 12.8203C21.2153 12.8203 21.9539 13.5589 21.9539 14.4769C21.9539 14.7935 21.7006 15.0467 21.3841 15.0467H21.363Z" fill="#474747"/>
<path d="M10.5834 10.5839C6.426 8.71628 4.62164 4.29509 6.28882 0.570312C6.28882 0.570312 7.73442 4.92819 12.2189 6.94358L10.5834 10.5839V10.5839Z" fill="#F5C935"/>
<path d="M10.5808 11.1538C10.5069 11.1538 10.4225 11.1327 10.3486 11.101C8.21717 10.1514 6.58165 8.5053 5.72695 6.48991C4.87226 4.47452 4.88281 2.2903 5.75861 0.327674C5.85357 0.12719 6.07516 -0.00998259 6.3073 0.000569179C6.53944 0.0111209 6.75047 0.169398 6.82434 0.390985C6.83489 0.433192 8.25938 4.53783 12.4484 6.41604C12.7333 6.54267 12.8705 6.89087 12.7333 7.17577C12.6067 7.46067 12.2585 7.59784 11.9736 7.46067C8.89248 6.07839 7.1831 3.68314 6.37061 2.15313C6.10682 3.44045 6.24399 4.78052 6.78213 6.04673C7.52075 7.79833 8.95579 9.22282 10.8235 10.0564C11.1084 10.183 11.2455 10.5312 11.1084 10.8161C11.0134 11.0272 10.8024 11.1538 10.5808 11.1538V11.1538Z" fill="#474747"/>
<path d="M23.3543 10.5832C27.5011 8.72604 29.316 4.2943 27.6488 0.580078C27.6488 0.580078 26.2033 4.93796 21.7188 6.95335L23.3543 10.5937V10.5832Z" fill="#F5C935"/>
<path d="M23.3579 11.1538C23.1363 11.1538 22.9253 11.0272 22.8303 10.8161C22.7037 10.5312 22.8303 10.183 23.1152 10.0564C24.9829 9.22281 26.4074 7.79833 27.1565 6.04673C27.6947 4.78052 27.8318 3.44045 27.568 2.15313C26.745 3.68314 25.0356 6.07839 21.9651 7.46067C21.6802 7.58729 21.332 7.46067 21.2053 7.17577C21.0787 6.89087 21.2053 6.54266 21.4902 6.41604C25.7004 4.52728 27.0932 0.433191 27.1143 0.390984C27.1882 0.169397 27.3887 0.0111205 27.6314 0.000568684C27.874 -0.00998308 28.0851 0.12719 28.18 0.338225C29.0558 2.2903 29.0664 4.48507 28.2117 6.50046C27.357 8.51585 25.7109 10.1514 23.59 11.1116C23.5162 11.1432 23.4318 11.1643 23.3579 11.1643V11.1538Z" fill="#474747"/>
<path d="M4.16522 16.6097C2.69853 16.6097 1.26348 16.0505 0.176653 15.0058C0.0289278 14.8687 -0.0343828 14.6576 0.018376 14.4571C0.482654 12.4418 2.00211 10.8273 3.97529 10.2364C5.94847 9.64553 8.10103 10.1731 9.58883 11.5976C9.73656 11.7348 9.79987 11.9458 9.74711 12.1463C9.28283 14.1617 7.76337 15.7761 5.79019 16.367C5.25205 16.5253 4.70336 16.5991 4.16522 16.5991V16.6097ZM1.22128 14.4044C2.39252 15.3751 3.99639 15.7128 5.46309 15.2802C6.94034 14.837 8.09048 13.6869 8.54421 12.2307C7.37296 11.26 5.76909 10.9223 4.30239 11.3549C2.82515 11.7981 1.675 12.9482 1.22128 14.4044Z" fill="#474747"/>
<path d="M28.1966 15.8276C26.35 15.2789 25.0416 13.7805 24.6406 12.0289C25.9385 10.7838 27.8484 10.2457 29.6949 10.7944C31.5415 11.3431 32.8499 12.8414 33.2509 14.593C31.953 15.8381 30.0431 16.3763 28.1966 15.8276Z" fill="#F5C935"/>
<path d="M29.6651 16.6087C29.1164 16.6087 28.5677 16.5348 28.0402 16.3765C26.067 15.7856 24.5475 14.1712 24.0832 12.1558C24.041 11.9553 24.1043 11.7549 24.2415 11.6071C25.7293 10.1721 27.8819 9.65505 29.8551 10.246C31.8282 10.8368 33.3477 12.4513 33.812 14.4667C33.8542 14.6671 33.7909 14.8676 33.6537 15.0153C32.5669 16.06 31.1318 16.6192 29.6651 16.6192V16.6087ZM25.2861 12.2191C25.7399 13.6753 26.89 14.836 28.3673 15.2686C29.834 15.7012 31.4378 15.3741 32.6091 14.3928C32.1553 12.9367 31.0052 11.776 29.528 11.3433C28.0613 10.9002 26.4574 11.2378 25.2861 12.2191V12.2191Z" fill="#474747"/>
<path d="M65.7979 35.0319C65.4814 35.0319 65.2281 34.7786 65.2281 34.4621V25.9151C65.2281 18.3179 59.0448 12.124 51.437 12.124C51.1204 12.124 50.8672 11.8707 50.8672 11.5542C50.8672 11.2376 51.1204 10.9844 51.437 10.9844C59.6779 10.9844 66.3677 17.6847 66.3677 25.9151V34.4621C66.3677 34.7786 66.1145 35.0319 65.7979 35.0319Z" fill="#474747"/>
<path d="M21.518 20.4492H12.2852C10.3155 20.4492 8.71875 22.046 8.71875 24.0157V24.0263C8.71875 25.996 10.3155 27.5928 12.2852 27.5928H21.518C23.4878 27.5928 25.0845 25.996 25.0845 24.0263V24.0157C25.0845 22.046 23.4878 20.4492 21.518 20.4492Z" fill="#59B173" stroke="#474747" stroke-miterlimit="10"/>
<path d="M14.6276 24.0273C14.6276 24.8714 13.9417 25.5573 13.0976 25.5573C12.8549 25.5573 12.665 25.3568 12.665 25.1247C12.665 24.8925 12.8654 24.692 13.0976 24.692C13.4563 24.692 13.7518 24.3966 13.7518 24.0378C13.7518 23.6791 13.4563 23.3836 13.0976 23.3836C12.7388 23.3836 12.4434 23.6791 12.4434 24.0378C12.4434 24.2805 12.2429 24.4704 12.0107 24.4704C11.7786 24.4704 11.5781 24.27 11.5781 24.0378C11.5781 23.1937 12.264 22.5078 13.1081 22.5078C13.9523 22.5078 14.6381 23.1937 14.6381 24.0378L14.6276 24.0273Z" fill="#474747"/>
<path d="M22.0416 24.0269C22.0416 24.2696 21.8412 24.4595 21.609 24.4595C21.3769 24.4595 21.1764 24.259 21.1764 24.0269C21.1764 23.6681 20.881 23.3727 20.5222 23.3727C20.1634 23.3727 19.868 23.6681 19.868 24.0269C19.868 24.3856 20.1634 24.6811 20.5222 24.6811C20.7649 24.6811 20.9548 24.8816 20.9548 25.1137C20.9548 25.3459 20.7543 25.5463 20.5222 25.5463C19.6781 25.5463 18.9922 24.8605 18.9922 24.0163C18.9922 23.1722 19.6781 22.4863 20.5222 22.4863C21.3663 22.4863 22.0522 23.1722 22.0522 24.0163L22.0416 24.0269Z" fill="#474747"/>
</g>
<defs>
<clipPath id="clip0_1374_3951">
<rect width="67" height="48" fill="white"/>
</clipPath>
</defs>
</svg>
