<svg width="100" height="100" viewBox="0 0 100 100" fill="none" xmlns="http://www.w3.org/2000/svg">
<path d="M76.6734 79.8138H69.5859V27H72.6234C74.861 27 76.6734 28.818 76.6734 31.0626V79.8138Z" fill="#E5E9EE"/>
<path d="M34.5 28.0254H68.9655C71.3651 28.0254 73.3091 29.9754 73.3091 32.3825V75.9643C73.3091 78.3714 71.3651 80.3214 68.9655 80.3214H42.8936C40.494 80.3214 38.55 78.3714 38.55 75.9643V55.1941" stroke="#333333" stroke-width="2" stroke-miterlimit="10" stroke-linejoin="bevel"/>
<path d="M38.5516 35.6432V34.5565V32.0783C38.5516 29.8337 36.7393 28.0156 34.5016 28.0156H33.1246H31.7375C29.4999 28.0156 27.6875 29.8337 27.6875 32.0783V35.6432" fill="#E5E9EE"/>
<path d="M38.5516 52.7366V35.6432V34.5564V32.0782C38.5516 29.8336 36.7393 28.0156 34.5016 28.0156H33.1246H31.7375C29.4999 28.0156 27.6875 29.8336 27.6875 32.0782V35.6432H36.4051" stroke="#333333" stroke-width="2" stroke-miterlimit="10" stroke-linejoin="bevel"/>
<path d="M45.4782 55.1953H31.0703V67.0986H45.4782V55.1953Z" fill="white" stroke="#333333" stroke-width="2" stroke-miterlimit="10" stroke-linejoin="bevel"/>
<path d="M60.2526 72.6934H77.6574V76.2583C77.6574 78.5029 75.8451 80.3209 73.6074 80.3209H42.6047C40.3671 80.3209 38.5547 78.5029 38.5547 76.2583V72.6934" fill="white"/>
<path d="M76.6734 81.3381H69.5859V71.6895H78.6984C79.8121 71.6895 80.7234 72.6035 80.7234 73.7208V77.2755C80.7234 79.5201 78.911 81.3381 76.6734 81.3381Z" fill="#E5E9EE"/>
<path d="M66.2394 59.9377L61.3591 57.2157L56.4688 59.9377V50.1367H66.2394V59.9377Z" fill="#E5E9EE"/>
<path d="M66.2394 56.8909L61.3591 54.1689L56.4688 56.8909V47.0898H66.2394V56.8909Z" stroke="#333333" stroke-width="2" stroke-miterlimit="10" stroke-linejoin="bevel"/>
<path d="M61.3616 50.3599C65.863 50.3599 69.5122 46.6993 69.5122 42.1838C69.5122 37.6683 65.863 34.0078 61.3616 34.0078C56.8601 34.0078 53.2109 37.6683 53.2109 42.1838C53.2109 46.6993 56.8601 50.3599 61.3616 50.3599Z" fill="white" stroke="#333333" stroke-width="2" stroke-miterlimit="10" stroke-linejoin="bevel"/>
<path d="M61.3594 45.9924C63.4563 45.9924 65.1563 44.2872 65.1563 42.1837C65.1563 40.0802 63.4563 38.375 61.3594 38.375C59.2624 38.375 57.5625 40.0802 57.5625 42.1837C57.5625 44.2872 59.2624 45.9924 61.3594 45.9924Z" fill="#E5E9EE" stroke="#333333" stroke-width="2" stroke-miterlimit="10" stroke-linejoin="bevel"/>
<path d="M60.0373 88.0007H57.4453V60.0703H60.0373C60.5942 60.0703 61.0498 60.5274 61.0498 61.086V86.985C61.0498 87.5436 60.5942 88.0007 60.0373 88.0007Z" fill="#E5E9EE"/>
<path d="M60.2526 72.6934H77.6574V76.2583C77.6574 78.5029 75.8451 80.3209 73.6074 80.3209H42.6047C40.3671 80.3209 38.5547 78.5029 38.5547 76.2583V72.6934" stroke="#333333" stroke-width="2" stroke-miterlimit="10" stroke-linejoin="bevel"/>
<path d="M57.556 61.1465H19V86.9337H57.556V61.1465Z" fill="white"/>
<path d="M57.556 76.889V62.1621H19V76.889" fill="#E5E9EE"/>
<path d="M57.556 76.8887C57.556 79.8646 49.6382 81.8451 49.6382 81.8451H26.9178C26.9178 81.8451 19 79.8646 19 76.8887" fill="#E5E9EE"/>
<path d="M57.556 73.0398C57.556 76.0157 49.6382 77.9962 49.6382 77.9962H26.9177C26.9177 77.9962 19 76.0157 19 73.0398V61.1465H57.556V73.0398Z" fill="white"/>
<path d="M55.9904 88.0007H53.3984V60.0703H55.9904C56.5473 60.0703 57.0029 60.5274 57.0029 61.086V86.985C57.0029 87.5436 56.5473 88.0007 55.9904 88.0007Z" fill="#E5E9EE"/>
<path d="M57.556 61.1465H19V86.9337H57.556V61.1465Z" stroke="#333333" stroke-width="2" stroke-miterlimit="10" stroke-linejoin="bevel"/>
<path d="M57.556 73.0398C57.556 76.0157 49.6382 77.9962 49.6382 77.9962H26.9177C26.9177 77.9962 19 76.0157 19 73.0398V61.1465H57.556V73.0398Z" stroke="#333333" stroke-width="2" stroke-miterlimit="10" stroke-linejoin="bevel"/>
<path d="M42.898 76.0156H33.6641V79.9868H42.898V76.0156Z" fill="white" stroke="#333333" stroke-width="2" stroke-miterlimit="10" stroke-linejoin="bevel"/>
</svg>
