<svg width="40" height="40" viewBox="0 0 40 40" fill="none" xmlns="http://www.w3.org/2000/svg">
<path d="M5.90528 16.1062C4.97014 16.4359 3.98095 16.2051 3.28906 15.5841C3.45663 14.6608 4.08906 13.8529 5.0242 13.5232C5.95933 13.1934 6.94852 13.4243 7.64041 14.0453C7.47285 14.9685 6.84041 15.7764 5.90528 16.1062Z" fill="#F5C935"/>
<path d="M27.1923 29.4818C28.8432 29.4818 30.1815 28.35 30.1815 26.9538C30.1815 25.5576 28.8432 24.4258 27.1923 24.4258C25.5414 24.4258 24.2031 25.5576 24.2031 26.9538C24.2031 28.35 25.5414 29.4818 27.1923 29.4818Z" fill="#E95046"/>
<path d="M19.0033 25.0371H17.4141V32.4728H19.0033V25.0371Z" fill="#F5C935"/>
<path d="M14.8236 25.0371H13.2344V32.4728H14.8236V25.0371Z" fill="#E95046"/>
<path d="M29.3626 25.0371H27.7734V32.4728H29.3626V25.0371Z" fill="#E95046"/>
<path d="M28.8829 26.1472C29.0397 26.1472 29.164 26.2791 29.164 26.4385C29.164 26.5979 29.0397 26.7298 28.8829 26.7298H16.8937C14.0559 26.7298 11.0938 24.3227 11.0938 21.3715V19.3271C11.0938 16.3704 14.0559 13.9688 16.8937 13.9688H29.2992C32.137 13.9688 34.4397 16.3759 34.4397 19.3271V32.4398C34.4397 32.5992 34.3154 32.7311 34.1586 32.7311H32.2667C32.11 32.7311 31.9856 32.5992 31.9856 32.4398V27.697C31.4019 27.7135 30.1154 27.6201 29.0992 26.6913C28.2019 25.867 27.7424 24.5975 27.7424 22.9158C27.7424 22.7564 27.8667 22.6245 28.0235 22.6245" fill="#F5C935"/>
<path d="M28.961 26.8338H19.3231C19.161 26.8338 19.0312 26.7019 19.0312 26.537C19.0312 26.3721 19.161 26.2402 19.3231 26.2402H28.961C29.1231 26.2402 29.2529 26.3721 29.2529 26.537C29.2529 26.7019 29.1231 26.8338 28.961 26.8338Z" fill="#474747"/>
<path d="M34.2021 33.0013H32.2076C32.0454 33.0013 31.9157 32.8694 31.9157 32.7045V27.8298C31.2994 27.8463 29.9427 27.7529 28.8724 26.7966C27.9265 25.9503 27.4454 24.6423 27.4454 22.9166C27.4454 22.7518 27.5751 22.6199 27.7373 22.6199C27.8994 22.6199 28.0292 22.7518 28.0292 22.9166C28.0292 24.4609 28.44 25.615 29.2508 26.3459C30.4508 27.4231 32.1481 27.2198 32.1643 27.2198C32.2508 27.2088 32.3319 27.2363 32.3967 27.2912C32.4616 27.3462 32.494 27.4286 32.494 27.5165V32.4132H33.8994V19.229C33.8994 16.5196 31.7319 14.3213 29.067 14.3213H16.0022C13.3373 14.3213 11.1697 16.5251 11.1697 19.229V21.3284C11.1697 24.0377 13.3373 26.236 16.0022 26.236H17.3103C17.4724 26.236 17.6022 26.3679 17.6022 26.5328C17.6022 26.6977 17.4724 26.8296 17.3103 26.8296H16.0022C13.013 26.8296 10.5859 24.3565 10.5859 21.3229V19.2235C10.5859 16.1844 13.0184 13.7168 16.0022 13.7168H29.0778C32.067 13.7168 34.494 16.1899 34.494 19.2235V32.699C34.494 32.8639 34.3643 32.9958 34.2021 32.9958V33.0013Z" fill="#474747"/>
<path d="M27.2756 29.9838C25.427 29.9838 23.9297 28.456 23.9297 26.5819C23.9297 26.4171 24.0594 26.2852 24.2216 26.2852C24.3837 26.2852 24.5135 26.4171 24.5135 26.5819C24.5135 28.1262 25.7513 29.3847 27.2702 29.3847C28.5459 29.3847 29.6486 28.5054 29.9513 27.2469C29.9891 27.0875 30.1459 26.9886 30.3081 27.0271C30.4648 27.0655 30.5621 27.2304 30.5243 27.3898C30.1567 28.9176 28.8216 29.9838 27.2702 29.9838H27.2756Z" fill="#474747"/>
<path d="M19.1856 33.0003H17.3856C17.2235 33.0003 17.0938 32.8684 17.0938 32.7036V25.1854C17.0938 25.0206 17.2235 24.8887 17.3856 24.8887C17.5478 24.8887 17.6775 25.0206 17.6775 25.1854V32.4013H18.8883V25.2349C18.8883 25.07 19.0181 24.9381 19.1802 24.9381C19.3424 24.9381 19.4721 25.07 19.4721 25.2349V32.7036C19.4721 32.8684 19.3424 33.0003 19.1802 33.0003H19.1856Z" fill="#474747"/>
<path d="M15.0294 32.9996H13.2294C13.0672 32.9996 12.9375 32.8677 12.9375 32.7028V25.8222C12.9375 25.6573 13.0672 25.5254 13.2294 25.5254C13.3916 25.5254 13.5213 25.6573 13.5213 25.8222V32.406H14.7321V26.5256C14.7321 26.3607 14.8618 26.2288 15.024 26.2288C15.1861 26.2288 15.3159 26.3607 15.3159 26.5256V32.7028C15.3159 32.8677 15.1861 32.9996 15.024 32.9996H15.0294Z" fill="#474747"/>
<path d="M29.5528 33.0006H27.7528C27.5907 33.0006 27.4609 32.8687 27.4609 32.7038V29.7856C27.4609 29.6207 27.5907 29.4888 27.7528 29.4888C27.915 29.4888 28.0447 29.6207 28.0447 29.7856V32.407H29.2555V28.6425C29.2555 28.4776 29.3853 28.3457 29.5474 28.3457C29.7096 28.3457 29.8393 28.4776 29.8393 28.6425V32.7093C29.8393 32.8742 29.7096 33.0061 29.5474 33.0061L29.5528 33.0006Z" fill="#474747"/>
<path d="M12.4558 22.3436H10.9261C9.50989 22.3436 8.33152 21.2335 8.22341 19.7991L7.75854 13.7099C7.63422 12.1106 8.88287 10.7422 10.4612 10.7422H12.9153C14.4937 10.7422 15.7369 12.1106 15.618 13.7099L15.1531 19.7991C15.045 21.2335 13.8666 22.3436 12.4504 22.3436H12.4558Z" fill="#F5C935"/>
<path d="M12.4592 22.6403H10.9294C9.37268 22.6403 8.05376 21.4038 7.93484 19.821L7.46997 13.7317C7.40511 12.8854 7.6916 12.0446 8.25916 11.4235C8.82673 10.8025 9.62673 10.4453 10.4646 10.4453H12.9186C13.7511 10.4453 14.5565 10.8025 15.124 11.4235C15.6916 12.0446 15.9781 12.8854 15.9132 13.7317L15.4484 19.821C15.3294 21.4038 14.0105 22.6403 12.4538 22.6403H12.4592ZM10.4646 11.0443C9.78349 11.0443 9.15646 11.3246 8.6916 11.8302C8.22673 12.3358 8.00511 12.9953 8.05376 13.6878L8.51862 19.777C8.61592 21.0465 9.67538 22.0413 10.924 22.0413H12.4538C13.7078 22.0413 14.7673 21.0465 14.8592 19.777L15.324 13.6878C15.3781 12.9953 15.1511 12.3358 14.6862 11.8302C14.2213 11.3246 13.5943 11.0443 12.9132 11.0443H10.4592H10.4646Z" fill="#474747"/>
<path d="M13.6675 22.2515C13.5054 22.2515 13.3756 22.1196 13.3756 21.9547C13.3756 21.0149 12.6243 20.2455 11.6946 20.2455C10.7648 20.2455 10.0135 21.0094 10.0135 21.9547C10.0135 22.1196 9.88374 22.2515 9.72158 22.2515C9.55942 22.2515 9.42969 22.1196 9.42969 21.9547C9.42969 20.6852 10.4459 19.6465 11.7 19.6465C12.954 19.6465 13.9702 20.6797 13.9702 21.9547C13.9702 22.1196 13.8405 22.2515 13.6783 22.2515H13.6675Z" fill="#474747"/>
<path d="M10.5508 15.8373C10.3887 15.8373 10.259 15.7054 10.259 15.5406C10.259 15.3922 10.14 15.2768 9.99949 15.2768C9.85895 15.2768 9.74003 15.3977 9.74003 15.5406C9.74003 15.7054 9.6103 15.8373 9.44814 15.8373C9.28598 15.8373 9.15625 15.7054 9.15625 15.5406C9.15625 15.0624 9.53463 14.6777 10.0049 14.6777C10.4752 14.6777 10.8535 15.0624 10.8535 15.5406C10.8535 15.7054 10.7238 15.8373 10.5617 15.8373H10.5508Z" fill="#474747"/>
<path d="M13.9493 15.8373C13.7871 15.8373 13.6574 15.7054 13.6574 15.5406C13.6574 15.3922 13.5385 15.2768 13.3979 15.2768C13.2574 15.2768 13.1385 15.3977 13.1385 15.5406C13.1385 15.7054 13.0087 15.8373 12.8466 15.8373C12.6844 15.8373 12.5547 15.7054 12.5547 15.5406C12.5547 15.0624 12.9331 14.6777 13.4033 14.6777C13.8736 14.6777 14.252 15.0624 14.252 15.5406C14.252 15.7054 14.1223 15.8373 13.9601 15.8373H13.9493Z" fill="#474747"/>
<path d="M8.4223 13.5123C6.29257 12.5396 5.36824 10.2369 6.2223 8.29688C6.2223 8.29688 6.96284 10.5666 9.26014 11.6163L8.4223 13.5123V13.5123Z" fill="#F5C935"/>
<path d="M8.42024 13.8093C8.3824 13.8093 8.33915 13.7983 8.30132 13.7818C7.20942 13.2872 6.37159 12.4298 5.93375 11.3802C5.49591 10.3305 5.50132 9.19287 5.94997 8.17066C5.99861 8.06625 6.11213 7.9948 6.23105 8.0003C6.34996 8.00579 6.45807 8.08823 6.49591 8.20364C6.50132 8.22562 7.23105 10.3635 9.37699 11.3417C9.52294 11.4076 9.59321 11.589 9.52294 11.7374C9.45807 11.8858 9.27969 11.9572 9.13375 11.8858C7.55537 11.1658 6.67969 9.9183 6.26348 9.12142C6.12834 9.7919 6.19861 10.4899 6.47429 11.1493C6.85267 12.0616 7.5878 12.8035 8.54456 13.2377C8.69051 13.3037 8.76078 13.485 8.69051 13.6334C8.64186 13.7433 8.53375 13.8093 8.42024 13.8093V13.8093Z" fill="#474747"/>
<path d="M14.9628 13.5127C17.0872 12.5454 18.0169 10.2372 17.1628 8.30273C17.1628 8.30273 16.4223 10.5725 14.125 11.6221L14.9628 13.5182V13.5127Z" fill="#F5C935"/>
<path d="M14.9638 13.8093C14.8503 13.8093 14.7422 13.7433 14.6935 13.6334C14.6286 13.485 14.6935 13.3037 14.8395 13.2377C15.7962 12.8035 16.5259 12.0616 16.9097 11.1493C17.1854 10.4899 17.2557 9.7919 17.1205 9.12142C16.6989 9.9183 15.8232 11.1658 14.2503 11.8858C14.1043 11.9517 13.9259 11.8858 13.8611 11.7374C13.7962 11.589 13.8611 11.4076 14.007 11.3417C16.1638 10.358 16.8773 8.22562 16.8881 8.20364C16.9259 8.08823 17.0286 8.00579 17.153 8.0003C17.2773 7.9948 17.3854 8.06624 17.4341 8.17616C17.8827 9.19287 17.8881 10.336 17.4503 11.3857C17.0124 12.4353 16.1692 13.2872 15.0827 13.7873C15.0449 13.8038 15.0016 13.8148 14.9638 13.8148V13.8093Z" fill="#474747"/>
<path d="M5.13374 16.6506C4.38239 16.6506 3.64725 16.3593 3.09049 15.8153C3.01482 15.7438 2.98239 15.6339 3.00941 15.5295C3.24725 14.4798 4.02563 13.6389 5.03644 13.3312C6.04725 13.0234 7.14995 13.2982 7.91212 14.0401C7.98779 14.1116 8.02022 14.2215 7.9932 14.3259C7.75536 15.3756 6.97698 16.2164 5.96617 16.5242C5.69049 16.6066 5.40941 16.6451 5.13374 16.6451V16.6506ZM3.62563 15.502C4.22563 16.0076 5.04725 16.1835 5.7986 15.9581C6.55536 15.7273 7.14455 15.1283 7.37698 14.3699C6.77698 13.8643 5.95536 13.6884 5.20401 13.9137C4.44725 14.1446 3.85806 14.7436 3.62563 15.502Z" fill="#474747"/>
<path d="M17.4544 16.2428C16.5085 15.9571 15.8382 15.1767 15.6328 14.2644C16.2977 13.6159 17.2761 13.3356 18.222 13.6214C19.1679 13.9072 19.8382 14.6876 20.0436 15.5998C19.3788 16.2483 18.4004 16.5286 17.4544 16.2428Z" fill="#F5C935"/>
<path d="M18.202 16.6499C17.9209 16.6499 17.6399 16.6114 17.3696 16.529C16.3588 16.2212 15.5804 15.3804 15.3426 14.3307C15.3209 14.2263 15.3534 14.1219 15.4236 14.0449C16.1858 13.2975 17.2885 13.0282 18.2993 13.336C19.3101 13.6437 20.0885 14.4846 20.3263 15.5343C20.348 15.6387 20.3155 15.7431 20.2453 15.82C19.6885 16.3641 18.9534 16.6554 18.202 16.6554V16.6499ZM15.9588 14.3637C16.1912 15.1221 16.7804 15.7266 17.5372 15.9519C18.2885 16.1773 19.1101 16.0069 19.7101 15.4958C19.4777 14.7374 18.8885 14.1329 18.1317 13.9075C17.3804 13.6767 16.5588 13.8526 15.9588 14.3637V14.3637Z" fill="#474747"/>
<path d="M36.7033 26.2454C36.5412 26.2454 36.4114 26.1135 36.4114 25.9487V21.4971C36.4114 17.5402 33.2439 14.3142 29.3466 14.3142C29.1844 14.3142 29.0547 14.1823 29.0547 14.0175C29.0547 13.8526 29.1844 13.7207 29.3466 13.7207C33.5682 13.7207 36.9952 17.2105 36.9952 21.4971V25.9487C36.9952 26.1135 36.8655 26.2454 36.7033 26.2454Z" fill="#474747"/>
<path d="M14.0255 18.6504H9.29578C8.28674 18.6504 7.46875 19.482 7.46875 20.5079V20.5134C7.46875 21.5393 8.28674 22.371 9.29578 22.371H14.0255C15.0345 22.371 15.8525 21.5393 15.8525 20.5134V20.5079C15.8525 19.482 15.0345 18.6504 14.0255 18.6504Z" fill="#59B173" stroke="#474747" stroke-miterlimit="10"/>
<path d="M10.4918 20.514C10.4918 20.9537 10.1405 21.3109 9.70807 21.3109C9.58374 21.3109 9.48644 21.2065 9.48644 21.0856C9.48644 20.9647 9.58915 20.8603 9.70807 20.8603C9.89185 20.8603 10.0432 20.7064 10.0432 20.5195C10.0432 20.3327 9.89185 20.1788 9.70807 20.1788C9.52428 20.1788 9.37293 20.3327 9.37293 20.5195C9.37293 20.6459 9.27023 20.7449 9.15131 20.7449C9.03239 20.7449 8.92969 20.6404 8.92969 20.5195C8.92969 20.0799 9.28104 19.7227 9.71347 19.7227C10.1459 19.7227 10.4973 20.0799 10.4973 20.5195L10.4918 20.514Z" fill="#474747"/>
<path d="M14.2887 20.5133C14.2887 20.6397 14.186 20.7386 14.0671 20.7386C13.9482 20.7386 13.8455 20.6342 13.8455 20.5133C13.8455 20.3265 13.6941 20.1726 13.5103 20.1726C13.3266 20.1726 13.1752 20.3265 13.1752 20.5133C13.1752 20.7002 13.3266 20.854 13.5103 20.854C13.6347 20.854 13.732 20.9585 13.732 21.0794C13.732 21.2003 13.6293 21.3047 13.5103 21.3047C13.0779 21.3047 12.7266 20.9475 12.7266 20.5078C12.7266 20.0682 13.0779 19.7109 13.5103 19.7109C13.9428 19.7109 14.2941 20.0682 14.2941 20.5078L14.2887 20.5133Z" fill="#474747"/>
</svg>
