<svg width="39" height="34" viewBox="0 0 39 34" fill="none" xmlns="http://www.w3.org/2000/svg">
<path d="M18.5907 5.58909L19.2975 6.29526L20.0043 5.58909L21.6204 3.97438C23.3205 2.27584 25.626 1.30664 28.0516 1.30664C30.4733 1.30664 32.7659 2.27187 34.4589 4.08416L34.4707 4.09675L34.4829 4.10894C38.1323 7.75513 38.1323 13.5804 34.4829 17.2265L34.4799 17.2295L19.2975 32.527L4.11507 17.2295L4.11208 17.2266C0.462639 13.5804 0.462639 7.75513 4.11208 4.10894L4.24676 3.97438C7.76 0.464262 13.5826 0.464205 17.0973 4.09686L17.1032 4.10295L17.1092 4.10894L18.5907 5.58909Z" stroke="#FF6B8F" stroke-opacity="0.94" stroke-width="2"/>
</svg>
