<svg width="40" height="40" viewBox="0 0 40 40" fill="none" xmlns="http://www.w3.org/2000/svg">
<rect x="40" y="40" width="40" height="40" transform="rotate(180 40 40)" fill="white"/>
<path d="M35 33.4833L26.8993 25.3826C28.846 23.0456 29.8167 20.0481 29.6096 17.0136C29.4024 13.9792 28.0334 11.1414 25.7872 9.09061C23.5411 7.03983 20.5908 5.93396 17.55 6.00305C14.5093 6.07214 11.6122 7.31088 9.46156 9.46156C7.31088 11.6122 6.07214 14.5093 6.00305 17.55C5.93396 20.5908 7.03983 23.5411 9.09061 25.7872C11.1414 28.0334 13.9792 29.4024 17.0136 29.6096C20.0481 29.8167 23.0456 28.846 25.3826 26.8993L33.4833 35L35 33.4833ZM8.18367 17.8375C8.18367 15.9282 8.74986 14.0617 9.81064 12.4741C10.8714 10.8866 12.3791 9.6492 14.1432 8.91852C15.9072 8.18784 17.8483 7.99666 19.7209 8.36916C21.5936 8.74166 23.3138 9.6611 24.6639 11.0112C26.014 12.3613 26.9334 14.0815 27.3059 15.9542C27.6784 17.8268 27.4872 19.7679 26.7566 21.5319C26.0259 23.2959 24.7885 24.8037 23.201 25.8645C21.6134 26.9252 19.7469 27.4914 17.8375 27.4914C15.278 27.4886 12.8242 26.4706 11.0144 24.6607C9.20452 22.8509 8.1865 20.397 8.18367 17.8375V17.8375Z" fill="#67686C"/>
</svg>
