<svg width="40" height="40" viewBox="0 0 40 40" fill="none" xmlns="http://www.w3.org/2000/svg">
<rect x="40" y="40" width="40" height="40" transform="rotate(180 40 40)" fill="white"/>
<path d="M8.48245 7.12842C8.09192 6.7379 7.55584 6.81154 7.28508 7.29289C7.01432 7.77425 7.1114 8.48105 7.50193 8.87158L8.48245 7.12842ZM31.5436 32.9132C31.9341 33.3037 32.4702 33.2301 32.7409 32.7487C33.0117 32.2674 32.9146 31.5606 32.5241 31.1701L31.5436 32.9132ZM7.50193 8.87158L31.5436 32.9132L32.5241 31.1701L8.48245 7.12842L7.50193 8.87158Z" fill="#67686C"/>
<path d="M7.50193 31.1284C7.1114 31.5189 7.01432 32.2257 7.28508 32.7071C7.55584 33.1885 8.09192 33.2621 8.48245 32.8716L7.50193 31.1284ZM32.5241 8.82995C32.9146 8.43943 33.0117 7.73263 32.7409 7.25127C32.4702 6.76991 31.9341 6.69627 31.5436 7.0868L32.5241 8.82995ZM8.48245 32.8716L32.5241 8.82995L31.5436 7.0868L7.50193 31.1284L8.48245 32.8716Z" fill="#67686C"/>
</svg>
