<svg width="31" height="30" viewBox="0 0 31 30" fill="none" xmlns="http://www.w3.org/2000/svg">
<path d="M17.2926 29.3801L15.381 28.2666L19.7755 20.4717H26.3673C26.9501 20.4717 27.509 20.237 27.9211 19.8194C28.3331 19.4017 28.5646 18.8353 28.5646 18.2446V4.88195C28.5646 4.29128 28.3331 3.72481 27.9211 3.30714C27.509 2.88948 26.9501 2.65484 26.3673 2.65484H4.39456C3.8118 2.65484 3.25292 2.88948 2.84085 3.30714C2.42878 3.72481 2.19728 4.29128 2.19728 4.88195V18.2446C2.19728 18.8353 2.42878 19.4017 2.84085 19.8194C3.25292 20.237 3.8118 20.4717 4.39456 20.4717H14.2823V22.6988H4.39456C3.22905 22.6988 2.11128 22.2295 1.28714 21.3942C0.462997 20.5589 0 19.4259 0 18.2446V4.88195C0 3.70062 0.462997 2.56767 1.28714 1.73234C2.11128 0.897016 3.22905 0.427734 4.39456 0.427734H26.3673C27.5329 0.427734 28.6506 0.897016 29.4748 1.73234C30.2989 2.56767 30.7619 3.70062 30.7619 4.88195V18.2446C30.7619 19.4259 30.2989 20.5589 29.4748 21.3942C28.6506 22.2295 27.5329 22.6988 26.3673 22.6988H21.0499L17.2926 29.3801Z" fill="#67686C"/>
<path d="M6.58594 7.10742H24.1642V9.33453H6.58594V7.10742ZM6.58594 13.7887H17.5723V16.0158H6.58594V13.7887Z" fill="#67686C"/>
</svg>
