<svg width="40" height="40" viewBox="0 0 40 40" fill="none" xmlns="http://www.w3.org/2000/svg">
<path d="M11.4578 13.3689C12.5089 13.3689 13.3609 12.515 13.3609 11.4618C13.3609 10.4085 12.5089 9.55469 11.4578 9.55469C10.4067 9.55469 9.55469 10.4085 9.55469 11.4618C9.55469 12.515 10.4067 13.3689 11.4578 13.3689Z" fill="#68A7DB"/>
<path d="M18.6219 15.2204C19.6729 15.2204 20.525 14.3666 20.525 13.3133C20.525 12.2601 19.6729 11.4062 18.6219 11.4062C17.5708 11.4062 16.7188 12.2601 16.7188 13.3133C16.7188 14.3666 17.5708 15.2204 18.6219 15.2204Z" fill="#5AB977"/>
<path d="M20.4734 22.4314C21.5245 22.4314 22.3766 21.5775 22.3766 20.5243C22.3766 19.471 21.5245 18.6172 20.4734 18.6172C19.4224 18.6172 18.5703 19.471 18.5703 20.5243C18.5703 21.5775 19.4224 22.4314 20.4734 22.4314Z" fill="#E95046"/>
<path d="M15.2781 27.6384C16.3292 27.6384 17.1813 26.7846 17.1813 25.7313C17.1813 24.6781 16.3292 23.8242 15.2781 23.8242C14.2271 23.8242 13.375 24.6781 13.375 25.7313C13.375 26.7846 14.2271 27.6384 15.2781 27.6384Z" fill="#F5C935"/>
<path d="M8.12969 25.6286C9.18076 25.6286 10.0328 24.7748 10.0328 23.7216C10.0328 22.6683 9.18076 21.8145 8.12969 21.8145C7.07862 21.8145 6.22656 22.6683 6.22656 23.7216C6.22656 24.7748 7.07862 25.6286 8.12969 25.6286Z" fill="#5AB977"/>
<path d="M17.0828 34.7458C18.1339 34.7458 18.9859 33.892 18.9859 32.8387C18.9859 31.7855 18.1339 30.9316 17.0828 30.9316C16.0317 30.9316 15.1797 31.7855 15.1797 32.8387C15.1797 33.892 16.0317 34.7458 17.0828 34.7458Z" fill="#5AB977"/>
<path d="M27.6219 24.4958C28.6729 24.4958 29.525 23.642 29.525 22.5887C29.525 21.5355 28.6729 20.6816 27.6219 20.6816C26.5708 20.6816 25.7188 21.5355 25.7188 22.5887C25.7188 23.642 26.5708 24.4958 27.6219 24.4958Z" fill="#68A7DB"/>
<path d="M32.8641 19.1853C33.9151 19.1853 34.7672 18.3315 34.7672 17.2782C34.7672 16.2249 33.9151 15.3711 32.8641 15.3711C31.813 15.3711 30.9609 16.2249 30.9609 17.2782C30.9609 18.3315 31.813 19.1853 32.8641 19.1853Z" fill="#F5C935"/>
<path d="M30.9656 11.9763C32.0167 11.9763 32.8688 11.1225 32.8688 10.0692C32.8688 9.01595 32.0167 8.16211 30.9656 8.16211C29.9146 8.16211 29.0625 9.01595 29.0625 10.0692C29.0625 11.1225 29.9146 11.9763 30.9656 11.9763Z" fill="#5AB977"/>
<path d="M23.8641 10.0134C24.9151 10.0134 25.7672 9.15958 25.7672 8.10632C25.7672 7.05306 24.9151 6.19922 23.8641 6.19922C22.813 6.19922 21.9609 7.05306 21.9609 8.10632C21.9609 9.15958 22.813 10.0134 23.8641 10.0134Z" fill="#F5C935"/>
<path d="M9.73276 11.4008C9.96839 11.4674 10.2101 11.3281 10.2705 11.092C10.4517 10.42 11.1465 10.0144 11.8232 10.202C12.4938 10.3837 12.8926 11.0799 12.7113 11.758C12.6207 12.0849 12.4092 12.3574 12.1192 12.5269C11.8292 12.6964 11.4848 12.7388 11.1586 12.654C10.923 12.5935 10.6813 12.7267 10.6209 12.9628C10.5544 13.1989 10.6934 13.4411 10.929 13.5016C11.1163 13.5501 11.3036 13.5743 11.4909 13.5743C12.2884 13.5743 13.0315 13.1202 13.394 12.3998L16.4632 13.2352C16.439 13.6469 16.5296 14.0586 16.7411 14.4279C17.0251 14.9244 17.4903 15.2816 18.0401 15.4329C18.2273 15.4814 18.4146 15.5117 18.608 15.5117C18.9765 15.5117 19.339 15.4148 19.6713 15.2271C20.1667 14.9425 20.5232 14.4824 20.6742 13.9254C20.8253 13.3745 20.7528 12.7933 20.4628 12.2968C20.4446 12.2605 20.4144 12.2363 20.3963 12.2L22.674 9.92961C22.8673 10.0567 23.0728 10.1597 23.3023 10.2263C23.4896 10.2747 23.6769 10.2989 23.8642 10.2989C24.6617 10.2989 25.4109 9.84485 25.7734 9.12439L28.8365 9.95988C28.8123 10.3716 28.903 10.7833 29.1144 11.1526C29.3984 11.649 29.8576 12.0062 30.4134 12.1576C30.6007 12.206 30.788 12.2363 30.9813 12.2363C31.0176 12.2363 31.0478 12.2363 31.084 12.2302L31.2411 12.8236C31.2955 13.0233 31.4707 13.1505 31.664 13.1505C31.7003 13.1505 31.7365 13.1505 31.7788 13.1384C32.0144 13.0778 32.1534 12.8357 32.093 12.5995L31.9359 12.0062C31.9721 11.9881 32.0084 11.9699 32.0507 11.9517C32.5461 11.6672 32.9026 11.2071 33.0536 10.6501C33.2046 10.0991 33.1321 9.51792 32.8421 9.02146C32.5582 8.52501 32.099 8.16781 31.5432 8.01645C30.9934 7.8651 30.4134 7.9438 29.918 8.22835C29.5494 8.44025 29.2594 8.74902 29.0782 9.11833L25.6284 8.17992C25.3988 8.11938 25.1571 8.25257 25.0907 8.48869V8.51896C24.8913 9.17888 24.2026 9.56635 23.538 9.38472C22.8673 9.20309 22.4686 8.50685 22.6498 7.82877C22.7405 7.50184 22.9459 7.2294 23.2419 7.05988C23.5319 6.89036 23.8763 6.84798 24.2026 6.93879C24.4382 6.99933 24.6798 6.86614 24.7403 6.63002C24.8067 6.39391 24.6678 6.15174 24.4321 6.09119C23.8823 5.93984 23.3023 6.01854 22.8069 6.30309C22.3115 6.58764 21.9551 7.04777 21.804 7.60476C21.653 8.1557 21.7255 8.73691 22.0155 9.23336C22.0336 9.26364 22.0578 9.28785 22.0698 9.31207L19.7861 11.5824C19.5988 11.4613 19.3994 11.3584 19.1759 11.2979C18.179 11.0254 17.158 11.5098 16.7048 12.3937L13.6357 11.5582C13.6961 10.5653 13.0557 9.63295 12.0588 9.3605C10.9169 9.05174 9.73881 9.72982 9.43068 10.868C9.36422 11.1041 9.50318 11.3463 9.73881 11.4069L9.73276 11.4008ZM29.7548 9.74798C29.8455 9.42105 30.0509 9.1486 30.3469 8.97908C30.5403 8.87011 30.7578 8.80956 30.9753 8.80956C31.084 8.80956 31.1988 8.82167 31.3076 8.85194C31.6338 8.94276 31.9057 9.1486 32.0748 9.44526C32.244 9.74192 32.2863 10.081 32.1957 10.4079C32.1051 10.7348 31.8996 11.0073 31.6036 11.1768C31.3136 11.3463 30.9692 11.3887 30.643 11.2979C30.3167 11.2071 30.0448 11.0012 29.8757 10.7046C29.7065 10.4079 29.6642 10.0689 29.7548 9.74192V9.74798ZM17.3876 13.0233C17.5386 12.4603 18.0521 12.091 18.608 12.091C18.7167 12.091 18.8255 12.1031 18.9403 12.1334C19.2665 12.2242 19.5384 12.43 19.7076 12.7267C19.8767 13.0233 19.919 13.3624 19.8284 13.6893C19.7378 14.0162 19.5323 14.2887 19.2363 14.4582C18.9463 14.6277 18.6019 14.6701 18.2757 14.5793C17.9494 14.4885 17.6776 14.2826 17.5084 13.986C17.3392 13.6954 17.2969 13.3503 17.3876 13.0233Z" fill="#474747"/>
<path d="M29.8959 19.5563L28.7903 20.6582C28.603 20.5371 28.4036 20.4342 28.1861 20.3797C27.6303 20.2283 27.0563 20.301 26.5609 20.5916C26.1924 20.8035 25.9024 21.1123 25.7151 21.4816L22.6459 20.6461C22.7063 19.6532 22.0659 18.7208 21.0691 18.4484C20.8395 18.3878 20.6099 18.3757 20.3803 18.3878L19.9634 16.8016C19.903 16.5655 19.6613 16.4263 19.4257 16.4868C19.1901 16.5473 19.0511 16.7895 19.1116 17.0256L19.5284 18.6118C19.0088 18.8782 18.598 19.3444 18.4349 19.9498C18.2838 20.5068 18.3624 21.082 18.6463 21.5784C18.6645 21.6087 18.6886 21.6329 18.7007 21.6572L16.417 23.9336C16.2297 23.8125 16.0303 23.7096 15.8068 23.649C15.257 23.4977 14.677 23.5764 14.1816 23.8609C13.813 24.0728 13.523 24.3816 13.3418 24.7509L10.2726 23.9154C10.2968 23.5037 10.2061 23.092 9.99468 22.7227C9.71072 22.2263 9.25156 21.8691 8.69572 21.7177C8.14593 21.5663 7.56593 21.645 7.07051 21.9296C6.5751 22.2141 6.21864 22.6743 6.0676 23.2313C5.91656 23.7822 5.9951 24.3634 6.27906 24.8599C6.56301 25.3563 7.02218 25.7135 7.57801 25.8649C7.61426 25.877 7.65656 25.883 7.69281 25.883C7.88614 25.883 8.06135 25.7559 8.11572 25.5561C8.17614 25.32 8.04322 25.0778 7.8076 25.0173C7.48135 24.9265 7.20947 24.7206 7.04031 24.424C6.87114 24.1334 6.82885 23.7883 6.91947 23.4613C7.0101 23.1344 7.21551 22.862 7.51156 22.6924C7.8076 22.5229 8.14593 22.4805 8.47218 22.5713C8.79843 22.6622 9.07031 22.868 9.23947 23.1647C9.40864 23.4553 9.45093 23.8004 9.36031 24.1273C9.29385 24.3634 9.43281 24.6056 9.66843 24.6661L13.1122 25.6045C13.088 26.0162 13.1786 26.4279 13.3901 26.7972C13.6741 27.2937 14.1332 27.6509 14.6891 27.8022C14.8763 27.8567 15.0636 27.8749 15.2509 27.8749C15.2872 27.8749 15.3234 27.8688 15.3597 27.8628L16.1753 30.9505C16.1753 30.9505 16.127 30.9686 16.1028 30.9868C15.6074 31.2713 15.2509 31.7315 15.0999 32.2885C14.7918 33.4327 15.4684 34.6133 16.6043 34.9221C16.7916 34.9705 16.9788 34.9947 17.1661 34.9947C18.1086 34.9947 18.9786 34.3651 19.2324 33.4085C19.3834 32.8515 19.3049 32.2764 19.0209 31.7799C18.737 31.2835 18.2778 30.9263 17.722 30.7749C17.4863 30.7083 17.2507 30.6962 17.0151 30.7144L16.2055 27.6388C16.7311 27.3724 17.148 26.9002 17.3111 26.2887C17.4743 25.6772 17.3534 25.0597 17.0332 24.5632L19.3109 22.2929C19.5043 22.42 19.7097 22.5229 19.9393 22.5895C20.1266 22.644 20.3138 22.6682 20.5072 22.6682C20.8757 22.6682 21.2382 22.5713 21.5705 22.3837C21.9391 22.1718 22.2291 21.863 22.4163 21.4937L25.4855 22.3292C25.4613 22.7409 25.552 23.1526 25.7634 23.5219C26.0474 24.0183 26.5126 24.3755 27.0624 24.5269C27.0986 24.539 27.1409 24.545 27.1772 24.545C27.3705 24.545 27.5457 24.4179 27.6001 24.2181C27.6605 23.982 27.5276 23.7398 27.292 23.6793C26.9657 23.5885 26.6938 23.3826 26.5247 23.086C26.3555 22.7954 26.3132 22.4503 26.4038 22.1233C26.4945 21.7964 26.7059 21.524 26.9959 21.3544C27.2859 21.1849 27.6303 21.1425 27.9566 21.2334C28.2828 21.3242 28.5547 21.53 28.7238 21.8267C28.893 22.1233 28.9353 22.4624 28.8447 22.7893C28.7782 23.0254 28.9172 23.2676 29.1528 23.3281C29.3884 23.3887 29.6301 23.2555 29.6905 23.0194C29.8416 22.4684 29.7691 21.8872 29.4791 21.3908C29.4609 21.3544 29.4307 21.3242 29.4066 21.2878L30.5061 20.192C30.6753 20.0225 30.6813 19.744 30.5061 19.5684C30.337 19.3989 30.0591 19.3929 29.8838 19.5684L29.8959 19.5563ZM16.5438 31.7496C16.7372 31.6407 16.9547 31.5801 17.1722 31.5801C17.2809 31.5801 17.3957 31.5983 17.5045 31.6225C17.8307 31.7133 18.1026 31.9192 18.2718 32.2158C18.4409 32.5125 18.4832 32.8515 18.3926 33.1784C18.2113 33.8505 17.5105 34.2501 16.8399 34.0684C16.1693 33.8868 15.7705 33.1906 15.9518 32.5125C16.0424 32.1855 16.2478 31.9131 16.5438 31.7436V31.7496ZM16.4774 26.0526C16.2961 26.7246 15.6013 27.1242 14.9247 26.9425C14.5984 26.8517 14.3266 26.6459 14.1574 26.3492C13.9882 26.0526 13.9459 25.7135 14.0366 25.3866C14.1272 25.0597 14.3326 24.7872 14.6286 24.6177C14.822 24.5087 15.0395 24.4482 15.257 24.4482C15.3657 24.4482 15.4805 24.4603 15.5893 24.4906C16.2599 24.6722 16.6586 25.3684 16.4774 26.0465V26.0526ZM21.7336 20.8459C21.643 21.1728 21.4376 21.4453 21.1416 21.6148C20.8516 21.7843 20.5072 21.8267 20.1809 21.7359C19.8547 21.645 19.5828 21.4392 19.4136 21.1425C19.2445 20.8459 19.2022 20.5068 19.2928 20.1799C19.4438 19.6169 19.9574 19.2475 20.5132 19.2475C20.622 19.2475 20.7368 19.2597 20.8455 19.2899C21.5161 19.4716 21.9149 20.1678 21.7336 20.8459Z" fill="#474747"/>
<path d="M34.7195 16.165C34.4355 15.6685 33.9763 15.3113 33.4205 15.16C33.197 15.0994 32.9734 15.0873 32.7499 15.0994L32.5807 14.4637C32.5203 14.2276 32.2786 14.0884 32.043 14.1489C31.8074 14.2094 31.6684 14.4516 31.7288 14.6877L31.898 15.3174C31.3724 15.5838 30.9555 16.056 30.7863 16.6675C30.6353 17.2184 30.7138 17.7996 30.9978 18.2961C31.2818 18.7925 31.7409 19.1497 32.2968 19.3011C32.4841 19.3495 32.6713 19.3798 32.8586 19.3798C33.2272 19.3798 33.5897 19.2829 33.922 19.0953C34.4174 18.8107 34.7738 18.3506 34.9249 17.7936C35.0759 17.2426 35.0034 16.6614 34.7134 16.165H34.7195ZM34.0791 17.5635C33.9884 17.8905 33.777 18.1629 33.487 18.3324C33.197 18.5019 32.8526 18.5443 32.5263 18.4535C32.2001 18.3627 31.9282 18.1568 31.7591 17.8602C31.5899 17.5696 31.5476 17.2245 31.6322 16.8975C31.7832 16.3345 32.2968 15.9652 32.8526 15.9652C32.9613 15.9652 33.0701 15.9773 33.1849 16.0076C33.5111 16.0984 33.783 16.3042 33.9522 16.6009C34.1213 16.8975 34.1636 17.2366 34.073 17.5635H34.0791Z" fill="#474747"/>
</svg>
