<svg width="50" height="50" viewBox="0 0 50 50" fill="none" xmlns="http://www.w3.org/2000/svg">
<circle cx="25" cy="25" r="24.25" fill="white" stroke="#C4C4C4" stroke-width="1.5"/>
<g clip-path="url(#clip0_1379_3902)">
<path d="M30.1708 25.4743L36.5781 19.9077V30.9775L30.1708 25.4743ZM21.9146 26.4171L24.1646 28.3702C24.5177 28.6702 24.9781 28.8514 25.4813 28.8514H25.499H25.4979H25.5125C26.0167 28.8514 26.4771 28.6691 26.8344 28.3671L26.8313 28.3691L29.0813 26.416L35.9208 32.29H15.0781L21.9146 26.4171ZM15.0688 18.5879H35.9333L25.9115 27.2921C25.7988 27.3812 25.6593 27.4296 25.5156 27.4296H25.501H25.5021H25.4875C25.3433 27.4297 25.2034 27.3809 25.0906 27.291L25.0917 27.2921L15.0688 18.5879ZM14.4219 19.9066L20.8281 25.4733L14.4219 30.9733V19.9066ZM36.9219 17.3639C36.6719 17.2389 36.3781 17.166 36.0667 17.166H14.9365C14.6345 17.1661 14.3368 17.2363 14.0667 17.3712L14.0781 17.366C13.7548 17.5255 13.4824 17.7722 13.2919 18.0784C13.1014 18.3845 13.0003 18.7378 13 19.0983V31.7775C13.0006 32.2906 13.2046 32.7826 13.5675 33.1454C13.9303 33.5083 14.4223 33.7123 14.9354 33.7129H36.0635C36.5767 33.7123 37.0686 33.5083 37.4315 33.1454C37.7943 32.7826 37.9984 32.2906 37.999 31.7775V19.1025V19.0983C37.999 18.341 37.5625 17.6848 36.9271 17.3691L36.9156 17.3639H36.9219Z" fill="#C4C4C4"/>
</g>
<defs>
<clipPath id="clip0_1379_3902">
<rect width="25" height="25" fill="white" transform="translate(13 13)"/>
</clipPath>
</defs>
</svg>
