<svg width="37" height="34" viewBox="0 0 37 34" fill="none" xmlns="http://www.w3.org/2000/svg">
<path d="M20.3892 33.9466L18.1681 32.6527L23.2742 23.5958H30.9333C31.6104 23.5958 32.2597 23.3232 32.7385 22.8379C33.2173 22.3526 33.4863 21.6944 33.4863 21.0081V5.48202C33.4863 4.79572 33.2173 4.13753 32.7385 3.65225C32.2597 3.16696 31.6104 2.89433 30.9333 2.89433H5.40294C4.72583 2.89433 4.07646 3.16696 3.59767 3.65225C3.11889 4.13753 2.84991 4.79572 2.84991 5.48202V21.0081C2.84991 21.6944 3.11889 22.3526 3.59767 22.8379C4.07646 23.3232 4.72583 23.5958 5.40294 23.5958H16.8916V26.1835H5.40294C4.04873 26.1835 2.74998 25.6383 1.79241 24.6677C0.834834 23.6971 0.296875 22.3807 0.296875 21.0081V5.48202C0.296875 4.10942 0.834834 2.79304 1.79241 1.82247C2.74998 0.851902 4.04873 0.306641 5.40294 0.306641H30.9333C32.2875 0.306641 33.5862 0.851902 34.5438 1.82247C35.5014 2.79304 36.0393 4.10942 36.0393 5.48202V21.0081C36.0393 22.3807 35.5014 23.6971 34.5438 24.6677C33.5862 25.6383 32.2875 26.1835 30.9333 26.1835H24.7549L20.3892 33.9466Z" fill="#749DF8"/>
<path d="M7.95312 8.06836H28.3774V10.656H7.95312V8.06836ZM7.95312 15.8314H20.7183V18.4191H7.95312V15.8314Z" fill="#749DF8"/>
</svg>
