<svg width="28" height="27" viewBox="0 0 28 27" fill="none" xmlns="http://www.w3.org/2000/svg">
<path d="M15.4723 26.7602L13.7619 25.7639L17.6939 18.7895H23.5918C24.1132 18.7895 24.6133 18.5796 24.982 18.2059C25.3507 17.8322 25.5578 17.3253 25.5578 16.7969V4.84082C25.5578 4.31233 25.3507 3.80548 24.982 3.43178C24.6133 3.05808 24.1132 2.84814 23.5918 2.84814H3.93197C3.41056 2.84814 2.9105 3.05808 2.54181 3.43178C2.17312 3.80548 1.96599 4.31233 1.96599 4.84082V16.7969C1.96599 17.3253 2.17312 17.8322 2.54181 18.2059C2.9105 18.5796 3.41056 18.7895 3.93197 18.7895H12.7789V20.7822H3.93197C2.88915 20.7822 1.88904 20.3623 1.15165 19.6149C0.41426 18.8675 0 17.8538 0 16.7969V4.84082C0 3.78384 0.41426 2.77015 1.15165 2.02275C1.88904 1.27535 2.88915 0.855469 3.93197 0.855469H23.5918C24.6347 0.855469 25.6348 1.27535 26.3722 2.02275C27.1095 2.77015 27.5238 3.78384 27.5238 4.84082V16.7969C27.5238 17.8538 27.1095 18.8675 26.3722 19.6149C25.6348 20.3623 24.6347 20.7822 23.5918 20.7822H18.8341L15.4723 26.7602Z" fill="#C4C4C4"/>
<path d="M5.89062 6.83203H21.6185V8.82471H5.89062V6.83203ZM5.89062 12.8101H15.7206V14.8027H5.89062V12.8101Z" fill="#C4C4C4"/>
</svg>
