<svg width="615" height="152" viewBox="0 0 615 152" fill="none" xmlns="http://www.w3.org/2000/svg">
<path d="M31.0306 78.6H3.04688L8.07938 89.32V138.36C8.07938 139.56 8.46063 140.44 9.22312 141.32L13.4931 146.04C14.2556 146.92 15.1706 147.32 16.3144 147.32H31.0306C44.9844 147.32 55.2781 142.6 55.2781 130.68V95.24C55.2781 83.32 44.9844 78.6 31.0306 78.6ZM39.4181 126.12C39.4181 130.36 35.6056 132.52 31.0306 132.52H24.8544V93.4H31.0306C35.6056 93.4 39.4181 95.56 39.4181 99.8V126.12Z" fill="#263866"/>
<path d="M81.9078 105.96C72.3766 102.36 71.2328 100.6 71.2328 97.56C71.2328 94.6 72.9103 93.4 77.7141 93.4H99.2928L95.8616 78.6H77.7141C62.0066 78.6 55.2203 83.88 55.2203 96.2C55.2203 109.64 57.4316 112.68 73.5203 118.84C83.2803 122.6 84.5004 124.12 84.5004 127.96C84.5004 131.16 82.5941 132.52 77.5616 132.52H55.7541V147.32H77.5616C93.6504 147.32 100.513 141.96 100.513 129.32C100.513 115.16 98.2253 112.12 81.9078 105.96Z" fill="#263866"/>
<path d="M124.762 148.52C141.537 148.52 148.171 141.72 149.925 126.2L133.912 123.8C132.692 130.28 130.633 133.72 125.525 133.72C121.483 133.72 118.052 131.56 118.052 127.32V98.6C118.052 94.36 121.483 92.2 125.525 92.2C130.176 92.2 131.93 95.32 133.073 101.32L149.162 98.92C147.485 83.96 141.003 77.4 124.762 77.4C111.571 77.4 101.277 82.92 101.277 94.84V131.08C101.277 143 111.571 148.52 124.762 148.52Z" fill="#263866"/>
<path d="M190.531 109.24L197.546 122.52H215.388L204.103 101.8L194.877 100.68L196.936 96.6H213.482V82.6H199.452V75.8H178.788L181.838 82.6H168.647V96.6H179.856L166.741 122.52H183.821L190.531 109.24ZM235.671 133V77.4H215.007L218.896 86.12V133H235.671ZM188.777 126.28H171.773V142.76C171.773 143.96 172.154 144.84 172.917 145.72L177.187 150.44C177.949 151.32 178.864 151.72 180.008 151.72H236.433V137.72H188.777V126.28Z" fill="#263866"/>
<path d="M270.288 114.2V109.56H271.889C278.066 109.56 282.412 105.16 282.412 99.32C282.412 96.52 281.878 94.6 281.192 93H285.615V80.6H270.288V75H250.387L252.903 80.6H238.187V93H242.609C241.923 94.6 241.389 96.52 241.389 99.32C241.389 105.16 245.736 109.56 251.912 109.56H253.513V114.2H238.034V127H286.072V114.2H270.288ZM305.134 77.4H284.471L288.359 86.12V134.92H305.134V111.8H313.064V97.8H305.134V77.4ZM266.018 93C267.467 93 268.535 94.12 268.535 95.64C268.535 97.16 267.467 98.28 266.018 98.28H257.783C256.334 98.28 255.267 97.16 255.267 95.64C255.267 94.12 256.334 93 257.783 93H266.018ZM244.211 130.2V142.76C244.211 143.96 244.592 144.84 245.354 145.72L249.624 150.44C250.387 151.32 251.302 151.72 252.446 151.72H305.897V138.92H261.214V130.2H244.211Z" fill="#263866"/>
<path d="M349.664 113.4H363.771V117H380.546V77.4H359.882L361.865 81.8H353.096L351.571 95.8H363.771V99.4H351.113L349.664 113.4ZM346.691 116.36L349.664 89.16C349.817 87.96 349.436 87.08 348.749 86.12L344.327 80.04C343.641 79.08 342.726 78.6 341.506 78.6H311.158L313.446 93.4H332.813L330.145 117.4L346.691 116.36ZM330.449 119.4C321.223 119.4 315.504 126.2 315.504 135.56C315.504 144.92 321.223 151.72 330.449 151.72H367.507C377.115 151.72 382.452 145 382.452 135.56C382.452 126.12 377.115 119.4 367.507 119.4H330.449ZM335.406 138.12C333.499 138.12 332.279 137.16 332.279 135.56C332.279 133.96 333.499 133 335.406 133H362.551C364.457 133 365.677 133.96 365.677 135.56C365.677 137.16 364.457 138.12 362.551 138.12H335.406Z" fill="#263866"/>
<path d="M468.233 77.4H447.57L451.458 86.12V151.72H468.233V77.4ZM443.147 120.6V87.56C443.147 86.36 442.766 85.48 442.003 84.6L437.733 79.88C436.971 79 436.056 78.6 434.912 78.6H400.371V93H426.372V105.8H400.371V140.36C400.371 141.56 400.752 142.44 401.514 143.32L405.784 148.04C406.547 148.92 407.462 149.32 408.606 149.32H446.197V134.52H417.146V120.6H443.147Z" fill="#263866"/>
<path d="M540.671 118.6V77.4H520.007L523.896 86.12V118.6H540.671ZM516.652 116.44V78.6H500.639V84.76H488.821V78.6H468.919L472.808 87.32V107.48C472.808 108.68 473.189 109.56 473.952 110.44L478.222 115.16C478.984 116.04 479.9 116.44 481.043 116.44H516.652ZM500.639 97.56V103.64H488.821V97.56H500.639ZM490.574 121C481.348 121 475.629 127.48 475.629 136.36C475.629 145.24 481.348 151.72 490.574 151.72H527.632C537.239 151.72 542.577 145.32 542.577 136.36C542.577 127.4 537.239 121 527.632 121H490.574ZM495.531 138.92C493.624 138.92 492.404 137.96 492.404 136.36C492.404 134.76 493.624 133.8 495.531 133.8H522.676C524.582 133.8 525.802 134.76 525.802 136.36C525.802 137.96 524.582 138.92 522.676 138.92H495.531Z" fill="#263866"/>
<path d="M599.764 91.08H596.104V77.4H577.728L581.617 85.72V118.6H596.104V104.68H599.764V118.6H614.252V77.4H599.764V91.08ZM579.329 117.8V106.6H558.589V103.56H578.567V87.56C578.567 86.36 578.186 85.48 577.423 84.6L573.153 79.88C572.391 79 571.476 78.6 570.332 78.6H544.102V89.8H564.079V92.76H544.102V108.84C544.102 110.04 544.483 110.92 545.246 111.8L549.516 116.52C550.278 117.4 551.193 117.8 552.337 117.8H579.329ZM565.223 125.56V120.6H548.448V142.76C548.448 143.96 548.829 144.84 549.592 145.72L553.862 150.44C554.624 151.32 555.539 151.72 556.683 151.72H614.252V120.6H597.477V125.56H565.223ZM565.223 140.52V136.76H597.477V140.52H565.223Z" fill="#263866"/>
<path d="M2.624 16.832C2.624 15.424 2.96533 14.208 3.648 13.184H1.984C0.661332 13.184 0 12.5227 0 11.2C0 9.87733 0.661332 9.216 1.984 9.216H7.104C7.744 9.216 8.064 8.768 8.064 7.872V5.312C8.064 4.71467 8.27733 4.224 8.704 3.84C9.13067 3.456 9.64267 3.264 10.24 3.264C10.8373 3.264 11.328 3.456 11.712 3.84C12.1387 4.224 12.352 4.71467 12.352 5.312V7.808C12.352 8.36267 12.3947 8.72533 12.48 8.896C12.608 9.06667 12.8853 9.17333 13.312 9.216H18.112C18.7093 9.216 19.2 9.408 19.584 9.792C20.0107 10.1333 20.224 10.6027 20.224 11.2C20.224 11.7973 20.0107 12.288 19.584 12.672C19.2 13.0133 18.7093 13.184 18.112 13.184H16.704C17.0453 13.568 17.3013 14.144 17.472 14.912C17.6853 15.6373 17.792 16.2773 17.792 16.832C17.792 18.9227 17.0453 20.6507 15.552 22.016C14.0587 23.3387 12.288 24 10.24 24C8.14933 24 6.35733 23.3387 4.864 22.016C3.37067 20.6507 2.624 18.9227 2.624 16.832ZM14.272 44.352C13.248 44.352 12.416 44.032 11.776 43.392C11.136 42.752 10.816 41.92 10.816 40.896V33.408C10.816 32.384 11.136 31.552 11.776 30.912C12.416 30.272 13.248 29.952 14.272 29.952H23.104C24.1707 29.952 25.0027 30.272 25.6 30.912C26.24 31.552 26.56 32.384 26.56 33.408V40.896C26.56 41.92 26.24 42.752 25.6 43.392C25.0027 44.032 24.1707 44.352 23.104 44.352H14.272ZM23.168 7.872C23.168 7.232 23.36 6.72 23.744 6.336C24.1707 5.952 24.704 5.76 25.344 5.76C26.112 5.76 26.6453 5.97334 26.944 6.4C27.2853 6.784 27.456 7.27467 27.456 7.872V11.584C27.456 12.1387 27.5413 12.6293 27.712 13.056C27.9253 13.4827 28.48 13.696 29.376 13.696H31.552C32.2773 13.696 32.7893 13.9093 33.088 14.336C33.4293 14.7627 33.6 15.2107 33.6 15.68C33.6 16.96 32.9173 17.6 31.552 17.6H29.376C28.5653 17.6 28.032 17.792 27.776 18.176C27.5627 18.5173 27.456 18.9867 27.456 19.584V25.92C27.456 26.5173 27.2427 27.0293 26.816 27.456C26.432 27.8827 25.9413 28.096 25.344 28.096C24.7467 28.096 24.2347 27.8827 23.808 27.456C23.3813 27.0293 23.168 26.5173 23.168 25.92V7.872ZM14.976 38.016C14.976 38.784 15.0827 39.36 15.296 39.744C15.552 40.128 16.1493 40.32 17.088 40.32H20.032C21.0133 40.32 21.632 40.128 21.888 39.744C22.144 39.36 22.272 38.784 22.272 38.016V36.096C22.272 35.4133 22.1227 34.88 21.824 34.496C21.568 34.112 20.9493 33.92 19.968 33.92H17.216C16.32 33.92 15.7227 34.112 15.424 34.496C15.1253 34.9227 14.976 35.456 14.976 36.096V38.016ZM6.528 16.704C6.528 17.728 6.89067 18.56 7.616 19.2C8.384 19.7973 9.25867 20.096 10.24 20.096C11.1787 20.096 11.9893 19.7973 12.672 19.2C13.3973 18.56 13.76 17.728 13.76 16.704C13.76 15.6373 13.3973 14.784 12.672 14.144C11.9893 13.504 11.1787 13.184 10.24 13.184C9.25867 13.184 8.384 13.504 7.616 14.144C6.89067 14.784 6.528 15.6373 6.528 16.704Z" fill="#4ABDBE"/>
<path d="M55.7805 21.184C55.7805 21.824 55.5672 22.3573 55.1405 22.784C54.7138 23.168 54.2018 23.36 53.6045 23.36C53.0072 23.36 52.5165 23.168 52.1325 22.784C51.7485 22.3573 51.5565 21.824 51.5565 21.184V14.4C51.5565 13.632 51.3858 12.9707 51.0445 12.416C50.7032 11.8613 50.1058 11.584 49.2525 11.584H46.6925C46.0952 11.584 45.5832 11.4133 45.1565 11.072C44.7725 10.688 44.5805 10.1973 44.5805 9.6C44.5805 9.00267 44.7725 8.53334 45.1565 8.192C45.5832 7.808 46.0952 7.616 46.6925 7.616H52.5165C53.4978 7.616 54.2872 7.91467 54.8845 8.512C55.4818 9.06667 55.7805 9.83467 55.7805 10.816V13.056C56.0365 12.928 56.3352 12.864 56.6765 12.864H58.9165C59.8125 12.864 60.3458 12.6507 60.5165 12.224C60.7298 11.7973 60.8365 11.3067 60.8365 10.752V8.064C60.8365 7.85067 60.9432 7.46667 61.1565 6.912C61.4125 6.31467 62.0098 5.99467 62.9485 5.952C64.2712 5.952 64.9325 6.656 64.9325 8.064V25.792C64.9325 26.3893 64.7405 26.9013 64.3565 27.328C64.0152 27.7547 63.5458 27.968 62.9485 27.968C62.3512 27.968 61.8392 27.7547 61.4125 27.328C61.0285 26.9013 60.8365 26.3893 60.8365 25.792V18.752C60.8365 18.1547 60.7085 17.6853 60.4525 17.344C60.2392 16.96 59.7272 16.768 58.9165 16.768H56.6765C56.5058 16.768 56.3352 16.768 56.1645 16.768C56.0365 16.7253 55.9085 16.6827 55.7805 16.64V21.184ZM71.9725 26.112C71.9725 26.7093 71.7592 27.2213 71.3325 27.648C70.9485 28.0747 70.4578 28.288 69.8605 28.288C69.2632 28.288 68.7512 28.0747 68.3245 27.648C67.9405 27.2213 67.7485 26.7093 67.7485 26.112V8.064C67.7485 7.85067 67.8552 7.46667 68.0685 6.912C68.3245 6.31467 68.9218 5.99467 69.8605 5.952C70.5005 5.952 71.0125 6.144 71.3965 6.528C71.7805 6.912 71.9725 7.424 71.9725 8.064V26.112ZM44.0685 21.184C44.0685 21.824 43.8552 22.3573 43.4285 22.784C43.0445 23.168 42.5538 23.36 41.9565 23.36C41.3165 23.36 40.8045 23.168 40.4205 22.784C40.0365 22.3573 39.8445 21.824 39.8445 21.184V14.4C39.8445 13.632 39.6738 12.992 39.3325 12.48C38.9912 11.9253 38.3938 11.648 37.5405 11.648H35.0445C34.4472 11.648 33.9352 11.4773 33.5085 11.136C33.1245 10.752 32.9325 10.2613 32.9325 9.664C32.9325 9.06667 33.1245 8.59733 33.5085 8.256C33.9352 7.872 34.4472 7.68 35.0445 7.68H40.8045C41.7858 7.68 42.5752 7.97867 43.1725 8.576C43.7698 9.13067 44.0685 9.89867 44.0685 10.88V21.184Z" fill="#4ABDBE"/>
<path d="M90.3805 22.72C89.3565 22.72 88.5032 22.4 87.8205 21.76C87.1805 21.12 86.8605 20.2667 86.8605 19.2V10.944C86.8605 9.92 87.1805 9.088 87.8205 8.448C88.5032 7.76534 89.3565 7.424 90.3805 7.424H99.0205C100.13 7.424 101.005 7.76534 101.645 8.448C102.285 9.088 102.604 9.92 102.604 10.944V19.2C102.604 20.2667 102.285 21.12 101.645 21.76C101.005 22.4 100.13 22.72 99.0205 22.72H90.3805ZM97.0365 34.496C97.0365 35.0507 96.8445 35.5413 96.4605 35.968C96.1192 36.3947 95.5858 36.608 94.8605 36.608C93.4525 36.608 92.7485 35.904 92.7485 34.496V32.768C92.7485 32.1707 92.6418 31.6587 92.4285 31.232C92.2578 30.8053 91.7245 30.592 90.8285 30.592H85.9645C85.2392 30.592 84.7058 30.3787 84.3645 29.952C84.0232 29.4827 83.8525 29.0133 83.8525 28.544C83.8525 28.032 84.0445 27.5627 84.4285 27.136C84.8125 26.7093 85.3245 26.496 85.9645 26.496H103.885C104.525 26.496 105.015 26.7093 105.357 27.136C105.741 27.5627 105.933 28.032 105.933 28.544C105.933 29.0133 105.762 29.4827 105.421 29.952C105.122 30.3787 104.61 30.592 103.885 30.592H98.8925C98.0392 30.592 97.5058 30.8053 97.2925 31.232C97.1218 31.6587 97.0365 32.1707 97.0365 32.768V34.496ZM86.5405 36.608C86.5405 36.0107 86.7325 35.4987 87.1165 35.072C87.5432 34.688 88.0552 34.496 88.6525 34.496C89.2498 34.496 89.7405 34.688 90.1245 35.072C90.5512 35.4987 90.7645 36.0107 90.7645 36.608V41.152C90.7645 41.8347 90.9352 42.496 91.2765 43.136C91.6605 43.8187 92.4498 44.16 93.6445 44.16H101.453C102.05 44.16 102.541 44.3307 102.925 44.672C103.351 45.056 103.565 45.5467 103.565 46.144C103.565 46.784 103.351 47.2747 102.925 47.616C102.541 48 102.05 48.192 101.453 48.192H89.9965C89.0578 48.192 88.2472 47.872 87.5645 47.232C86.8818 46.6347 86.5405 45.76 86.5405 44.608V36.608ZM91.0205 16.128C91.0205 16.896 91.1485 17.536 91.4045 18.048C91.6605 18.5173 92.2365 18.752 93.1325 18.752H96.0765C97.0152 18.752 97.6125 18.5173 97.8685 18.048C98.1672 17.536 98.3165 16.896 98.3165 16.128V13.824C98.3165 13.184 98.1672 12.6293 97.8685 12.16C97.6125 11.6907 96.9938 11.456 96.0125 11.456H93.2605C92.3645 11.456 91.7672 11.712 91.4685 12.224C91.1698 12.6933 91.0205 13.2267 91.0205 13.824V16.128Z" fill="#4ABDBE"/>
<path d="M120.207 11.968C119.652 11.968 119.311 12.1387 119.183 12.48C119.098 12.8213 119.076 13.0773 119.119 13.248C119.332 14.016 119.823 14.7627 120.591 15.488C121.402 16.2133 122.276 16.9173 123.215 17.6C124.196 18.24 125.007 18.816 125.647 19.328C126.074 19.6267 126.287 20.0533 126.287 20.608C126.287 21.1627 126.074 21.6747 125.647 22.144C125.348 22.4853 124.9 22.6773 124.303 22.72C123.706 22.7627 123.172 22.592 122.703 22.208L119.183 18.944C118.372 18.2187 117.647 17.8773 117.007 17.92C116.367 17.92 115.62 18.2827 114.767 19.008L110.991 22.4C110.522 22.784 109.988 22.976 109.391 22.976C108.836 22.9333 108.367 22.7413 107.983 22.4C107.556 21.9307 107.322 21.3973 107.279 20.8C107.279 20.16 107.492 19.6907 107.919 19.392C108.644 18.88 109.476 18.304 110.415 17.664C111.354 17.024 112.207 16.3413 112.975 15.616C113.786 14.848 114.298 14.0587 114.511 13.248C114.596 12.9493 114.554 12.672 114.383 12.416C114.212 12.1173 113.892 11.968 113.423 11.968H109.967C109.37 11.968 108.879 11.776 108.495 11.392C108.111 11.008 107.919 10.5173 107.919 9.92C107.919 9.32267 108.111 8.85334 108.495 8.512C108.879 8.128 109.37 7.936 109.967 7.936H123.791C124.388 7.936 124.879 8.128 125.263 8.512C125.647 8.85334 125.839 9.32267 125.839 9.92C125.839 10.5173 125.647 11.008 125.263 11.392C124.879 11.776 124.388 11.968 123.791 11.968H120.207ZM134.415 25.792C134.415 26.3893 134.223 26.9013 133.839 27.328C133.498 27.7547 133.028 27.968 132.431 27.968C131.834 27.968 131.322 27.7547 130.895 27.328C130.511 26.9013 130.319 26.3893 130.319 25.792V18.752C130.319 18.1547 130.212 17.6853 129.999 17.344C129.828 16.96 129.338 16.768 128.527 16.768H126.479C125.114 16.768 124.431 16.128 124.431 14.848C124.431 14.2933 124.602 13.824 124.943 13.44C125.284 13.056 125.796 12.864 126.479 12.864H128.527C129.423 12.864 129.935 12.6507 130.063 12.224C130.234 11.7973 130.319 11.3067 130.319 10.752V8.064C130.319 7.85067 130.426 7.46667 130.639 6.912C130.895 6.31467 131.492 5.99467 132.431 5.952C133.754 5.952 134.415 6.656 134.415 8.064V25.792ZM141.455 26.112C141.455 26.7093 141.242 27.2213 140.815 27.648C140.431 28.0747 139.94 28.288 139.343 28.288C138.746 28.288 138.234 28.0747 137.807 27.648C137.423 27.2213 137.231 26.7093 137.231 26.112V8.064C137.231 7.85067 137.338 7.46667 137.551 6.912C137.807 6.31467 138.404 5.99467 139.343 5.952C139.983 5.952 140.495 6.144 140.879 6.528C141.263 6.912 141.455 7.424 141.455 8.064V26.112Z" fill="#4ABDBE"/>
<path d="M158.998 0C160.065 0 160.94 0.298667 161.622 0.896C162.305 1.49333 162.646 2.38934 162.646 3.584V9.984C162.646 11.008 162.284 11.8187 161.558 12.416C160.833 13.0133 159.98 13.312 158.998 13.312H154.07C153.217 13.312 152.598 13.568 152.214 14.08C151.83 14.5493 151.638 15.0613 151.638 15.616V16.128C151.638 16.7253 151.788 17.344 152.087 17.984C152.385 18.5813 153.068 18.88 154.134 18.88H160.919C161.559 18.88 162.07 19.072 162.454 19.456C162.881 19.7973 163.094 20.2667 163.094 20.864C163.094 21.504 162.881 22.016 162.454 22.4C162.07 22.7413 161.559 22.912 160.919 22.912H150.87C149.932 22.912 149.1 22.592 148.374 21.952C147.692 21.2693 147.35 20.3947 147.35 19.328V13.12C147.35 12.0107 147.713 11.136 148.438 10.496C149.206 9.81334 150.124 9.472 151.19 9.472H156.054C156.908 9.472 157.484 9.23734 157.783 8.768C158.124 8.256 158.294 7.72267 158.294 7.168V6.528C158.294 5.93067 158.124 5.376 157.783 4.864C157.484 4.30933 156.822 4.032 155.798 4.032H149.654C149.057 4.032 148.545 3.86133 148.118 3.52C147.734 3.136 147.542 2.64533 147.542 2.048C147.542 1.408 147.734 0.917334 148.118 0.576C148.545 0.192 149.057 0 149.654 0H158.998ZM158.998 36.032C160.065 36.032 160.918 36.3307 161.558 36.928C162.241 37.5253 162.582 38.3787 162.582 39.488V45.568C162.582 46.6347 162.22 47.4667 161.494 48.064C160.769 48.6613 159.937 48.96 158.998 48.96H153.686C152.833 48.96 152.236 49.1947 151.895 49.664C151.596 50.176 151.446 50.688 151.446 51.2V51.712C151.446 52.3093 151.596 52.9067 151.895 53.504C152.193 54.1013 152.876 54.4 153.942 54.4H161.11C161.708 54.4 162.198 54.5707 162.582 54.912C163.009 55.296 163.222 55.7867 163.222 56.384C163.222 56.9813 163.009 57.4507 162.582 57.792C162.198 58.176 161.708 58.368 161.11 58.368H150.678C149.74 58.368 148.908 58.048 148.182 57.408C147.5 56.8107 147.158 55.9787 147.158 54.912V48.768C147.158 47.6587 147.521 46.7627 148.246 46.08C148.972 45.3973 149.868 45.056 150.934 45.056H155.99C156.844 45.056 157.42 44.8427 157.718 44.416C158.06 43.9893 158.23 43.4987 158.23 42.944V42.368C158.23 41.7707 158.06 41.216 157.718 40.704C157.42 40.2347 156.758 40 155.734 40H149.398C148.801 40 148.289 39.808 147.862 39.424C147.478 39.0827 147.286 38.6133 147.286 38.016C147.286 37.4187 147.478 36.928 147.862 36.544C148.289 36.2027 148.801 36.032 149.398 36.032H158.998ZM145.686 31.168C144.364 31.168 143.702 30.5067 143.702 29.184C143.702 28.5867 143.873 28.096 144.214 27.712C144.598 27.328 145.089 27.136 145.686 27.136H163.734C164.332 27.136 164.822 27.328 165.206 27.712C165.59 28.096 165.783 28.5867 165.783 29.184C165.783 29.7813 165.59 30.272 165.206 30.656C164.822 30.9973 164.332 31.168 163.734 31.168H145.686Z" fill="#4ABDBE"/>
<path d="M178.661 16.832C178.661 15.424 179.003 14.208 179.686 13.184H178.021C176.699 13.184 176.038 12.5227 176.038 11.2C176.038 9.87733 176.699 9.216 178.021 9.216H183.141C183.781 9.216 184.102 8.768 184.102 7.872V5.312C184.102 4.71467 184.315 4.224 184.742 3.84C185.168 3.456 185.68 3.264 186.277 3.264C186.875 3.264 187.365 3.456 187.749 3.84C188.176 4.224 188.389 4.71467 188.389 5.312V7.808C188.389 8.36267 188.432 8.72533 188.518 8.896C188.646 9.06667 188.923 9.17333 189.35 9.216H194.15C194.747 9.216 195.238 9.408 195.622 9.792C196.048 10.1333 196.262 10.6027 196.262 11.2C196.262 11.7973 196.048 12.288 195.622 12.672C195.238 13.0133 194.747 13.184 194.15 13.184H192.742C193.083 13.568 193.339 14.144 193.51 14.912C193.723 15.6373 193.829 16.2773 193.829 16.832C193.829 18.9227 193.083 20.6507 191.589 22.016C190.096 23.3387 188.326 24 186.277 24C184.187 24 182.395 23.3387 180.902 22.016C179.408 20.6507 178.661 18.9227 178.661 16.832ZM210.917 26.112C210.917 26.7093 210.726 27.2213 210.342 27.648C209.958 28.0747 209.467 28.288 208.87 28.288C208.272 28.288 207.76 28.0747 207.333 27.648C206.949 27.2213 206.757 26.7093 206.757 26.112V19.712C206.757 19.2427 206.63 18.816 206.374 18.432C206.16 18.0053 205.648 17.792 204.838 17.792H204.326C203.686 17.8347 203.216 18.048 202.917 18.432C202.661 18.7733 202.533 19.2 202.533 19.712V25.792C202.533 26.3893 202.342 26.9013 201.958 27.328C201.574 27.7547 201.083 27.968 200.486 27.968C199.846 27.968 199.334 27.7547 198.95 27.328C198.566 26.9013 198.374 26.3893 198.374 25.792V8.064C198.374 6.656 199.077 5.952 200.486 5.952C201.467 5.99467 202.043 6.31467 202.214 6.912C202.427 7.46667 202.533 7.85067 202.533 8.064V11.712C202.533 12.2667 202.64 12.7787 202.854 13.248C203.067 13.7173 203.579 13.952 204.389 13.952H204.902C205.755 13.9093 206.267 13.6747 206.438 13.248C206.651 12.7787 206.757 12.2667 206.757 11.712V8.064C206.757 7.85067 206.864 7.46667 207.077 6.912C207.333 6.31467 207.931 5.99467 208.87 5.952C210.235 5.952 210.917 6.656 210.917 8.064V26.112ZM182.566 16.704C182.566 17.728 182.928 18.56 183.654 19.2C184.422 19.7973 185.296 20.096 186.277 20.096C187.216 20.096 188.027 19.7973 188.71 19.2C189.435 18.56 189.798 17.728 189.798 16.704C189.798 15.6373 189.435 14.784 188.71 14.144C188.027 13.504 187.216 13.184 186.277 13.184C185.296 13.184 184.422 13.504 183.654 14.144C182.928 14.784 182.566 15.6373 182.566 16.704Z" fill="#4ABDBE"/>
<path d="M234.221 29.952C235.288 29.952 236.141 30.2507 236.781 30.848C237.464 31.4453 237.805 32.2987 237.805 33.408V39.488C237.805 40.5547 237.442 41.3867 236.717 41.984C235.992 42.5813 235.16 42.88 234.221 42.88H228.909C228.056 42.88 227.458 43.1147 227.117 43.584C226.818 44.096 226.669 44.608 226.669 45.12V45.632C226.669 46.2293 226.818 46.8267 227.117 47.424C227.416 48.0213 228.098 48.32 229.165 48.32H236.333C236.93 48.32 237.421 48.4907 237.805 48.832C238.232 49.216 238.445 49.7067 238.445 50.304C238.445 50.9013 238.232 51.3707 237.805 51.712C237.421 52.096 236.93 52.288 236.333 52.288H225.901C224.962 52.288 224.13 51.968 223.405 51.328C222.722 50.7307 222.381 49.8987 222.381 48.832V42.688C222.381 41.5787 222.744 40.6827 223.469 40C224.194 39.3173 225.09 38.976 226.157 38.976H231.213C232.066 38.976 232.642 38.7627 232.941 38.336C233.282 37.9093 233.453 37.4187 233.453 36.864V36.288C233.453 35.6907 233.282 35.136 232.941 34.624C232.642 34.1547 231.981 33.92 230.957 33.92H224.621C224.024 33.92 223.512 33.728 223.085 33.344C222.701 33.0027 222.509 32.5333 222.509 31.936C222.509 31.3387 222.701 30.8693 223.085 30.528C223.512 30.144 224.024 29.952 224.621 29.952H234.221ZM239.085 26.112C239.085 26.7093 238.872 27.2213 238.445 27.648C238.061 28.0747 237.57 28.288 236.973 28.288C236.376 28.288 235.864 28.0747 235.437 27.648C235.01 27.2213 234.797 26.7093 234.797 26.112V22.464C234.797 22.08 234.712 21.7387 234.541 21.44C234.413 21.0987 234.008 20.928 233.325 20.928H231.405C230.04 20.928 229.357 20.288 229.357 19.008C229.357 18.496 229.506 18.048 229.805 17.664C230.146 17.28 230.68 17.088 231.405 17.088H233.325C234.008 17.088 234.413 16.96 234.541 16.704C234.712 16.4053 234.797 16.064 234.797 15.68V14.4C234.797 13.9307 234.712 13.568 234.541 13.312C234.413 13.0133 234.008 12.864 233.325 12.864H231.405C230.04 12.864 229.357 12.224 229.357 10.944C229.357 10.432 229.506 9.984 229.805 9.6C230.146 9.216 230.68 9.024 231.405 9.024H233.325C234.05 9.024 234.477 8.832 234.605 8.448C234.733 8.064 234.797 7.616 234.797 7.104V5.76C234.797 5.54667 234.925 5.16267 235.181 4.608C235.437 4.01067 236.034 3.69067 236.973 3.648C237.613 3.648 238.125 3.84 238.509 4.224C238.893 4.608 239.085 5.12 239.085 5.76V26.112ZM228.589 21.184C228.589 21.824 228.376 22.3573 227.949 22.784C227.522 23.168 226.989 23.36 226.349 23.36C225.752 23.36 225.24 23.168 224.813 22.784C224.429 22.3573 224.237 21.824 224.237 21.184V15.104C224.237 14.336 224.045 13.632 223.661 12.992C223.277 12.3093 222.53 11.968 221.421 11.968H214.381C213.741 11.968 213.208 11.7973 212.781 11.456C212.397 11.072 212.205 10.5813 212.205 9.984C212.205 9.38667 212.397 8.896 212.781 8.512C213.208 8.128 213.741 7.936 214.381 7.936H225.005C225.986 7.936 226.818 8.23467 227.501 8.832C228.226 9.42933 228.589 10.304 228.589 11.456V21.184Z" fill="#4ABDBE"/>
<path d="M243.324 16.832C243.324 15.424 243.665 14.208 244.348 13.184H242.684C241.361 13.184 240.7 12.5227 240.7 11.2C240.7 9.87733 241.361 9.216 242.684 9.216H247.804C248.444 9.216 248.764 8.768 248.764 7.872V5.312C248.764 4.71467 248.977 4.224 249.404 3.84C249.831 3.456 250.343 3.264 250.94 3.264C251.537 3.264 252.028 3.456 252.412 3.84C252.839 4.224 253.052 4.71467 253.052 5.312V7.808C253.052 8.36267 253.095 8.72533 253.18 8.896C253.308 9.06667 253.585 9.17333 254.012 9.216H258.812C259.409 9.216 259.9 9.408 260.284 9.792C260.711 10.1333 260.924 10.6027 260.924 11.2C260.924 11.7973 260.711 12.288 260.284 12.672C259.9 13.0133 259.409 13.184 258.812 13.184H257.404C257.745 13.568 258.001 14.144 258.172 14.912C258.385 15.6373 258.492 16.2773 258.492 16.832C258.492 18.9227 257.745 20.6507 256.252 22.016C254.759 23.3387 252.988 24 250.94 24C248.849 24 247.057 23.3387 245.564 22.016C244.071 20.6507 243.324 18.9227 243.324 16.832ZM254.972 46.976C253.905 46.976 253.052 46.656 252.412 46.016C251.815 45.4187 251.516 44.5867 251.516 43.52V31.616C251.516 31.0187 251.708 30.528 252.092 30.144C252.476 29.76 252.967 29.568 253.564 29.568C254.204 29.568 254.716 29.76 255.1 30.144C255.527 30.528 255.74 31.0187 255.74 31.616V32.832C255.74 34.0693 256.231 34.6453 257.212 34.56H261.5C262.097 34.56 262.481 34.3893 262.652 34.048C262.823 33.7493 262.908 33.3227 262.908 32.768V31.424C262.908 30.8267 263.121 30.336 263.548 29.952C263.975 29.5253 264.487 29.312 265.084 29.312C265.681 29.312 266.193 29.5253 266.62 29.952C267.047 30.336 267.26 30.8267 267.26 31.424V43.52C267.26 44.5867 266.94 45.4187 266.3 46.016C265.66 46.656 264.807 46.976 263.74 46.976H254.972ZM263.868 7.872C263.868 7.232 264.06 6.72 264.444 6.336C264.871 5.952 265.404 5.76 266.044 5.76C266.812 5.76 267.345 5.97334 267.644 6.4C267.985 6.784 268.156 7.27467 268.156 7.872V11.584C268.156 12.1387 268.241 12.6293 268.412 13.056C268.625 13.4827 269.18 13.696 270.076 13.696H272.252C272.977 13.696 273.489 13.9093 273.788 14.336C274.129 14.7627 274.3 15.2107 274.3 15.68C274.3 16.96 273.617 17.6 272.252 17.6H270.076C269.265 17.6 268.732 17.792 268.476 18.176C268.263 18.5173 268.156 18.9867 268.156 19.584V25.92C268.156 26.5173 267.943 27.0293 267.516 27.456C267.132 27.8827 266.641 28.096 266.044 28.096C265.447 28.096 264.935 27.8827 264.508 27.456C264.081 27.0293 263.868 26.5173 263.868 25.92V7.872ZM247.228 16.704C247.228 17.728 247.591 18.56 248.316 19.2C249.084 19.7973 249.959 20.096 250.94 20.096C251.879 20.096 252.689 19.7973 253.372 19.2C254.097 18.56 254.46 17.728 254.46 16.704C254.46 15.6373 254.097 14.784 253.372 14.144C252.689 13.504 251.879 13.184 250.94 13.184C249.959 13.184 249.084 13.504 248.316 14.144C247.591 14.784 247.228 15.6373 247.228 16.704ZM255.612 40.96C255.612 41.6427 255.719 42.1547 255.932 42.496C256.145 42.88 256.721 43.072 257.66 43.072H260.86C261.841 43.072 262.439 42.88 262.652 42.496C262.865 42.1547 262.972 41.6427 262.972 40.96V40.128C262.972 39.5307 262.844 39.0613 262.588 38.72C262.375 38.3787 261.777 38.208 260.796 38.208H257.724C256.828 38.208 256.252 38.3787 255.996 38.72C255.74 39.104 255.612 39.5733 255.612 40.128V40.96Z" fill="#4ABDBE"/>
<path d="M274.913 9.536C274.913 8.93867 275.104 8.42667 275.488 8C275.915 7.57334 276.448 7.36 277.089 7.36C277.686 7.36 278.176 7.57334 278.56 8C278.987 8.42667 279.201 8.93867 279.201 9.536V15.872C279.201 16.5547 279.371 17.2373 279.712 17.92C280.054 18.56 280.822 18.88 282.017 18.88H289.504C290.102 18.88 290.592 19.072 290.977 19.456C291.403 19.7973 291.616 20.2667 291.616 20.864C291.616 21.504 291.403 22.016 290.977 22.4C290.592 22.7413 290.102 22.912 289.504 22.912H278.432C277.494 22.912 276.662 22.6133 275.936 22.016C275.254 21.376 274.913 20.48 274.913 19.328V9.536ZM295.264 8.064C295.264 7.424 295.456 6.912 295.84 6.528C296.267 6.144 296.8 5.952 297.44 5.952C298.422 5.99467 299.019 6.31467 299.232 6.912C299.446 7.46667 299.552 7.85067 299.552 8.064V25.792C299.552 26.3893 299.339 26.9013 298.913 27.328C298.529 27.7547 298.038 27.968 297.44 27.968C296.843 27.968 296.331 27.7547 295.905 27.328C295.478 26.9013 295.264 26.3893 295.264 25.792V8.064Z" fill="#4ABDBE"/>
<path d="M306.607 22.912C305.583 22.912 304.73 22.592 304.047 21.952C303.407 21.2693 303.087 20.3947 303.087 19.328V11.072C303.087 10.0053 303.407 9.152 304.047 8.512C304.73 7.872 305.583 7.552 306.607 7.552H317.167C317.765 7.552 318.255 7.744 318.639 8.128C319.066 8.512 319.279 9.00267 319.279 9.6C319.279 10.1973 319.066 10.688 318.639 11.072C318.255 11.4133 317.765 11.584 317.167 11.584H309.999C309.018 11.584 308.335 11.8613 307.951 12.416C307.567 12.9707 307.375 13.5253 307.375 14.08V16.064C307.375 16.7467 307.525 17.3867 307.823 17.984C308.165 18.5813 308.869 18.88 309.935 18.88H317.423C318.021 18.88 318.511 19.0507 318.895 19.392C319.279 19.7333 319.471 20.2027 319.471 20.8C319.471 21.44 319.279 21.952 318.895 22.336C318.511 22.6773 318.021 22.8693 317.423 22.912H306.607ZM323.375 7.872C323.375 7.232 323.567 6.72 323.951 6.336C324.378 5.952 324.911 5.76 325.551 5.76C326.319 5.76 326.853 5.97334 327.151 6.4C327.493 6.784 327.663 7.27467 327.663 7.872V11.584C327.663 12.1387 327.749 12.6293 327.919 13.056C328.133 13.4827 328.688 13.696 329.583 13.696H331.759C332.485 13.696 332.997 13.9093 333.295 14.336C333.637 14.7627 333.807 15.2107 333.807 15.68C333.807 16.96 333.125 17.6 331.759 17.6H329.583C328.773 17.6 328.24 17.792 327.983 18.176C327.77 18.5173 327.663 18.9867 327.663 19.584V25.92C327.663 26.5173 327.45 27.0293 327.023 27.456C326.639 27.8827 326.149 28.096 325.551 28.096C324.954 28.096 324.442 27.8827 324.015 27.456C323.589 27.0293 323.375 26.5173 323.375 25.92V7.872Z" fill="#4ABDBE"/>
<path d="M337.714 34.24C336.903 34.24 336.199 33.9627 335.602 33.408C335.047 32.896 334.77 32.2773 334.77 31.552C334.77 30.784 335.047 30.144 335.602 29.632C336.199 29.0773 336.903 28.8 337.714 28.8C338.482 28.8 339.143 29.0773 339.698 29.632C340.253 30.144 340.53 30.784 340.53 31.552C340.53 32.2773 340.253 32.896 339.698 33.408C339.143 33.9627 338.482 34.24 337.714 34.24Z" fill="#4ABDBE"/>
</svg>
