<svg width="548" height="506" viewBox="0 0 548 506" fill="none" xmlns="http://www.w3.org/2000/svg">
<g clip-path="url(#clip0_1138_5251)">
<g filter="url(#filter0_d_1138_5251)">
<path d="M138.522 0L135.151 9.38985L129.094 17.4383L127.066 26.1706V34.9029L133.123 37.5857L140.523 40.9524L146.58 45.6605L152.637 50.3685L154.665 57.7594L160.722 66.4917L149.951 52.3938L141.208 46.3443L135.151 47.0282L136.494 60.4685L131.78 71.8837L131.095 83.9826L133.123 59.1271L131.095 47.0282L122.352 32.9302L108.895 27.5646H94.7797L90.0658 29.5899L84.0088 31.6151L77.2934 34.9818L80.6642 40.3474H87.3796L94.7797 47.0545H85.3782L82.692 52.4201L95.4644 59.811L108.237 65.8605L109.58 69.2271V81.3261L100.178 89.3746L86.0629 92.7412L92.7782 94.7665L92.0935 100.816L88.7227 104.183V110.89L83.3504 106.865L79.3212 99.4746L76.635 109.548V112.915L73.2642 116.939L68.5503 118.964L64.521 119.648L58.464 118.307V114.94L59.1487 110.916L64.521 107.549H69.235L65.8641 98.817V92.11L69.235 88.7433L74.6072 87.4019H77.2934L77.9781 82.0363L76.635 71.9626L69.9197 67.9383C69.9197 67.9383 69.9197 71.9626 69.9197 61.2313V50.4737V45.7657H61.8612L61.1765 52.4727L60.4918 55.8394L59.8071 67.2545V73.304L59.1224 79.3535H53.7501L47.6931 75.9868L35.5791 72.6201L28.1791 74.6454L25.4929 80.6949V84.0615L26.836 90.111L28.1791 98.1595L28.8638 103.525V108.891L24.1499 110.232H18.0929L15.4067 108.891V116.939L10.6928 118.964C10.6928 118.964 11.3775 117.623 8.00665 125.671C4.6358 133.72 3.29272 136.429 3.29272 136.429L1.26495 139.112L-0.078125 147.844C1.94965 151.868 7.32194 152.552 7.32194 152.552V157.26L3.29272 160.627L1.94965 164.651L15.4067 153.894V145.845L18.0929 143.162L20.779 144.504L23.4651 147.87L29.5221 151.895L31.5499 156.603V165.335L29.5221 172.042L22.1221 165.993L18.0929 165.309L14.722 166.65L13.3789 172.7V181.432L16.0651 182.773H28.1791L31.5499 181.432L38.2653 174.725C40.2931 172.7 42.9792 171.358 42.9792 171.358L47.0084 164.651L62.4669 159.286L61.1239 167.334L57.0946 172.7L53.7238 174.725L51.0376 179.433V184.141L60.4392 188.849L62.4669 191.532L66.4961 197.581L67.1808 203.631V213.021L65.1531 219.728L63.1253 222.411L69.8407 221.727V219.044L71.8684 216.361L75.8977 214.02L80.2692 213.021L82.613 211.679L84.2984 207.313L84.6408 204.972V202.947L84.9831 201.606L83.6401 196.582L81.6123 189.191L78.9261 183.142L76.9774 179.801L76.5033 179.012L75.5816 177.434L74.8969 176.093L81.2963 177.776L81.6386 173.752C81.6386 173.752 81.6386 172.068 81.981 171.069C82.3233 170.069 84.6671 164.362 84.6671 164.362L83.9824 170.411V178.144L84.3248 184.536L85.0095 188.902L87.0372 194.267L88.3803 198.634L90.0658 203.657L91.7512 206.682L94.4373 210.706L97.4658 213.731L101.837 217.098L107.21 221.122L109.896 219.097C109.896 219.097 111.581 219.438 111.924 218.413L114.267 211.364L114.952 209.338L115.294 201.948V189.191L116.295 184.825C116.295 184.825 116.295 185.167 117.638 180.801C118.981 176.435 119.982 173.41 119.982 173.41L124.354 177.434L127.04 185.824L123.011 189.507V194.53L123.353 198.213V201.579L127.382 205.946L130.753 210.654L131.095 213.678L130.411 216.703L127.382 218.386L127.04 221.069L122.668 227.461V232.484L125.354 237.85L127.04 242.558L131.754 247.266L133.439 249.291L136.125 252.316L137.468 254.999V257.34H134.097L129.726 265.73L129.041 270.754V273.437L132.728 282.511L134.413 287.877L138.1 295.925L139.786 299.949C139.786 299.949 141.471 297.924 142.472 296.583C143.473 295.241 146.843 290.533 146.843 290.533L150.214 285.825L154.928 280.459L157.957 277.435L160.301 277.093L160.985 281.459V283.142L155.271 292.216L147.528 295.899L136.757 304.631L133.729 308.997C133.729 308.997 133.386 313.021 133.386 314.363C133.386 315.704 134.729 318.045 134.729 318.045L138.1 320.728L145.158 326.094L149.872 330.118L152.9 333.484L157.272 339.534L156.587 345.583L146.501 349.266L141.129 351.607L140.444 354.631L145.474 360.681L146.817 363.364L153.533 373.095L155.218 378.119L151.531 387.509C151.531 387.509 149.503 393.9 149.187 395.899C148.871 397.898 148.503 400.265 148.503 400.265V409.34C148.503 409.34 148.503 411.365 147.16 413.706C145.816 416.047 143.13 420.097 143.13 420.097C143.13 420.097 146.817 418.414 141.103 422.438C135.388 426.462 133.702 429.829 133.702 429.829L132.702 432.854L134.387 435.195C134.387 435.195 137.073 436.194 138.074 438.877C139.075 441.56 140.418 442.901 140.418 442.901L143.104 439.219L148.134 429.487L152.505 433.511C152.505 433.511 151.821 433.853 153.19 435.537C154.56 437.22 156.877 439.561 156.877 439.561L160.248 440.245L162.934 440.929L167.964 438.588C167.964 438.588 171.651 438.93 172.336 440.613C173.02 442.296 175.364 445.979 176.365 447.004C177.365 448.03 178.709 449.03 179.393 450.687C180.078 452.344 183.08 461.444 183.08 461.444L184.081 467.152L184.766 470.518C185.108 472.202 191.823 476.91 192.166 477.909C192.508 478.909 195.194 481.592 195.194 481.592C195.194 481.592 197.222 481.934 197.222 482.933C197.222 483.932 197.564 488.983 197.564 491.323V496.347L198.565 499.372L207.966 502.397L211.337 502.738L220.739 506.105L230.483 497.715L238.225 484.958L246.626 484.616L259.741 482.275C259.741 482.275 262.427 480.25 264.112 478.593C265.798 476.936 270.512 473.569 270.512 473.569L273.54 468.546V446.715L276.226 438.667L279.255 434.984L280.94 433.301L285.312 433.643L290.026 437.667H294.739L301.139 432.643L305.168 428.961C306.511 431.986 311.883 435.011 311.883 435.011L324.313 437.693L343.485 434.669C343.485 434.669 343.143 438.035 342.8 441.06C342.458 444.085 342.458 447.451 342.458 447.451C342.458 447.451 344.486 451.818 345.487 453.159C346.487 454.5 350.859 454.159 351.544 456.841C352.228 459.524 352.544 459.524 353.571 461.865C354.598 464.206 357.943 464.89 357.943 464.89C357.943 464.89 356.257 462.549 361.314 464.206C366.37 465.863 370.399 466.231 370.399 466.231V457.499L372.085 449.766C372.085 449.766 373.77 448.767 374.771 449.082C375.772 449.398 377.457 449.766 377.799 450.766C378.142 451.765 378.8 452.791 378.8 452.791L383.514 450.108L389.571 448.083H400L404.371 449.766L407.057 450.45L410.744 446.426L413.43 439.377L414.773 438.693H423.859L427.888 437.01L438.317 432.985C438.317 432.985 443.689 437.693 443.689 439.035C443.689 440.376 444.374 444.742 444.374 444.742V454.132C444.374 455.132 444.716 460.524 444.716 460.524C444.716 460.524 445.717 463.89 447.06 467.914C448.403 471.939 449.746 472.623 451.089 474.963C452.432 477.304 458.147 483.354 458.147 483.354L461.833 487.036L465.863 489.377L474.948 481.644L478.977 478.961V492.06C478.977 493.401 478.293 493.059 478.977 495.427C479.662 497.794 482.348 497.767 484.007 499.109C485.666 500.45 492.751 502.134 494.094 502.134C495.437 502.134 503.495 500.45 503.495 500.45L508.867 498.767C508.867 498.767 512.897 495.085 512.897 493.743C512.897 492.402 513.897 485.011 513.897 485.011L515.925 479.987L516.61 477.304C516.61 477.304 527.038 474.28 527.697 476.962C528.355 479.645 531.726 484.695 531.726 484.695L538.784 487.72C538.784 487.72 543.155 489.403 543.498 487.72C543.84 486.037 546.526 479.987 546.526 479.987L546.868 475.279L544.841 470.571L545.841 464.18L547.869 458.13L545.183 452.423C545.183 452.423 540.811 445.716 539.811 444.69C538.81 443.664 533.095 436.641 533.095 436.641L531.41 432.617V428.593L533.095 421.886C533.095 421.886 533.78 416.862 533.78 412.154C533.78 407.446 533.78 405.763 533.438 404.106C533.095 402.449 534.122 403.764 531.094 397.714C528.065 391.665 527.065 388.982 525.722 386.957C524.379 384.931 523.036 383.932 519.322 381.249C515.609 378.566 512.607 376.883 512.607 376.883C512.607 376.883 522.008 376.541 511.264 376.883C500.519 377.225 495.805 377.567 495.805 377.567C495.805 377.567 494.462 380.592 493.462 377.225C492.461 373.858 492.461 367.493 492.461 366.467V359.076C492.461 356.394 495.832 348.661 495.832 348.661L498.86 344.295L500.203 340.27L505.233 337.588L508.92 332.222L509.921 325.831L510.605 321.122L514.977 316.099L520.007 311.391L510.605 294.61C510.605 294.61 509.921 294.268 507.577 295.609C505.233 296.951 503.548 296.951 503.548 296.951L500.519 294.926L499.519 287.877L498.518 278.802C498.518 278.802 495.489 275.436 494.146 274.436C492.803 273.437 487.431 270.412 487.431 270.412L482.059 273.437L471.972 281.485C471.972 281.485 475.343 287.535 469.286 280.801L463.229 274.094L460.201 270.412L454.828 264.362L448.429 261.338L447.086 256.972L448.087 250.922V245.215L441.371 223.042L436.341 209.286L422.568 202.894L419.198 191.821L420.541 187.797L428.599 178.407L434.314 169.333L436.341 162.284L443.742 150.527L451.142 142.137L454.512 139.454L464.941 137.113L467.627 138.796L472.999 141.137L470.656 133.089L467.627 125.356L449.799 106.892L446.428 102.868L440.028 94.1352L435.657 88.7696L429.942 79.6954L426.571 74.9873L423.543 69.9636L421.199 68.2803L412.798 64.9136L409.111 64.2298C409.111 64.2298 404.397 59.5217 403.739 58.5222C403.081 57.5227 394.996 48.4485 394.996 48.4485L389.281 43.7404L382.566 41.3995C382.566 41.3995 381.565 40.7157 378.194 40.7157H374.823L365.08 42.0571C365.08 42.0571 363.394 43.3985 362.736 44.7399C362.077 46.0813 362.051 48.1066 362.051 48.1066L360.708 51.4732C360.708 51.4732 348.594 53.8141 347.593 53.8141C346.593 53.8141 344.565 53.4722 343.564 54.498C342.563 55.5238 337.849 59.5217 337.849 59.5217L336.506 61.205C336.506 61.205 319.02 64.2298 316.676 64.2298C314.333 64.2298 310.277 65.2292 310.277 65.2292C310.277 65.2292 301.534 70.5949 300.533 71.2787C299.532 71.9626 293.475 73.9615 291.79 75.6449C290.105 77.3282 287.418 79.3272 284.39 82.3519L279.676 87.06L272.618 88.0595L271.275 91.0842L267.904 101.158V104.525L277.648 115.598L260.162 109.206L262.506 117.597L258.819 113.914V108.549L259.161 95.4504L256.475 79.3272L255.132 64.5454L251.445 55.8131L247.416 52.4464L238.673 43.7141L231.273 37.6646L226.901 35.3237L219.501 34.3243H213.444C213.444 34.3243 204.043 33.6404 201.672 33.3248C199.302 33.0091 193.272 31.2995 192.271 31.2995C191.27 31.2995 189.585 30.9576 189.585 30.9576L181.526 27.2753L179.183 24.9344L169.439 16.886L167.411 16.2021C165.383 15.2026 153.638 9.81069 153.638 9.81069L146.58 3.7612L144.895 2.07787L138.495 0.0526042L138.522 0Z" fill="white"/>
</g>
<g filter="url(#filter1_d_1138_5251)">
<path d="M85.7206 214.547L74.9496 218.913L74.6073 220.596L73.6066 222.937L72.9219 227.645V234.352L74.2649 242.085C74.2649 244.426 75.608 249.818 75.608 250.817C75.608 251.817 76.6087 255.526 76.6087 256.525C76.6087 257.525 78.6365 261.549 78.9525 262.575C79.2685 263.6 80.9803 265.941 80.9803 265.941L82.3234 269.965V276.015C82.3234 276.015 81.981 276.357 80.638 279.382C79.2949 282.406 79.2949 281.722 79.2949 284.09C79.2949 286.457 78.9525 290.797 78.9525 290.797L80.9803 294.821L86.0102 298.188C86.0102 298.188 88.038 299.529 89.0387 301.554C90.0395 303.579 91.0665 304.579 92.0672 307.262L93.068 309.945L99.7833 306.578C99.7833 306.578 101.126 304.553 102.469 305.894C103.813 307.235 108.184 307.919 108.184 307.919L116.243 306.236L116.585 302.554L111.871 294.505L108.184 288.456L107.842 286.115L106.841 276.383L101.469 267.993C101.469 267.993 98.7826 261.601 98.7826 259.944C98.7826 258.287 97.7819 249.187 97.7819 249.187C97.7819 249.187 92.4096 244.163 92.4096 242.795C92.4096 241.428 92.0672 233.064 92.0672 233.064L93.7527 227.698V220.991L92.7519 214.599H85.6942L85.7206 214.547Z" fill="white"/>
</g>
<g filter="url(#filter2_d_1138_5251)">
<path d="M117.007 318.308H111.977L109.291 318.65L107.606 320.991L99.5471 321.991H97.5193L94.1484 324.674L95.4915 329.697L106.921 332.38C109.265 333.38 115.664 335.063 115.664 335.063H117.349L120.378 333.038L113.979 322.28L114.663 319.255L115.664 315.889L117.007 318.23V318.308Z" fill="white"/>
</g>
<g filter="url(#filter3_d_1138_5251)">
<path d="M92.1169 339.455L93.1176 344.163V347.529L92.4329 353.579H90.4051C89.4044 353.579 80.3189 346.53 80.3189 346.53L79.9766 344.189L85.3489 333.773L92.0642 339.481L92.1169 339.455Z" fill="white"/>
</g>
</g>
<defs>
<filter id="filter0_d_1138_5251" x="-15.0781" y="-11" width="577.945" height="536.105" filterUnits="userSpaceOnUse" color-interpolation-filters="sRGB">
<feFlood flood-opacity="0" result="BackgroundImageFix"/>
<feColorMatrix in="SourceAlpha" type="matrix" values="0 0 0 0 0 0 0 0 0 0 0 0 0 0 0 0 0 0 127 0" result="hardAlpha"/>
<feOffset dy="4"/>
<feGaussianBlur stdDeviation="7.5"/>
<feComposite in2="hardAlpha" operator="out"/>
<feColorMatrix type="matrix" values="0 0 0 0 0 0 0 0 0 0 0 0 0 0 0 0 0 0 0.1 0"/>
<feBlend mode="normal" in2="BackgroundImageFix" result="effect1_dropShadow_1138_5251"/>
<feBlend mode="normal" in="SourceGraphic" in2="effect1_dropShadow_1138_5251" result="shape"/>
</filter>
<filter id="filter1_d_1138_5251" x="57.9219" y="203.547" width="73.6641" height="125.398" filterUnits="userSpaceOnUse" color-interpolation-filters="sRGB">
<feFlood flood-opacity="0" result="BackgroundImageFix"/>
<feColorMatrix in="SourceAlpha" type="matrix" values="0 0 0 0 0 0 0 0 0 0 0 0 0 0 0 0 0 0 127 0" result="hardAlpha"/>
<feOffset dy="4"/>
<feGaussianBlur stdDeviation="7.5"/>
<feComposite in2="hardAlpha" operator="out"/>
<feColorMatrix type="matrix" values="0 0 0 0 0 0 0 0 0 0 0 0 0 0 0 0 0 0 0.1 0"/>
<feBlend mode="normal" in2="BackgroundImageFix" result="effect1_dropShadow_1138_5251"/>
<feBlend mode="normal" in="SourceGraphic" in2="effect1_dropShadow_1138_5251" result="shape"/>
</filter>
<filter id="filter2_d_1138_5251" x="79.1484" y="304.889" width="56.2266" height="49.1738" filterUnits="userSpaceOnUse" color-interpolation-filters="sRGB">
<feFlood flood-opacity="0" result="BackgroundImageFix"/>
<feColorMatrix in="SourceAlpha" type="matrix" values="0 0 0 0 0 0 0 0 0 0 0 0 0 0 0 0 0 0 127 0" result="hardAlpha"/>
<feOffset dy="4"/>
<feGaussianBlur stdDeviation="7.5"/>
<feComposite in2="hardAlpha" operator="out"/>
<feColorMatrix type="matrix" values="0 0 0 0 0 0 0 0 0 0 0 0 0 0 0 0 0 0 0.1 0"/>
<feBlend mode="normal" in2="BackgroundImageFix" result="effect1_dropShadow_1138_5251"/>
<feBlend mode="normal" in="SourceGraphic" in2="effect1_dropShadow_1138_5251" result="shape"/>
</filter>
<filter id="filter3_d_1138_5251" x="64.9766" y="322.773" width="43.1406" height="49.8047" filterUnits="userSpaceOnUse" color-interpolation-filters="sRGB">
<feFlood flood-opacity="0" result="BackgroundImageFix"/>
<feColorMatrix in="SourceAlpha" type="matrix" values="0 0 0 0 0 0 0 0 0 0 0 0 0 0 0 0 0 0 127 0" result="hardAlpha"/>
<feOffset dy="4"/>
<feGaussianBlur stdDeviation="7.5"/>
<feComposite in2="hardAlpha" operator="out"/>
<feColorMatrix type="matrix" values="0 0 0 0 0 0 0 0 0 0 0 0 0 0 0 0 0 0 0.1 0"/>
<feBlend mode="normal" in2="BackgroundImageFix" result="effect1_dropShadow_1138_5251"/>
<feBlend mode="normal" in="SourceGraphic" in2="effect1_dropShadow_1138_5251" result="shape"/>
</filter>
<clipPath id="clip0_1138_5251">
<rect width="548" height="506" fill="white"/>
</clipPath>
</defs>
</svg>
